<svg width="16" height="15" viewBox="0 0 16 15" fill="none" xmlns="http://www.w3.org/2000/svg">
<path opacity="0.5" d="M15.1965 5.56817C15.1466 5.4235 15.0154 5.32017 14.8561 5.29655L10.1087 4.65884L7.97234 0.599356C7.9005 0.463548 7.75371 0.37793 7.59442 0.37793C7.43513 0.37793 7.28834 0.463548 7.2165 0.602308L5.10828 4.6736L0.360864 5.34083C0.201576 5.36445 0.0703971 5.46779 0.0204243 5.61245C-0.0295484 5.75712 0.0141777 5.91654 0.12974 6.01988L3.57474 9.17594L2.7783 13.6458C2.75019 13.7964 2.81578 13.9469 2.94695 14.0355C3.01879 14.0857 3.10624 14.1123 3.19369 14.1123C3.26241 14.1123 3.328 14.0975 3.39046 14.065L7.62878 11.9423L11.8796 14.0414C11.9421 14.0709 12.0076 14.0857 12.0732 14.0857C12.3044 14.0857 12.4949 13.9056 12.4949 13.6871C12.4949 13.6547 12.4918 13.6251 12.4824 13.5956L11.661 9.15232L15.0841 5.97854C15.2059 5.87226 15.2465 5.71283 15.1965 5.56817ZM10.9176 8.73014C10.8177 8.82166 10.7739 8.95451 10.7989 9.08442L11.5142 12.9609L7.82242 11.1393C7.70061 11.0773 7.55382 11.0802 7.42889 11.1393L3.74964 12.9815L4.43989 9.09918C4.46175 8.96928 4.41803 8.83937 4.31808 8.74785L1.33221 6.00807L5.45184 5.4294C5.58926 5.40874 5.70795 5.32902 5.76729 5.21093L7.59754 1.67696L9.45278 5.20207C9.51525 5.32017 9.63393 5.39988 9.77136 5.42055L13.8941 5.97559L10.9176 8.73014Z" fill="#0f0f0f"/>
</svg>
