<svg width="16" height="15" viewBox="0 0 16 15" fill="none" xmlns="http://www.w3.org/2000/svg">
<path d="M14.8561 5.29655C15.0154 5.32017 15.1466 5.4235 15.1965 5.56817C15.2465 5.71283 15.2059 5.87226 15.0841 5.97854L11.661 9.15232L12.4824 13.5956C12.4918 13.6251 12.4949 13.6547 12.4949 13.6871C12.4949 13.9056 12.3044 14.0857 12.0732 14.0857C12.0076 14.0857 11.9421 14.0709 11.8796 14.0414L7.62878 11.9423L3.39046 14.065C3.328 14.0975 3.26241 14.1123 3.19369 14.1123C3.10624 14.1123 3.01879 14.0857 2.94695 14.0355C2.81578 13.9469 2.75019 13.7964 2.7783 13.6458L3.57474 9.17594L0.12974 6.01988C0.0141777 5.91654 -0.0295484 5.75712 0.0204243 5.61245C0.0703971 5.46779 0.201576 5.36445 0.360864 5.34083L5.10828 4.6736L7.2165 0.602308C7.28834 0.463548 7.43513 0.37793 7.59442 0.37793C7.75371 0.37793 7.9005 0.463548 7.97234 0.599356L10.1087 4.65884L14.8561 5.29655Z" fill="#0f0f0f"/>
</svg>
