<svg width="929" height="662" viewBox="0 0 929 662" fill="none" xmlns="http://www.w3.org/2000/svg">
     <rect clip-path="url(#77fudlf7tbo)" x="0" y="0" width="929" height="662" style="fill: url(&quot;#cb59ner01oa&quot;);"></rect>
        <defs>
            <clipPath id="77fudlf7tbo">
                <rect opacity="0.4" x="182" y="46" width="747" height="1" fill="#D6D6D6"/>
                <rect width="64" height="19" rx="5" fill="#F7F7F7"/>
                <rect y="29" width="64" height="19" rx="5" fill="#F7F7F7"/>
                <rect y="57" width="64" height="19" rx="5" fill="#F7F7F7"/>
                <rect x="182" y="2" width="160" height="23" rx="5" fill="#F7F7F7"/>
                <rect x="182" y="77" width="98" height="16" rx="5" fill="#F7F7F7"/>
                <rect x="182" y="588" width="139" height="16" rx="5" fill="#F7F7F7"/>
                <rect x="182" y="472" width="139" height="16" rx="5" fill="#F7F7F7"/>
                <rect x="182" y="298" width="139" height="16" rx="5" fill="#F7F7F7"/>
                <rect x="182" y="229" width="158" height="16" rx="5" fill="#F7F7F7"/>
                <rect x="182" y="109" width="67" height="15" rx="5" fill="#F7F7F7"/>
                <rect x="182" y="127" width="76" height="17" rx="5" fill="#F7F7F7"/>
                <rect opacity="0.4" x="182" y="149" width="323" height="1" fill="#D6D6D6"/>
                <rect x="182" y="164" width="67" height="15" rx="5" fill="#F7F7F7"/>
                <rect x="182" y="182" width="76" height="17" rx="5" fill="#F7F7F7"/>
                <rect opacity="0.4" x="182" y="204" width="323" height="1" fill="#D6D6D6"/>
                <rect x="182" y="328" width="67" height="15" rx="5" fill="#F7F7F7"/>
                <rect x="182" y="346" width="76" height="17" rx="5" fill="#F7F7F7"/>
                <rect opacity="0.4" x="182" y="368" width="323" height="1" fill="#D6D6D6"/>
                <rect x="182" y="383" width="67" height="15" rx="5" fill="#F7F7F7"/>
                <rect x="182" y="401" width="76" height="17" rx="5" fill="#F7F7F7"/>
                <rect opacity="0.4" x="182" y="423" width="323" height="1" fill="#D6D6D6"/>
                <rect x="182" y="502" width="67" height="15" rx="5" fill="#F7F7F7"/>
                <rect x="182" y="520" width="76" height="17" rx="5" fill="#F7F7F7"/>
                <rect opacity="0.4" x="182" y="542" width="323" height="1" fill="#D6D6D6"/>
                <rect x="537" y="328" width="67" height="15" rx="5" fill="#F7F7F7"/>
                <rect x="537" y="346" width="76" height="17" rx="5" fill="#F7F7F7"/>
                <rect opacity="0.4" x="537" y="368" width="323" height="1" fill="#D6D6D6"/>
                <rect x="537" y="383" width="67" height="15" rx="5" fill="#F7F7F7"/>
                <rect x="537" y="401" width="76" height="17" rx="5" fill="#F7F7F7"/>
                <rect opacity="0.4" x="537" y="423" width="323" height="1" fill="#D6D6D6"/>
                <rect x="539" y="109" width="67" height="15" rx="5" fill="#F7F7F7"/>
                <rect x="539" y="127" width="76" height="17" rx="5" fill="#F7F7F7"/>
                <rect opacity="0.4" x="539" y="149" width="323" height="1" fill="#D6D6D6"/>
                <rect x="539" y="164" width="67" height="15" rx="5" fill="#F7F7F7"/>
                <rect x="539" y="182" width="76" height="17" rx="5" fill="#F7F7F7"/>
                <rect opacity="0.4" x="539" y="204" width="323" height="1" fill="#D6D6D6"/>
                <rect x="527" y="640" width="111" height="15" rx="5" fill="#F7F7F7"/>
                <rect x="182" y="621" width="67" height="15" rx="5" fill="#F7F7F7"/>
                <rect x="182" y="639" width="76" height="17" rx="5" fill="#F7F7F7"/>
                <rect opacity="0.4" x="182" y="661" width="323" height="1" fill="#D6D6D6"/>
            </clipPath><linearGradient id="cb59ner01oa"><stop offset="0.675228" stop-color="#f9f9f9"><animate attributeName="offset" values="-2; 1" dur="2s" repeatCount="indefinite"></animate></stop><stop offset="1.17523" stop-color="#ecebeb"><animate attributeName="offset" values="-1.5; 1.5" dur="2s" repeatCount="indefinite"></animate></stop><stop offset="1.67523" stop-color="#f9f9f9"><animate attributeName="offset" values="-1; 2" dur="2s" repeatCount="indefinite"></animate></stop></linearGradient></defs>
</svg>
