<svg width="54" height="53" viewBox="0 0 54 53" fill="none" xmlns="http://www.w3.org/2000/svg">
<path d="M53.2534 22.0331C53.4206 23.0065 53.5341 23.998 53.5907 25.0044L53.0915 25.0325C53.1189 25.5182 53.1327 26.0075 53.1327 26.5C53.1327 26.9925 53.1189 27.4818 53.0915 27.9675L53.5907 27.9956C53.5341 29.002 53.4206 29.9935 53.2534 30.9669L52.7606 30.8823C52.5937 31.854 52.3722 32.8073 52.0994 33.739L52.5792 33.8795C52.2975 34.8418 51.962 35.7816 51.5762 36.6954L51.1156 36.501C50.7337 37.4055 50.3016 38.2841 49.8227 39.1336L50.2582 39.3791C49.7675 40.2496 49.2285 41.0898 48.645 41.8963L48.2399 41.6032C47.666 42.3964 47.048 43.1565 46.3895 43.8798L46.7593 44.2164C46.0884 44.9534 45.3763 45.653 44.6265 46.3117L44.2965 45.9361C43.5626 46.5808 42.7919 47.1857 41.9879 47.747L42.2742 48.157C41.459 48.7263 40.6102 49.2517 39.7313 49.7299L39.4923 49.2907C38.6365 49.7563 37.7516 50.1763 36.8411 50.5472L37.0297 51.0103C36.1118 51.3842 35.1684 51.7092 34.2027 51.982L34.0667 51.5009C33.1324 51.7649 32.1768 51.9791 31.203 52.1405L31.2847 52.6338C30.3106 52.7952 29.3187 52.9048 28.3119 52.9595L28.2848 52.4602C27.7988 52.4866 27.3092 52.5 26.8164 52.5C26.3236 52.5 25.834 52.4866 25.3479 52.4602L25.3208 52.9595C24.3141 52.9048 23.3221 52.7952 22.348 52.6338L22.4298 52.1405C21.4559 51.9791 20.5003 51.7649 19.566 51.5009L19.43 51.982C18.4643 51.7092 17.5209 51.3842 16.603 51.0103L16.7917 50.5472C15.8811 50.1763 14.9962 49.7563 14.1404 49.2907L13.9014 49.7299C13.0226 49.2517 12.1738 48.7263 11.3585 48.157L11.6448 47.747C10.8408 47.1857 10.0701 46.5808 9.3362 45.9361L9.0062 46.3117C8.25644 45.653 7.54433 44.9534 6.87345 44.2164L7.2432 43.8798C6.58472 43.1565 5.96676 42.3964 5.39284 41.6032L4.98776 41.8963C4.40417 41.0898 3.86522 40.2496 3.37448 39.3791L3.81002 39.1336C3.33109 38.2841 2.899 37.4055 2.51717 36.501L2.05653 36.6954C1.67076 35.7816 1.33528 34.8418 1.05351 33.8795L1.53336 33.739C1.26054 32.8073 1.03906 31.854 0.872137 30.8823L0.379355 30.9669C0.212145 29.9935 0.0986495 29.002 0.0419882 27.9956L0.541198 27.9675C0.513856 27.4818 0.5 26.9925 0.5 26.5C0.5 26.0075 0.513856 25.5182 0.541198 25.0325L0.0419883 25.0044C0.0986498 23.998 0.212145 23.0065 0.379356 22.0331L0.872138 22.1177C1.03906 21.146 1.26054 20.1927 1.53336 19.261L1.05351 19.1205C1.33528 18.1582 1.67076 17.2184 2.05653 16.3046L2.51717 16.499C2.899 15.5945 3.33109 14.7159 3.81002 13.8664L3.37448 13.6209C3.86522 12.7504 4.40417 11.9102 4.98776 11.1037L5.39284 11.3968C5.96676 10.6036 6.58472 9.84354 7.2432 9.12016L6.87345 8.78358C7.54433 8.04659 8.25645 7.34698 9.0062 6.6883L9.3362 7.06393C10.0701 6.41916 10.8408 5.81435 11.6448 5.25295L11.3585 4.84301C12.1738 4.27373 13.0226 3.74828 13.9014 3.27011L14.1404 3.70931C14.9962 3.24366 15.8811 2.82371 16.7917 2.45278L16.603 1.98973C17.5209 1.61583 18.4643 1.29082 19.43 1.01797L19.566 1.49913C20.5003 1.23515 21.4559 1.02091 22.4298 0.859497L22.348 0.366226C23.3221 0.204766 24.3141 0.0952046 25.3208 0.0405165L25.3479 0.53978C25.834 0.513378 26.3236 0.5 26.8164 0.5C27.3092 0.5 27.7988 0.513378 28.2848 0.53978L28.3119 0.0405166C29.3187 0.0952047 30.3106 0.204767 31.2847 0.366227L31.203 0.859497C32.1768 1.02091 33.1324 1.23515 34.0667 1.49913L34.2027 1.01797C35.1684 1.29082 36.1118 1.61583 37.0297 1.98973L36.8411 2.45278C37.7516 2.82371 38.6365 3.24366 39.4923 3.70931L39.7313 3.27011C40.6102 3.74828 41.459 4.27373 42.2742 4.84301L41.9879 5.25296C42.7919 5.81435 43.5626 6.41916 44.2965 7.06394L44.6265 6.6883C45.3763 7.34698 46.0884 8.04659 46.7593 8.78359L46.3895 9.12017C47.048 9.84354 47.666 10.6036 48.2399 11.3968L48.645 11.1037C49.2286 11.9102 49.7675 12.7504 50.2582 13.6209L49.8227 13.8664C50.3016 14.7159 50.7337 15.5945 51.1156 16.499L51.5762 16.3046C51.962 17.2184 52.2975 18.1582 52.5792 19.1205L52.0994 19.261C52.3722 20.1927 52.5937 21.146 52.7606 22.1177L53.2534 22.0331Z" stroke="#363636" stroke-opacity="0.17" stroke-dasharray="3 3"/>
<rect x="26.3889" y="21" width="0.856255" height="11" fill="#818181"/>
<rect x="32.3813" y="26.0781" width="0.846154" height="11.1313" transform="rotate(90 32.3813 26.0781)" fill="#818181"/>
</svg>
