<svg width="80" height="24" viewBox="0 0 80 24" fill="none" xmlns="http://www.w3.org/2000/svg">
<path d="M17.471 1.04589L10.0348 20.8094L2.50579 1.04589L1 1.02306L9.33974 23.0002H10.6603L19 1.00024L17.471 1.04589Z" fill="white" stroke="white" stroke-width="0.3" stroke-miterlimit="10"/>
<path d="M24 1H22V23H24V1Z" fill="white" stroke="white" stroke-width="0.3" stroke-miterlimit="10"/>
<path d="M30.4675 21.5608V1H29V23H43V21.5608H30.4675Z" fill="white" stroke="white" stroke-width="0.3" stroke-miterlimit="10"/>
<path d="M59 21.5608H46.4873V1H45V23H58.3861L59 21.5608Z" fill="white" stroke="white" stroke-width="0.3" stroke-miterlimit="10"/>
<path d="M79 22.9544L70.1394 1H68.8378L60 23L61.5529 22.9772L64.3389 16.0322H74.5925L77.3558 23L79 22.9544ZM64.887 14.593L69.4771 3.05608L74.0445 14.593H64.887Z" fill="white" stroke="white" stroke-width="0.3" stroke-miterlimit="10"/>
</svg>
