<svg width="102" height="30" viewBox="0 0 102 30" fill="none" xmlns="http://www.w3.org/2000/svg">
<path d="M21.9487 1.05809L12.4909 26.2115L2.91514 1.05809L1 1.02904L11.6069 28.9999H13.2864L23.8933 1L21.9487 1.05809Z" fill="white" stroke="white" stroke-width="0.3" stroke-miterlimit="10"/>
<path d="M30.0845 1.02957H28.2283V29.0004H30.0845V1.02957Z" fill="white" stroke="white" stroke-width="0.3" stroke-miterlimit="10"/>
<path d="M38.5066 27.1706V1.02957H36.6504V29.0004H54.3581V27.1706H38.5066Z" fill="white" stroke="white" stroke-width="0.3" stroke-miterlimit="10"/>
<path d="M74.6292 27.1706H59.0134V1.02957H57.1572V29.0004H73.8631L74.6292 27.1706Z" fill="white" stroke="white" stroke-width="0.3" stroke-miterlimit="10"/>
<path d="M101 28.9424L89.5681 1.02957H87.8887L76.4862 29.0004L78.4897 28.9714L82.0843 20.1415H95.3135L98.8786 29.0004L101 28.9424ZM82.7914 18.3117L88.7136 3.64367L94.6064 18.3117H82.7914Z" fill="white" stroke="white" stroke-width="0.3" stroke-miterlimit="10"/>
</svg>
