<svg width="15" height="10" viewBox="0 0 15 10" fill="none" xmlns="http://www.w3.org/2000/svg">
<path d="M1.26611 0.600402L6.60078 4.74276C6.84269 4.93039 7.17604 5.01378 7.49982 4.99814C7.82307 5.01378 8.15642 4.93091 8.39832 4.74276L13.733 0.600402C14.1604 0.270494 14.0637 0 13.5214 0H7.50035H1.47931C0.936483 0 0.839721 0.270494 1.26611 0.600402Z" fill="#818181" fill-opacity="0.28"/>
<path d="M14.2031 2.15009L8.29881 6.17141C8.07804 6.32019 7.78889 6.39264 7.50081 6.38926C7.21219 6.39264 6.92304 6.31971 6.70226 6.17141L0.796927 2.15009C0.358617 1.85205 0 2.01194 0 2.50513V9.10299C0 9.59618 0.450156 10 0.999928 10H7.49973H14.0001C14.5498 10 15 9.59618 15 9.10299V2.50513C15 2.01194 14.6414 1.85205 14.2031 2.15009Z" fill="#818181" fill-opacity="0.28"/>
</svg>
