<svg width="1170" height="539" viewBox="0 0 1170 539" fill="none" xmlns="http://www.w3.org/2000/svg">
<path d="M1165.71 467.312C1167.08 467.143 1168.97 465.965 1170 467.143C1169.14 468.996 1167.77 471.016 1165.71 471.858C1164.68 472.195 1163.48 472.195 1162.45 472.531C1160.56 473.373 1159.53 475.225 1157.99 476.572C1156.44 477.751 1154.38 478.93 1152.66 479.94C1151.12 480.95 1148.89 482.97 1147 481.455C1147.17 478.761 1149.92 478.93 1150.6 476.741C1150.6 475.225 1149.23 475.057 1149.23 473.373C1152.32 470.679 1157.3 468.659 1158.16 463.103C1158.5 460.577 1156.44 455.357 1159.53 455.021C1163.13 454.684 1161.07 458.556 1161.42 460.577C1161.59 461.419 1162.28 461.924 1162.79 463.103C1163.48 465.123 1163.48 466.807 1165.71 467.312Z" fill="#F3F3F3"/>
<path d="M1144 480.905C1142.82 484.554 1137.28 486.545 1133.75 488.867C1132.58 489.53 1131.74 491.189 1130.39 491.687C1128.71 492.35 1126.7 492.184 1124.85 493.014C1121.83 494.341 1119.64 496.995 1117.12 498.819C1114.6 500.478 1110.74 502.8 1107.71 502.966C1104.35 503.298 1098.31 501.142 1102.34 498.156C1104.02 496.829 1107.88 495.336 1109.73 494.341C1116.11 491.189 1125.02 489.033 1130.22 485.383C1133.25 483.227 1135.94 481.071 1138.62 479.246C1140.14 478.251 1142.49 480.573 1144 480.905Z" fill="#F3F3F3"/>
<path d="M1104.85 330.037C1105.51 329.852 1105.51 330.407 1106 330.592C1105.67 334.109 1103.87 336.33 1099.95 335.96C1098.15 335.775 1095.04 334.294 1095.04 333.184C1094.38 329.852 1102.73 331.888 1104.85 330.037Z" fill="#F3F3F3"/>
<path d="M1094.13 345.656C1095.82 346.175 1102.88 351.358 1100.52 353.604C1099.35 354.814 1097.67 352.913 1095.65 352.395C1092.96 351.704 1090.77 352.568 1088.92 351.013C1086.73 349.285 1086.23 345.656 1084.04 343.41C1082.87 342.373 1079.84 340.818 1077.82 341.164C1074.29 341.51 1074.29 345.656 1071.09 347.557C1068.07 347.211 1066.22 348.075 1064.03 347.384C1061.68 346.52 1060.33 343.41 1058.14 343.065C1055.96 342.719 1050.58 346.866 1049.74 343.237C1049.06 340.3 1053.44 339.436 1053.77 337.536C1054.11 335.462 1052.09 332.525 1051.08 331.488C1050.07 330.624 1048.9 330.624 1047.72 329.933C1046.54 329.242 1045.7 327.86 1044.35 327.169C1039.65 324.577 1032.58 325.614 1030.73 321.64C1030.4 320.948 1030.9 320.085 1030.56 319.048C1030.06 317.838 1028.21 317.32 1027.71 316.283C1026.19 313.519 1027.2 309.372 1029.89 309.027C1032.41 308.681 1037.12 311.791 1037.63 313.692C1037.96 314.728 1037.46 315.765 1037.63 316.975C1037.96 318.357 1039.81 321.64 1041.66 321.812C1044.02 321.985 1045.36 318.357 1047.38 316.975C1048.9 316.111 1051.25 314.901 1053.27 315.074C1055.12 315.247 1056.46 316.802 1058.65 317.666C1060.16 318.184 1062.18 318.53 1064.03 319.048C1065.71 319.566 1067.06 320.43 1068.74 321.121C1074.12 323.022 1080.34 324.231 1083.2 327.687C1084.04 328.724 1084.04 330.106 1085.05 331.143C1086.06 332.179 1091.11 333.043 1091.27 335.289C1091.44 337.017 1089.09 337.017 1089.09 338.745C1088.75 342.028 1093.29 341.855 1094.13 345.656Z" fill="#F3F3F3"/>
<path d="M1046 480.19C1045.36 483 1043.27 485.976 1040.69 487.794C1038.77 489.117 1032.66 491.927 1032.01 487.96C1031.85 486.802 1033.14 481.843 1033.78 480.686C1035.23 477.545 1036.84 479.694 1039.41 480.024C1041.66 480.686 1043.91 478.702 1046 480.19Z" fill="#F3F3F3"/>
<path d="M1028.84 152.549C1029.67 155.278 1030.34 158.008 1031 160.397C1028.51 163.468 1023.7 162.273 1020.22 163.979C1018.56 164.832 1018.06 167.562 1016.4 168.074C1015.07 168.415 1014.08 166.88 1012.91 166.88C1009.76 166.88 1008.27 172.339 1004.29 170.974C1002.13 172.339 1004.45 177.628 1001.63 177.969C999.641 178.31 998.646 175.751 997.484 174.045C995.991 172.168 994 171.145 994 169.439C994 167.903 997.152 165.174 998.148 163.979C999.475 162.615 1001.8 160.055 1003.46 159.714C1006.44 159.032 1009.43 160.055 1011.59 159.032C1013.58 158.179 1013.58 155.108 1014.74 154.255C1015.57 153.572 1016.57 153.743 1017.39 153.402C1019.39 152.208 1021.71 148.284 1020.55 144.36C1019.88 141.801 1015.74 139.071 1018.39 136C1022.21 136.512 1027.35 140.436 1028.01 144.36C1028.35 145.895 1027.35 147.431 1027.52 149.137C1027.68 150.331 1028.51 151.355 1028.84 152.549Z" fill="#F3F3F3"/>
<path d="M1030 127.941C1029.49 129.118 1028.46 128.781 1027.43 129.454C1026.57 130.126 1025.37 132.143 1024.17 132.311C1022.29 132.647 1020.23 130.63 1018.51 130.966C1016.46 131.471 1017.66 132.983 1016.97 135C1015.09 134.664 1012 132.647 1012 130.462C1012 129.118 1013.71 128.445 1014.06 126.933C1014.74 124.412 1013.03 123.067 1012 120.714C1012 120.378 1012.17 120.378 1012.17 120.042C1014.4 119.538 1018.69 123.739 1023.83 124.58C1027.26 125.084 1029.83 124.748 1030 127.941Z" fill="#F3F3F3"/>
<path d="M1021.99 356.755C1022.19 358.411 1018.4 358.26 1018 357.206C1018.2 355.851 1021.59 355.55 1021.99 356.755Z" fill="#F3F3F3"/>
<path d="M1006.16 110C1008.22 110.946 1013.29 113.108 1009.81 115C1007.59 114.324 1005.37 112.027 1006.16 110Z" fill="#F3F3F3"/>
<path d="M995.217 347.148C997.747 345.854 1000.61 342.942 1005 344.398C1003.99 347.148 1000.61 346.986 998.59 348.28C996.398 349.574 994.542 351.677 991.843 352C991.675 351.677 991.337 351.353 991 351.191C991 348.603 993.53 348.118 995.217 347.148Z" fill="#F3F3F3"/>
<path d="M989.971 304.966C992.714 304.966 995.114 304.161 997 305.128C996.657 310.443 987.914 306.416 981.914 307.222C980.714 307.383 980.371 308.349 979 307.866C979 306.094 981.229 304.161 983.286 304C985 304 987.4 304.966 989.971 304.966Z" fill="#F3F3F3"/>
<path d="M991.981 311.534C992.335 314.735 987.726 315.091 986.485 317.759C988.435 320.783 989.144 324.874 991.449 327.72C991.272 329.499 991.803 331.812 990.74 332.701C985.953 333.59 983.472 325.052 981.522 322.028C977.976 322.74 981.167 334.302 976.381 332.879C974.076 332.167 976.381 328.788 975.849 326.297C975.494 323.985 973.19 323.629 973.012 321.85C972.835 320.427 974.608 318.827 975.14 317.404C975.849 315.269 975.494 311.178 977.976 311C979.217 311 980.99 313.668 981.699 313.846C984.712 314.202 988.081 310.644 991.981 311.534Z" fill="#F3F3F3"/>
<path d="M983 345.294C982.265 346.576 978.294 345.935 978 344.781C978.588 343.499 982.706 343.883 983 345.294Z" fill="#F3F3F3"/>
<path d="M980 351.015C979.517 351.409 979.276 351.803 978.793 352C976.379 351.409 973.724 350.818 973 348.848C974.69 346.877 979.759 348.651 980 351.015Z" fill="#F3F3F3"/>
<path d="M972 345.206C970.884 347.199 967.217 345.007 965.942 347C963.71 347 961.478 346.801 961 344.608C961.638 342.615 963.71 344.011 965.304 343.811C967.696 343.612 971.203 341.42 972 345.206Z" fill="#F3F3F3"/>
<path d="M941.109 431.415C941.109 429.377 939.921 427.679 939.582 425.642C939.412 424.962 939.751 423.943 939.582 422.925C939.412 421.566 938.733 420.377 938.903 419.528C939.242 418 940.939 417.83 941.448 416.642C942.127 414.604 940.6 414.264 940.6 411.717C940.6 410.019 941.957 409 942.806 406.792C943.145 405.774 943.315 403.736 943.654 402.887C944.163 401.868 946.709 401.189 947.727 400.679C951.121 398.981 954.006 395.755 957.4 395.245C958.248 395.075 959.436 395.415 960.115 395.245C962.151 394.906 964.696 393.208 967.581 392.528C970.296 391.849 972.672 392.189 974.708 391C976.914 389.641 980.138 386.245 980.987 384.208C982.005 381.66 981.666 379.623 983.702 378.774C984.72 378.434 985.569 378.774 986.587 378.604C987.605 378.264 989.811 377.245 990.659 376.566C992.187 375.208 992.526 372.83 994.223 371.302C995.411 370.283 997.786 368.755 999.483 367.906C1000.5 367.396 1002.2 366.887 1003.05 367.057C1006.27 367.396 1007.63 371.811 1011.19 370.962C1012.38 370.623 1013.74 368.075 1014.76 366.377C1016.45 364 1017.64 360.943 1020.36 360.264C1022.56 359.755 1025.11 361.113 1026.46 359.075C1026.8 357.717 1025.45 356.868 1026.46 355.849C1029.01 356.019 1033.59 359.585 1037.49 359.755C1039.7 359.755 1043.6 357.377 1043.94 360.604C1044.11 361.962 1042.42 363.151 1041.91 364.679C1041.57 365.698 1042.42 366.208 1041.74 367.396C1039.87 368.075 1038 368.415 1037.83 370.623C1037.83 373.17 1041.4 374.358 1043.6 375.887C1045.13 376.906 1046.32 378.264 1047.17 378.774C1047.85 379.113 1049.03 379.453 1049.37 379.623C1050.9 380.642 1051.92 382.679 1053.95 382.849C1056.16 382.849 1058.54 379.962 1059.72 377.245C1061.25 374.019 1061.25 370.113 1061.93 366.717C1062.1 365.528 1062.95 364.509 1063.29 363.321C1064.14 360.264 1065.32 356.019 1068.04 355C1070.75 357.887 1071.6 363.321 1071.26 368.075C1073.13 369.434 1076.18 368.924 1076.69 372.151C1076.86 373.17 1076.18 374.698 1076.18 375.717C1076.35 377.585 1077.71 379.283 1078.05 380.981C1078.56 384.038 1077.54 386.415 1078.9 388.623C1080.6 391.34 1084.16 391.34 1086.37 394.226C1086.37 396.094 1087.05 396.774 1087.55 398.302C1087.72 398.981 1087.55 400.17 1087.72 400.509C1088.4 402.038 1090.44 402.208 1091.12 403.396C1091.46 404.076 1091.29 405.264 1091.8 406.283C1092.48 407.981 1093.83 409.17 1095.02 410.868C1096.04 412.396 1097.74 414.094 1097.91 415.453C1098.41 417.66 1096.72 419.189 1096.38 421.057C1095.87 423.264 1096.38 426.151 1095.53 428.528C1094.51 431.245 1091.97 433.962 1089.93 437.359C1088.23 440.245 1086.03 443.302 1083.65 445.17C1082.29 446.358 1080.6 447.038 1079.07 448.057C1076.86 449.755 1075.17 452.132 1073.3 454.17C1071.26 456.377 1068.89 457.906 1067.19 459.774C1064.82 462.491 1063.8 466.736 1059.72 467.245C1057.35 467.585 1055.31 467.245 1053.28 468.094C1049.88 469.453 1047.68 471.83 1046.15 472C1044.45 472 1042.76 469.962 1041.23 469.792C1039.36 469.623 1038 471.151 1035.46 471.151C1034.44 471.151 1033.76 470.472 1032.23 469.962C1029.01 468.943 1025.45 468.943 1025.11 465.377C1024.77 463.509 1026.29 462.66 1026.29 460.792C1026.13 459.094 1024.6 458.585 1023.75 457.226C1024.26 455.698 1024.26 453.66 1022.56 452.642C1022.56 451.283 1022.9 450.264 1023.41 449.415C1022.05 449.925 1020.36 450.264 1018.83 451.283C1017.13 452.302 1015.94 454.509 1014.08 454.17C1012.38 453.491 1013.74 451.792 1013.4 450.264C1013.23 449.245 1010.68 444.491 1009.5 443.811C1008.14 442.962 1003.39 441.094 1001.86 440.925C994.902 439.906 990.49 443.642 984.89 444.151C983.532 444.321 982.005 443.981 980.648 444.151C976.066 445 971.145 448.566 968.26 450.943C963.678 451.453 958.927 449.925 954.006 451.453C949.254 452.811 946.539 456.887 939.073 455.698C937.545 454.509 935 453.83 935 451.623C935 449.925 937.545 448.736 938.394 447.547C939.242 446.189 940.77 443.132 940.939 441.264C940.939 439.736 939.921 438.038 940.091 436.17C940.26 434.472 941.109 432.943 941.109 431.415Z" fill="#F3F3F3"/>
<path d="M937.17 337.436C938.336 337.273 939.336 336.453 940.502 336.289C943.002 336.125 945.668 338.093 948.668 337.765C949.334 338.421 948.835 339.076 948.835 340.224C951.501 341.536 955.667 341.372 957 343.996C955 345.964 952.167 344.488 949.668 344.16C947.501 343.832 945.002 343.996 942.669 343.668C939.503 343.34 936.836 341.7 933.837 341.208C932.004 341.044 930.171 341.536 928.504 341.208C926.505 340.88 919.172 338.093 919.006 336.289C918.839 334.321 922.339 333.665 925.338 334.157C929.504 334.649 932.17 338.092 937.17 337.436Z" fill="#F3F3F3"/>
<path d="M943.338 321.592C941.663 321.083 940.154 321.422 939.317 320.913C937.808 319.895 937.976 317.351 937.473 315.654C936.97 314.127 935.127 313.279 934.122 311.073C932.613 308.019 932.111 301.063 935.965 300.554C937.473 300.215 939.149 301.572 940.154 301.233C942.333 300.724 941.998 297.84 943.674 296.652C944.679 295.973 946.522 296.313 947.863 295.804C949.371 295.295 950.377 293.937 951.382 292.58C952.388 291.392 953.058 289.526 954.231 288.678C955.572 287.83 956.912 287.66 958.085 286.812C960.934 284.606 961.102 281.382 963.448 278.668C965.459 276.293 968.475 280.873 968.811 282.74C969.984 284.097 972.162 284.606 973 286.133C971.659 290.035 967.973 290.374 968.811 295.973C968.978 296.822 969.481 298.518 970.151 299.875C970.822 301.233 972.665 302.59 972.665 303.438C972.497 305.135 969.146 304.965 968.475 306.832C967.805 308.528 968.475 308.528 968.308 311.073C967.302 312.939 964.789 313.279 964.118 315.654C963.113 318.369 964.286 321.762 962.107 323.798C960.599 323.798 959.091 325.155 957.248 324.985C955.237 324.816 953.393 322.101 950.377 322.101C949.204 322.101 947.863 322.949 946.522 322.78C945.517 322.949 944.679 322.101 943.338 321.592Z" fill="#F3F3F3"/>
<path d="M928.5 317C934.5 317 934.5 326 928.5 326C922.5 326 922.5 317 928.5 317Z" fill="#F3F3F3"/>
<path d="M919.845 316.027C920.509 316.195 923 319.552 923 320.559C923 322.07 920.675 322.07 919.845 324.085C918.848 327.274 920.343 330.967 918.516 332.478C917.52 333.149 915.693 332.981 914.033 332.981C910.047 330.128 906.892 326.77 903.404 322.91C902.242 321.567 900.581 320.392 899.917 318.881C898.755 316.699 898.422 314.349 897.094 312.502C895.931 310.823 893.773 309.481 892.61 307.634C891.614 306.123 891.614 303.941 890.617 302.43C889.787 301.087 888.126 300.416 887.13 299.241C886.466 298.569 885.968 297.394 885.303 296.555C882.48 293.198 877.166 291.519 877 286.483C878.162 285.14 879.325 286.987 881.484 287.323C882.812 287.658 884.473 287.155 885.469 287.49C887.462 288.162 888.791 291.351 890.949 293.03C892.112 294.037 893.773 294.709 894.935 295.716C896.264 296.891 897.26 298.402 898.256 299.073C899.751 299.912 901.744 300.584 903.57 301.759C906.061 303.437 910.711 305.116 911.209 308.473C911.375 309.313 910.877 310.656 911.043 311.327C911.375 312.502 912.87 313.006 913.7 314.013C914.863 315.188 915.029 317.034 916.524 317.37C918.018 318.042 918.018 315.859 919.845 316.027Z" fill="#F3F3F3"/>
<path d="M813.646 269C815.382 269.657 821.536 277.218 819.642 281.492C819.169 282.642 817.117 284.286 815.066 283.957C810.964 283.3 811.753 273.602 813.015 269.822C813.173 269.329 813.331 269.164 813.646 269Z" fill="#F3F3F3"/>
<path d="M664.969 382.653C665.133 380.809 666.45 377.96 667.767 376.787C669.742 375.278 672.54 375.446 674.515 374.273C676.161 373.435 678.465 371.926 679.782 370.25C680.769 368.91 680.934 367.234 681.757 366.228C682.415 365.558 683.732 365.39 684.39 364.384C685.049 363.546 684.884 362.206 685.872 361.2C688.834 359.859 689.822 365.558 690.315 369.412C690.48 370.586 691.138 371.926 690.974 372.597C690.645 374.44 688.67 374.776 688.176 375.949C688.011 380.809 686.201 384.999 684.39 389.022C682.909 392.541 682.086 396.229 680.934 399.245C680.44 400.251 679.617 401.257 679.123 402.095C677.477 405.95 676.984 411.816 674.021 413.492C673.033 413.994 669.083 415 667.931 415C665.298 415 662.993 412.989 662.335 410.475C662.006 409.134 662.335 407.961 662.17 406.452C661.841 404.609 660.854 403.1 661.018 401.089C661.512 396.564 665.791 394.385 666.121 390.698C666.285 388.351 664.639 385.502 664.969 382.653Z" fill="#F3F3F3"/>
<path d="M555.778 62.1279C556.117 65.8583 550.003 65.3496 549.324 68.5712C548.984 70.0973 550.003 71.9625 549.833 73.319C549.324 75.6928 547.116 75.0145 544.228 76.2015C542.7 76.8797 541.341 79.2535 539.643 79.4231C538.114 79.5927 537.265 78.5753 536.246 78.7449C534.717 79.084 535.227 80.7796 533.019 81.2883C531.321 81.6274 528.264 79.7622 528.094 81.9665C527.924 83.323 530.811 84.1708 532.679 84.0013C534.038 83.8317 535.057 82.8143 536.586 82.8143C539.303 82.8143 541.002 84.8491 542.7 84.8491C546.606 85.0186 550.343 81.2883 554.419 81.6274C556.287 81.797 557.306 83.1535 558.665 82.9839C560.873 82.8143 562.741 80.2709 564.269 79.4231C563.59 75.6928 564.269 70.606 567.836 70.4364C570.214 70.2668 573.95 74.6754 574.29 70.4364C574.46 68.5712 572.422 67.0452 570.893 67.0452C569.534 67.0452 567.836 69.5886 566.817 67.5539C566.817 65.5191 569.195 66.0278 570.384 65.5192C571.403 65.18 572.082 64.1627 573.101 63.654C578.536 61.7888 585.839 65.5191 588.047 60.941C583.291 56.8715 575.139 62.4671 569.874 62.1279C567.496 61.9584 564.609 60.2628 563.76 58.0585C563.59 57.3803 563.76 56.3629 563.59 55.1759C563.42 53.8195 562.571 52.2934 562.741 51.2761C562.911 47.2066 573.101 46.5283 573.101 41.4415C571.233 39.5764 565.458 39.9155 563.59 41.9502C562.911 42.6285 562.911 44.1545 562.062 45.511C560.023 48.5631 553.57 48.9022 551.532 52.6325C551.022 53.4803 550.343 55.6847 550.682 57.2107C550.852 59.415 555.608 59.9237 555.778 62.1279ZM502.108 282.218C495.655 281.2 489.031 283.913 484.615 285.778C482.067 286.965 479.52 288.661 477.142 288.661C474.934 288.831 472.896 287.474 470.858 287.305C468.141 286.965 464.744 287.305 462.026 287.813C459.479 288.322 457.101 290.187 454.893 290.357C450.477 290.696 446.401 286.457 443.684 284.252C441.985 282.896 440.287 281.879 438.758 280.692C437.06 279.335 434.852 278.657 433.493 277.3C431.795 275.605 431.795 272.553 430.776 270.348C429.757 267.635 426.36 265.77 423.813 263.227C421.944 261.362 417.529 258.479 417.019 256.105C416.849 254.918 417.529 253.392 417.529 252.036C417.359 250.001 416 248.984 416 247.458C416 245.423 418.378 243.897 418.887 242.201C419.227 241.354 419.057 240.167 419.397 238.98C420.076 236.775 421.605 235.419 421.265 232.028C421.095 230.671 419.906 229.484 419.906 227.789C419.906 226.602 420.756 225.924 420.586 224.906C420.416 223.041 417.868 222.532 417.698 220.328C417.359 218.124 419.906 216.089 421.265 213.546C421.944 212.359 422.284 210.663 422.794 209.646C423.982 207.781 426.19 206.763 427.04 204.898C427.719 203.542 427.889 201.507 428.568 200.32C429.417 198.963 431.116 198.285 432.644 196.42C434.003 195.063 434.512 193.198 435.362 192.52C436.551 191.672 438.249 191.503 439.438 190.994C443.684 189.129 446.741 186.585 448.609 182.686C447.93 179.125 448.949 177.599 450.477 175.055C451.836 172.682 452.855 170.477 455.233 169.121C458.12 167.595 460.668 167.425 462.706 164.373C463.725 162.847 465.253 160.304 465.253 158.778C465.253 156.573 463.045 153.691 461.007 153.352C458.969 153.012 455.912 154.878 454.723 152.673C454.384 151.995 454.893 150.299 454.723 149.452C454.384 147.926 453.195 146.908 453.195 145.891C453.025 143.856 455.233 141.652 455.912 139.108C456.761 135.717 455.912 133.174 455.742 129.443C458.969 124.526 465.933 126.9 472.896 127.409C473.915 127.409 475.104 127.239 476.293 127.239C480.369 127.409 483.766 128.596 485.124 125.035C485.634 123.678 486.144 118.592 485.804 117.405C485.464 115.879 482.407 111.979 481.048 111.131C478.84 109.774 475.614 110.283 474.255 107.74C475.274 103.331 480.199 107.062 483.256 105.875C484.785 105.366 484.615 102.653 485.974 102.314C486.823 101.975 488.012 103.162 489.37 103.162C490.39 103.162 494.466 101.127 495.485 100.449C496.843 99.4313 497.353 97.3965 498.712 96.5487C499.561 96.0401 500.75 96.0401 501.599 95.7009C503.467 94.8531 506.015 93.1575 507.204 91.6315C509.072 89.4272 509.921 86.7142 512.129 86.2055C515.186 85.6968 521.98 86.8838 522.489 83.4926C522.999 80.271 519.772 77.8971 520.961 74.5059C521.98 71.7929 524.357 72.3016 527.754 70.606C529.452 71.7929 528.943 75.1841 529.113 77.0493C531.151 77.0493 535.397 76.371 535.906 74.5059C536.416 72.132 532.849 69.7581 532 68.4017C531.151 66.8756 530.981 64.1627 529.283 63.8236C525.886 63.1453 522.489 68.5712 518.243 68.5712C515.356 68.5712 512.469 66.3669 511.789 64.3322C511.45 63.1453 511.789 61.9584 511.619 60.7714C511.28 58.9063 510.261 57.0411 510.77 54.4977C512.469 51.6152 516.545 51.1065 519.262 49.5805C520.281 49.0718 521.13 47.7153 522.489 47.3761C524.527 46.6979 527.414 47.3762 529.452 46.1892C530.641 45.511 530.302 44.3241 531.321 42.798C531.83 41.9502 533.189 41.4415 534.038 40.2546C534.548 39.5764 534.548 38.3895 535.227 37.7112C537.265 35.3374 540.832 34.32 542.19 31.9461C542.87 30.7592 541.002 30.4201 541.511 28.7245C542.19 27.1984 545.078 28.3854 546.606 28.0462C548.814 27.7071 550.852 24.9941 553.4 24.4855C555.947 23.9768 558.665 24.3159 561.043 23.2985C562.401 22.7899 563.76 21.4334 565.119 21.2638C565.628 21.2638 566.987 21.6029 567.666 21.4334C568.515 21.4334 569.534 20.9247 570.553 20.7551C572.252 20.5856 574.29 21.0942 576.498 21.2638C580.064 21.2638 583.461 20.2465 586.349 21.4334C587.877 22.1116 587.707 23.8072 589.745 24.655C590.764 24.9941 592.123 24.4855 593.652 24.655C595.86 24.8246 598.237 26.3506 601.125 26.6898C602.144 26.8593 603.163 26.5202 604.351 26.6898C607.578 27.0289 611.145 28.7245 614.202 29.9114C616.92 30.7592 622.354 31.9461 622.524 34.4895C622.694 37.3721 617.599 38.3894 615.561 38.3894C611.994 38.3894 607.239 36.3547 603.672 37.5416C603.672 42.6285 609.277 46.5283 614.202 45.8501C614.712 43.4763 611.315 44.8327 611.655 42.4589C613.862 40.7633 616.58 43.6458 619.807 43.1371C620.996 42.798 620.826 40.9328 621.166 39.7459C623.883 38.0503 627.28 35.6765 631.356 37.5416C631.526 37.2025 631.865 36.8634 632.205 36.6938C632.545 34.1504 629.488 32.9635 631.016 30.5896C631.865 29.0636 635.942 29.5723 636.621 30.7592C636.961 32.2853 635.602 32.1157 635.772 33.4722C636.621 35.3374 638.489 35.5069 639.338 35.5069C641.546 35.3373 642.056 33.4722 644.094 32.2853C644.943 31.7766 646.132 31.7766 647.321 31.4374C648.679 30.9288 649.698 29.9114 650.718 29.5723C651.397 29.4027 652.586 29.5723 653.605 29.4027C654.964 29.0636 656.322 28.0462 657.511 28.0462C658.87 28.0462 659.889 29.5723 661.587 29.9114C662.606 30.081 663.625 29.4027 664.984 29.2332C666.173 29.0636 667.192 29.4027 668.211 29.2332C670.419 28.8941 671.778 27.7071 673.646 27.8767C674.835 27.8767 677.043 29.5723 677.892 28.7245C679.42 27.1984 676.024 26.1811 677.043 24.8246C680.439 25.1637 684.176 24.9941 687.573 25.5028C692.668 26.1811 697.593 28.7245 702.179 28.894C701.669 25.8419 698.103 26.6897 696.574 25.3333C696.065 24.9941 694.026 21.6029 694.026 20.5856C694.026 20.0769 696.574 15.6683 697.253 15.1596C699.291 13.2944 705.745 13.2945 707.614 15.8379C708.972 17.5335 708.463 20.2465 710.331 20.0769C711.86 20.0769 712.709 16.177 714.577 16.0074C716.106 16.0074 716.955 18.5508 718.483 18.5508C720.352 18.5508 721.71 14.9901 724.088 14.9901C725.447 14.9901 725.786 15.6683 727.994 15.8379C729.353 14.9901 727.485 13.8031 728.164 12.4467C730.712 10.5815 736.486 11.938 739.713 10.9206C740.562 9.90323 738.524 9.05543 739.543 8.03807C742.261 6.1729 747.016 6.00335 751.772 5.15554C754.659 4.64686 757.376 2.61212 759.584 2.44256C761.962 2.273 764.17 3.79905 766.378 3.79905C767.737 3.79905 769.265 3.45993 770.454 2.95125C771.643 2.44257 772.662 1.25565 773.851 0.916526C775.889 0.407844 778.267 1.08609 780.644 0.916526C783.022 0.746965 785.23 -0.270399 786.928 0.0687227C788.627 0.407844 789.816 2.10346 791.514 2.27302C796.27 2.95126 801.195 1.59478 805.441 2.7817C806.29 2.95126 806.969 3.79905 807.988 4.13817C810.876 5.15553 812.914 4.81641 813.423 8.37719C815.631 9.22499 816.99 11.2597 819.707 11.938C821.576 12.4467 823.274 11.7684 825.312 11.7684C828.029 11.7684 831.426 11.938 833.634 12.2771C834.993 12.4466 836.012 13.464 837.201 13.6336C838.05 13.8031 839.239 13.464 840.428 13.6336C841.786 13.8031 843.145 14.3118 844.334 14.3118C846.712 14.3118 848.41 12.1075 850.448 11.7684C851.467 11.5988 852.826 12.1075 853.845 12.2771C857.581 12.6162 861.997 11.7684 865.054 12.4467C866.753 12.7858 869.47 14.6509 871.338 16.0074C872.697 17.0248 873.546 18.5508 874.735 19.3986C875.924 20.0769 878.981 21.4334 880.17 21.2638C881.529 21.0942 881.699 19.3986 883.057 18.7204C887.473 17.703 895.456 20.0769 899.022 18.5508C900.381 17.8726 900.211 16.5161 901.23 15.6683C908.024 15.3292 914.647 16.0074 921.101 16.177C923.309 16.177 925.687 15.6683 927.725 16.0074C929.933 16.3465 931.631 18.5508 933.839 19.3986C935.368 19.9073 937.915 19.5682 940.123 20.0769C941.652 20.416 942.841 21.2638 944.029 21.4334C946.407 21.7725 948.785 21.0943 950.993 20.9247C956.088 20.5856 962.882 20.2465 967.977 22.2812C970.694 23.2985 971.883 25.5028 974.77 25.842C979.016 26.3507 985.3 25.5028 989.716 25.842C990.735 26.0115 991.754 26.3506 992.434 26.3506C993.792 26.1811 994.811 24.9941 996.51 24.9941C998.718 24.9941 1002.28 28.3853 1005.51 27.8767C1006.87 26.8593 1004.32 25.6724 1005.68 24.655C1006.87 23.6377 1008.74 24.655 1010.61 24.655C1011.63 24.655 1012.98 24.1463 1014 24.1463C1016.55 24.3159 1018.76 26.5202 1021.82 27.368C1024.19 27.8767 1027.59 28.2158 1030.65 27.8767C1032.86 27.7071 1034.72 26.8593 1036.76 27.1984C1037.78 27.368 1038.63 28.0463 1039.65 28.3854C1040.67 28.5549 1041.52 28.3853 1042.37 28.5549C1043.05 28.7245 1043.89 29.4027 1044.57 29.7418C1048.82 30.9288 1054.25 31.607 1058.84 32.9635C1061.39 33.8113 1064.11 35.3373 1066.31 35.5069C1067.33 35.5069 1068.35 34.9982 1069.71 34.9982C1076.5 34.9982 1084.49 37.8808 1083.98 44.1545C1075.99 45.8501 1069.37 38.7286 1061.05 40.7633C1059.69 41.1024 1058.16 42.6284 1058.33 43.9849C1058.67 47.8848 1068.52 47.5457 1069.37 51.4456C1067.67 52.6325 1065.97 51.4456 1064.62 51.6152C1062.58 51.7847 1059.18 53.989 1057.82 55.1759C1056.29 56.5324 1054.93 60.2628 1053.24 60.6019C1051.2 60.941 1048.14 58.5672 1045.08 59.2454C1043.89 59.415 1042.88 60.941 1041.86 61.1106C1039.31 61.6193 1036.25 59.7541 1034.72 62.6366C1035.57 64.6713 1035.06 67.5539 1036.76 68.7408C1037.78 69.419 1039.31 68.9104 1040.67 69.419C1042.2 69.9277 1043.05 71.9625 1044.57 72.9798C1045.76 73.8276 1046.95 73.8276 1047.46 75.0146C1047.63 76.7102 1046.78 76.8797 1046.95 77.8971C1047.29 79.7622 1050.18 80.2709 1050.35 81.4579C1050.52 83.1535 1048.48 82.8144 1048.14 84.3404C1047.97 85.3578 1049.33 85.6968 1049.5 87.0533C1049.67 87.9011 1048.82 88.9185 1048.82 89.9359C1048.99 91.4619 1050.18 92.4793 1050.01 93.8358C1049.84 95.0227 1048.82 95.8705 1047.97 96.3792C1043.73 93.6662 1039.82 89.7663 1035.06 86.2055C1030.31 82.6448 1022.83 78.0666 1021.99 70.4364C1021.99 69.2495 1024.53 68.4017 1024.87 66.5365C1025.04 65.8583 1024.53 64.8409 1024.7 63.8236C1024.87 61.1106 1027.08 58.5672 1026.91 57.0411C1026.74 55.3455 1023.51 52.1238 1021.99 51.6152C1020.63 52.2934 1021.99 53.6499 1021.82 54.8368C1021.48 56.1933 1019.95 57.8889 1018.42 58.0585C1014.17 58.3976 1013.66 52.6325 1006.87 54.1586C1005.17 54.6673 1002.62 57.2107 1003.3 60.4323C1003.47 61.4497 1006.19 62.4671 1006.02 63.8236C1005.85 65.18 999.906 65.5191 998.548 65.3496C994.981 65.0105 993.113 62.2975 989.716 62.467C988.188 62.467 986.659 63.8236 985.47 63.9931C978.337 65.3496 967.807 60.4323 965.429 66.7061C965.089 67.5539 965.259 68.7408 964.92 69.5886C964.41 70.9451 963.391 71.9624 963.052 72.8102C962.712 73.4885 962.882 74.845 962.372 76.0319C962.032 77.0493 957.617 80.7796 961.523 81.9665C962.372 82.1361 962.882 81.6274 964.07 81.797C965.939 82.1361 969.166 85.1882 971.543 85.1882C972.902 85.1882 974.77 83.6621 975.789 83.6621C977.827 83.4926 979.356 84.8491 981.054 85.6969C982.583 86.3751 984.961 88.0707 985.98 87.9011C988.188 87.7316 987.169 86.3751 989.207 85.6969C993.113 86.8838 994.981 90.9533 998.718 94.1749C1000.08 95.3618 1002.11 96.3792 1003.98 98.0748C1005 98.9226 1008.06 101.466 1008.23 102.653C1008.4 103.67 1007.38 104.179 1007.04 105.196C1006.7 106.553 1007.55 107.57 1006.53 108.588C1002.96 107.231 1002.11 103.67 999.567 100.788C998.548 99.6008 997.699 98.4139 996.17 96.7183C995.491 96.0401 993.113 93.4967 991.584 94.0053C988.697 95.0227 993.113 99.4313 993.792 100.279C995.321 102.314 997.359 104.857 997.359 107.062C997.359 108.418 996.51 110.792 996.51 113.166C996.51 114.692 996.849 116.048 996.68 117.405C996.51 118.761 995.491 120.287 995.151 121.644C994.641 123.339 994.472 125.205 993.962 126.391C993.113 128.426 990.056 130.8 988.018 130.97C986.149 130.97 985.3 129.613 983.432 129.613C980.715 129.783 980.205 132.326 978.507 134.361C978.677 136.565 979.356 137.413 979.016 138.939C978.337 141.313 975.11 141.821 975.11 144.195C975.28 146.4 978.167 146.739 979.696 147.756C981.734 149.113 985.3 151.995 987.169 154.539C988.357 156.065 990.226 159.117 990.056 160.812C989.886 163.017 983.432 166.069 980.885 165.39C978.337 164.543 979.186 162.169 978.677 159.964C978.167 158.269 976.808 157.591 976.129 156.065C975.789 155.386 975.959 154.199 975.45 153.352C974.091 150.978 971.713 152.334 968.826 150.808C966.958 149.791 967.467 147.926 966.788 146.06C965.769 143.687 961.693 142.5 958.466 143.178C956.088 143.687 955.239 145.721 953.031 146.06C949.804 144.026 953.71 139.278 949.634 138.939C946.577 138.6 944.539 143.347 942.671 144.874C941.482 145.891 939.274 146.06 939.104 147.417C938.764 149.96 941.652 149.452 944.029 150.299C946.068 151.147 946.407 153.521 948.275 153.691C949.804 153.86 950.993 151.995 952.521 151.826C955.239 151.656 957.617 152.843 959.315 153.86C958.126 156.573 952.182 158.608 952.182 162.169C952.182 164.203 954.56 164.543 956.428 166.069C957.956 167.256 959.994 170.477 962.202 172.851C963.221 173.868 964.75 174.547 965.089 175.055C966.109 176.581 965.939 178.277 967.128 179.294C967.297 180.481 966.618 180.82 966.618 182.007C967.128 183.703 969.675 183.364 970.185 184.89C969.675 188.79 971.374 192.351 968.147 193.877C966.618 200.829 965.089 206.255 960.334 210.154C956.088 213.546 950.314 214.563 945.218 216.259C943.86 216.767 942.841 218.124 941.652 218.463C938.595 219.48 933.33 218.802 933.16 222.532C932.99 224.398 935.368 225.415 935.707 227.28C936.047 230.163 933.5 232.876 931.631 233.215C930.273 233.384 927.555 232.367 927.385 229.993C927.215 227.28 930.782 226.263 930.952 224.567C931.461 221.685 928.404 218.972 925.177 219.141C922.12 219.311 915.496 225.245 915.327 228.637C915.157 231.01 920.082 236.097 921.781 237.623C928.065 243.219 934.858 246.61 933.669 260.175C932.141 263.566 928.065 264.414 924.838 266.279C922.46 267.805 921.271 272.214 917.195 272.553C915.497 272.044 916.516 269.501 916.006 268.314C915.327 266.618 912.1 265.94 910.232 264.244C908.533 262.888 907.854 260.684 906.665 259.497C905.136 257.971 902.759 257.631 900.721 256.614C899.532 255.936 898.513 253.562 897.324 253.732C895.286 253.732 895.965 255.766 895.455 258.818C894.946 261.87 892.738 264.414 893.417 267.975C893.757 269.501 895.625 270.688 896.644 272.214C898.173 274.757 898.343 277.809 900.041 279.166C901.06 280.183 902.928 280.353 904.117 281.2C906.495 282.896 910.741 286.626 911.59 288.661C912.609 291.035 911.59 293.748 912.27 296.291C912.949 299.174 916.855 301.208 914.477 304.091C912.27 303.752 910.401 302.226 908.533 301.208C905.476 299.343 903.947 297.648 902.079 294.426C901.57 293.578 900.551 292.561 900.211 291.713C899.362 289.678 899.532 287.474 898.852 284.931C898.173 282.896 895.795 279.505 893.927 277.809C892.398 276.283 889.511 275.435 889.341 273.231C889.171 270.179 890.36 266.618 890.191 263.057C890.191 262.21 889.681 261.531 889.511 260.514C889.341 258.818 889.681 256.614 889.341 255.088C889.002 253.731 887.983 252.375 887.303 251.019C886.624 249.662 886.114 248.475 885.435 246.78C884.586 244.236 883.567 239.149 881.359 238.98C879.151 238.641 876.943 243.219 873.886 243.219C872.357 243.219 870.319 242.032 869.98 240.506C869.64 239.149 870.659 237.793 870.659 236.267C870.659 233.215 868.451 232.028 866.753 229.993C866.073 229.145 865.904 227.958 865.394 227.28C864.375 226.093 862.337 225.415 861.148 224.058C859.959 222.871 858.6 221.176 857.921 219.989C857.072 218.293 856.732 215.919 855.374 215.75C854.185 215.58 852.656 217.276 851.297 217.785C849.939 218.293 846.542 218.802 845.183 218.972C840.598 219.311 837.031 218.124 837.54 223.55C836.861 225.924 834.313 225.924 832.615 227.11C830.407 228.637 828.879 231.519 826.501 233.893C825.312 235.08 823.783 235.758 822.595 236.775C821.745 237.623 821.406 239.149 820.557 239.997C818.179 242.201 814.612 242.54 812.914 245.593C812.744 249.323 814.612 252.205 814.272 255.766C814.103 257.462 812.914 258.818 812.744 260.514C812.574 261.87 813.253 263.566 812.914 265.092C812.744 265.94 811.725 266.279 811.046 267.296C810.366 268.144 810.196 269.331 809.687 270.009C809.007 271.027 807.649 271.705 806.969 272.553C805.781 273.909 805.611 274.927 804.422 275.096C799.496 275.774 798.308 266.449 796.1 262.549C795.081 260.683 793.043 259.157 792.024 256.953C790.835 254.41 790.495 251.188 788.797 248.475C787.438 246.101 785.4 243.558 784.551 241.014C783.701 238.81 783.022 236.267 782.343 233.893C781.494 231.349 780.644 228.297 780.475 226.263C780.305 223.38 780.984 221.515 778.606 220.328C776.398 220.837 775.549 223.041 773.002 223.041C770.624 223.041 764.17 218.802 766.038 215.241C764.51 213.037 760.434 211.85 757.546 209.137C755.848 207.611 754.319 204.05 751.262 203.711C750.413 203.542 749.394 204.05 748.545 204.22C746.677 204.389 743.28 204.05 741.072 204.22C738.354 204.389 734.958 205.068 731.561 204.728C729.353 204.559 726.636 204.05 724.428 203.881C721.54 203.542 717.634 202.863 716.106 201.337C715.086 200.489 714.747 197.437 712.879 197.098C710.841 196.59 709.652 198.285 707.783 198.624C703.707 199.642 700.141 197.776 697.423 195.911C695.385 194.555 693.687 193.877 692.158 193.029C688.761 190.655 688.082 183.872 682.987 183.872C681.119 183.872 678.231 185.059 678.062 187.094C677.892 188.451 679.76 191.164 680.609 192.351C683.157 195.911 687.742 197.268 689.101 202.016C689.95 202.355 691.988 201.168 693.007 202.185C693.857 204.22 693.007 208.12 695.046 208.967C704.387 210.494 707.104 205.407 711.35 201.846C713.728 203.372 713.048 204.898 713.898 206.594C714.747 208.459 716.106 209.815 717.804 210.494C718.993 211.002 720.352 210.494 722.05 211.172C723.069 211.511 727.485 215.75 727.655 217.276C727.824 218.632 724.767 223.041 723.748 224.228C722.899 225.415 721.54 225.924 721.031 226.941C720.691 227.789 720.861 229.315 720.521 229.823C720.182 230.671 718.144 231.858 716.955 233.045C715.766 234.232 714.237 235.08 713.048 235.928C711.69 236.945 710.671 238.471 709.142 239.149C706.085 240.336 703.368 239.827 700.82 241.354C699.122 242.371 699.122 244.745 697.253 246.101C695.215 247.458 691.649 247.458 688.761 248.814C686.893 249.662 685.704 251.358 684.006 252.036C683.327 252.205 682.477 252.036 681.798 252.205C680.269 252.545 678.911 253.731 677.552 254.071C676.363 254.41 675.344 254.24 674.155 254.579C670.758 255.597 667.532 259.157 663.965 257.123C662.267 253.392 662.097 248.645 660.059 245.253C659.04 243.558 657.171 243.049 656.492 241.184C656.322 239.658 658.19 240.167 658.36 238.98C657.851 236.606 655.473 235.419 654.114 233.384C653.435 232.367 653.095 231.01 652.246 229.823C649.529 225.924 644.264 223.889 643.245 218.972C642.905 217.615 643.245 216.598 643.075 215.58C642.565 213.885 641.546 212.189 640.357 210.833C639.508 209.815 637.81 209.137 636.791 207.611C636.111 206.594 635.942 205.237 635.432 204.22C633.224 199.981 629.997 196.42 626.431 193.368C624.562 193.707 622.694 193.707 621.675 194.894C622.524 197.776 624.053 200.32 625.581 202.694C626.94 204.898 628.978 207.441 629.827 209.815C630.167 210.833 630.167 212.02 630.507 213.037C631.865 216.598 636.451 217.785 637.3 221.854C637.98 224.567 637.13 226.602 637.98 229.315C638.829 232.028 642.735 233.554 644.264 236.097C645.622 238.132 645.622 241.184 646.472 243.049C647.83 245.932 651.567 247.119 654.284 249.153C656.832 250.849 658.53 253.562 660.568 255.427C661.757 256.444 663.455 256.784 663.795 257.971C664.135 259.497 663.116 260.005 662.946 261.362C664.644 263.227 666.343 266.449 669.23 266.788C670.419 266.957 671.947 265.77 673.816 265.431C674.665 265.262 675.684 265.601 676.533 265.431C677.722 265.262 678.741 264.075 680.1 263.905C682.477 263.396 685.025 263.566 687.912 263.227C690.63 262.888 692.498 260.514 694.706 261.192C697.084 263.736 695.385 266.618 694.706 268.992C694.536 269.84 694.536 270.688 694.196 271.535C693.007 275.605 689.78 278.487 688.252 282.048C687.742 283.235 687.912 284.422 687.403 285.609C685.704 289.17 682.308 292.73 679.59 295.783C678.062 297.478 676.703 299.004 675.004 300.361C673.306 301.717 671.438 302.395 669.57 303.752C666.003 306.465 662.267 310.195 659.719 313.586C658.7 314.943 658.19 316.469 657.171 317.656C655.643 319.351 653.435 320.03 652.246 321.725C651.227 322.912 650.717 325.286 649.529 327.49C648.34 330.034 645.622 331.729 646.132 335.29C646.302 336.647 647.491 337.494 648 338.851C648.679 341.225 648.17 343.26 647.83 345.803C649.189 348.855 650.038 352.246 652.416 354.281C652.756 358.859 652.076 363.268 652.416 367.168C652.586 369.541 653.605 371.407 652.586 373.611C651.737 375.646 648.51 379.037 646.472 380.393C644.264 381.75 641.037 382.089 638.829 383.785C637.3 384.971 635.942 387.006 634.243 388.363C631.526 390.567 627.959 392.602 627.789 394.806C627.619 396.162 628.808 398.028 629.148 399.384C629.997 402.775 630.846 407.523 629.318 411.084C627.619 414.984 619.467 414.136 618.448 418.205C618.108 419.392 618.958 420.41 618.958 421.766C618.958 422.953 617.429 427.023 616.75 428.209C615.731 430.075 613.523 430.922 611.994 432.448C610.126 434.483 609.277 437.366 607.239 439.4C604.521 442.283 600.955 445.335 597.558 447.709C594.501 449.913 589.236 452.117 584.48 452.457C581.763 452.626 578.876 451.778 575.988 452.287C574.969 452.457 573.78 453.474 572.422 453.644C571.573 453.813 570.723 453.474 569.874 453.644C568.515 453.813 567.157 455 565.798 455C562.911 455 559.174 451.439 559.004 448.048C559.004 446.692 560.193 445.505 560.193 444.148C560.193 442.792 558.325 440.926 556.966 438.214C555.608 435.67 555.098 432.788 553.739 430.753C552.381 428.549 550.512 427.531 549.493 425.836C547.455 422.444 547.286 418.205 546.606 414.136C546.436 412.779 545.417 411.253 545.247 409.558C545.078 407.523 545.417 405.149 545.078 403.454C544.738 402.097 543.209 400.741 542.36 399.215C540.832 396.332 539.643 392.432 538.284 390.228C537.095 388.024 534.378 385.819 534.208 383.445C534.038 381.75 534.378 378.698 534.718 377.172C534.887 375.646 536.076 374.289 536.586 372.594C536.925 371.407 536.586 370.22 536.756 369.033C537.944 363.946 543.549 362.081 542.87 355.807C542.53 353.094 540.662 351.907 540.322 348.855C540.152 347.499 541.002 346.142 541.002 344.786C541.002 342.92 539.303 340.038 538.454 338.342C536.246 333.425 534.717 328.847 531.491 325.117C529.622 323.082 527.414 321.556 525.886 319.691C524.697 318.165 523.168 315.282 523.168 314.095C523.168 312.739 524.187 312.06 524.527 310.704C525.037 309.008 525.037 305.956 525.716 303.243C526.056 302.056 527.245 299.174 527.075 297.139C526.905 295.274 524.018 291.713 521.64 291.035C518.413 290.187 515.186 292.052 511.28 291.713C506.694 288.491 507.034 282.896 502.108 282.218ZM626.6 362.759C627.619 361.063 628.978 356.485 626.6 355.298C626.431 355.298 626.261 355.298 626.091 355.298C625.242 357.164 624.223 361.742 626.6 362.759ZM623.543 315.621C624.223 314.095 626.091 312.4 625.751 310.534C625.072 306.126 616.92 308.33 616.07 311.382C615.391 313.417 616.41 315.112 615.561 317.317C616.41 319.012 618.618 319.352 621.505 319.182C623.034 318.334 622.864 317.147 623.543 315.621ZM609.786 338.851C610.635 337.155 608.428 336.138 607.918 334.273C607.409 332.238 608.428 329.695 606.559 328.677C606.39 328.677 606.05 328.677 605.88 328.677C604.351 332.408 606.559 338.512 609.786 338.851ZM763.491 115.54C762.641 113.844 760.264 116.048 761.283 117.574C762.811 117.574 763.321 116.726 763.491 115.54ZM711.01 124.696C714.747 124.018 711.01 118.083 708.293 118.761C704.726 119.779 708.463 125.205 711.01 124.696ZM694.366 153.691C695.555 145.891 689.441 145.382 688.252 139.787C688.761 139.787 688.422 139.108 688.931 139.108C690.46 138.43 692.668 140.295 693.347 138.43C693.347 135.717 689.95 133.852 686.554 135.039C685.535 134.361 685.365 132.835 685.195 131.478C682.647 129.952 676.363 126.561 676.363 123.678C676.363 121.135 679.59 119.779 683.327 119.779C684.855 118.592 683.836 115.031 682.477 114.183C676.703 112.827 673.476 113.844 669.909 116.387C668.211 117.744 666.173 118.592 665.154 119.27C664.305 119.948 662.946 121.983 663.116 122.831C663.286 124.187 665.324 125.035 666.003 126.9C666.343 127.917 666.343 129.104 666.682 129.783C667.701 131.987 670.249 133.343 672.117 135.209C673.476 136.565 677.212 139.278 677.382 140.804C677.382 142.161 676.193 142.33 675.854 143.687C675.344 145.043 675.004 148.095 675.174 149.282C675.684 151.826 678.231 151.826 680.609 152.843C682.987 153.86 685.195 155.725 687.573 155.725C690.12 156.065 692.838 155.217 694.366 153.691ZM641.376 137.582C647.491 136.565 644.773 131.309 641.546 129.443C639.168 128.087 636.451 126.9 633.734 125.204C632.205 124.187 626.091 122.492 626.091 120.457C626.091 118.422 630.507 117.574 628.808 114.014C625.751 113.335 618.448 114.522 618.958 117.913C619.297 119.948 621.505 118.761 622.185 120.796C619.977 121.644 617.259 123.678 615.051 123.339C612.334 122.831 611.655 119.439 610.126 117.405C607.918 117.405 606.559 115.37 604.012 115.54C601.294 115.879 599.936 119.609 598.577 121.644C597.898 122.661 596.709 123.17 596.369 124.187C596.199 124.696 596.369 125.713 596.199 126.391C595.35 128.935 593.312 129.783 593.482 131.987C593.652 133.852 595.859 134.869 596.029 136.565C595.859 138.261 593.142 137.413 593.312 139.448C597.388 142.839 597.558 137.922 599.596 137.243C601.294 136.735 604.521 137.752 606.559 137.243C608.258 136.904 609.616 135.209 611.485 134.53C612.674 134.022 614.202 133.683 615.731 133.683C622.864 133.343 627.45 138.091 633.734 138.261C635.432 138.091 639.168 137.922 641.376 137.582ZM626.94 164.034C627.11 161.66 626.091 159.795 625.751 156.404C621.675 153.86 618.448 158.777 614.202 158.269C611.655 157.93 609.786 154.878 607.069 155.386C605.54 155.556 604.861 157.591 603.163 157.93C599.936 158.438 598.407 155.386 595.01 156.573C590.255 152.843 588.047 146.908 586.858 140.126C584.31 136.735 580.234 139.448 578.366 141.652C577.177 141.652 575.649 140.974 575.479 142.33C574.63 146.569 581.423 146.908 581.253 149.791C581.253 151.656 578.536 151.486 577.347 152.673C576.158 154.03 577.007 155.217 575.309 156.065C570.893 156.573 569.365 154.199 569.365 150.299C567.496 147.417 564.949 145.213 563.25 142.839C562.571 141.991 561.722 140.635 561.382 139.278C561.212 138.261 561.892 136.904 561.552 135.717C561.043 133.513 557.136 131.987 554.589 130.8C551.871 129.613 548.644 128.257 546.776 126.731C545.417 125.544 544.738 123.678 543.549 122.831C542.53 122.152 541.341 122.322 540.322 121.644C539.133 120.796 539.303 119.27 537.605 118.931C536.756 118.592 535.397 119.779 534.887 120.457C533.868 125.374 537.775 125.713 539.643 127.917C540.832 129.444 541.511 131.648 542.87 132.665C544.228 133.683 546.097 133.513 547.795 134.191C548.984 134.7 549.833 136.226 551.022 136.904C553.23 138.261 556.627 138.43 556.966 140.974C555.608 141.821 552.551 139.617 551.532 141.821C551.192 143.348 552.72 144.026 552.72 145.382C552.72 147.587 550.173 149.96 547.965 149.621C547.795 148.265 549.154 147.247 549.154 145.721C548.984 142.839 543.209 138.43 540.322 137.243C538.963 136.565 537.265 136.565 536.076 135.887C533.868 134.7 529.962 131.648 528.603 129.783C527.075 127.578 525.546 123.678 522.149 123.848C520.621 124.018 519.432 125.205 518.243 125.883C517.224 126.391 516.035 126.9 514.846 127.748C513.488 128.596 512.469 129.444 511.28 129.613C508.392 129.783 506.015 127.578 503.637 128.087C502.788 128.257 502.108 128.935 501.089 129.952C501.089 131.309 501.429 132.157 501.259 133.513C500.58 134.7 498.372 134.7 496.674 135.548C494.296 136.735 492.258 139.278 490.39 141.143C489.201 142.33 488.012 143.348 487.842 144.365C487.672 145.043 488.521 146.569 488.351 147.587C488.182 148.604 486.144 150.978 484.785 151.826C483.936 152.334 482.917 152.504 482.067 153.012C480.369 154.03 479.52 155.386 477.991 155.725C474.085 156.404 466.952 154.878 466.952 159.117C466.952 161.83 470.688 161.83 473.066 161.83C476.293 161.66 479.01 162.508 480.709 161.999C481.898 161.66 483.256 160.304 484.615 159.795C485.464 159.456 486.313 159.456 486.823 159.117C488.182 158.438 488.861 157.421 490.05 156.912C492.088 155.895 495.994 155.217 498.202 155.047C501.259 154.878 504.486 155.386 508.392 155.047C509.751 154.878 511.11 154.03 512.638 153.86C515.016 153.691 518.243 154.878 520.281 154.708C521.64 154.708 523.168 153.352 524.867 153.352C526.735 153.352 528.603 154.708 528.943 155.895C529.113 156.573 528.603 157.591 528.773 158.608C529.113 160.304 530.472 160.982 530.302 161.999C530.132 163.356 526.735 165.221 527.075 166.916C527.414 167.934 529.962 169.121 531.151 169.799C532.51 170.647 534.548 171.664 536.076 171.834C537.435 172.003 538.454 171.495 539.643 171.664C541.511 171.834 544.738 173.021 545.927 173.868C547.965 175.394 547.795 177.768 550.173 178.616C551.192 178.955 553.06 178.786 554.419 179.125C557.646 179.803 560.193 182.516 562.571 182.346C566.308 181.838 564.609 178.277 565.119 175.903C566.138 170.138 577.347 170.477 579.555 174.377C581.253 174.886 582.612 174.377 584.48 175.055C585.499 175.394 586.349 176.581 587.368 176.92C588.217 177.09 589.236 176.751 590.255 176.92C594.501 177.429 598.407 180.651 602.144 180.142C604.521 179.803 606.22 177.599 608.428 177.429C612.674 177.09 615.561 180.651 620.146 178.955C623.543 177.768 622.864 174.208 624.053 170.647C625.242 167.595 626.77 165.899 626.94 164.034ZM869.81 87.3925C870.659 84.5099 869.3 81.6274 867.602 79.7622C865.054 80.2709 866.923 82.9839 866.753 84.5099C866.413 86.7142 864.205 88.2403 864.205 90.6141C863.356 91.6315 861.827 91.9706 861.658 93.8358C863.016 94.8531 863.696 92.988 864.884 91.9706C866.583 90.275 869.3 89.2576 869.81 87.3925ZM810.706 9.22499C808.158 9.22499 807.309 10.2424 805.781 11.0902C804.931 11.5988 803.233 11.7684 803.742 13.1249C805.95 12.7858 810.196 11.938 810.706 9.22499ZM715.766 37.0329C721.031 38.2199 723.578 32.2853 720.012 28.894C719.163 28.0462 716.445 27.8767 715.256 26.0115C713.898 23.8072 714.067 20.9247 710.671 21.4334C710.671 21.7725 710.671 22.1116 710.501 22.1116C710.161 27.0289 717.294 28.2158 717.294 32.2853C717.294 34.32 715.086 34.4895 715.766 37.0329Z" fill="#F3F3F3"/>
<path d="M642.061 28.0776C641.456 25.0654 645.544 25.4957 644.939 28.2927C644.181 29.3685 642.516 29.1534 642.061 28.0776Z" fill="#F3F3F3"/>
<path d="M614 162.887C614.2 160.952 619.2 160.249 620 162.008C619.8 163.766 615 164.998 614 162.887Z" fill="#F3F3F3"/>
<path d="M536 150.192C538.406 148.076 543.734 149.422 547 149.422C546.313 151.346 546.312 153.846 544.937 155C541.156 154.231 537.547 153.269 536 150.192Z" fill="#F3F3F3"/>
<path d="M519.181 138.566C522.441 135.404 525.882 137.068 524.795 143.226C524.071 145.056 520.63 147.553 519 144.723C519.362 142.56 519.181 140.896 519.181 138.566Z" fill="#F3F3F3"/>
<path d="M523.923 130.765C524.265 133.094 523.411 134.153 522.386 135C519.482 134.365 521.703 127.8 523.923 130.765Z" fill="#F3F3F3"/>
<path d="M481.052 85.6972C481.383 84.3731 480.388 82.8833 479.061 82.2213C478.398 81.8902 477.237 82.0557 476.408 81.5592C474.252 80.4005 473.422 77.9177 472.261 77.4211C472.427 74.9383 471.598 73.283 472.261 71.6278C472.593 70.6347 475.578 67.9863 477.071 67.4897C479.061 66.8277 481.052 67.4897 482.213 66C482.71 66 483.042 66 483.374 66.1655C483.374 67.4897 482.213 67.8208 482.047 68.9794C482.379 70.9657 485.862 69.8071 486.193 71.6278C485.862 73.6141 484.037 74.1106 484.037 75.6003C484.037 76.9245 486.691 79.4073 488.018 81.0626C489.013 82.3868 490.672 83.2144 491.501 84.5386C492.33 85.6972 492.496 87.0214 492.994 87.6835C494.155 88.8421 496.808 89.0077 496.974 90.4974C497.306 92.6492 494.32 93.4768 494.818 95.7941C491.833 98.1114 486.691 96.9527 481.881 97.6148C479.725 97.9459 477.237 100.098 474.915 98.2769C474.417 96.7872 476.905 96.6217 477.071 95.132C476.905 93.8078 475.247 93.9734 474.915 92.9802C475.578 91.325 477.569 90.9939 477.403 88.3456C478.398 87.0214 480.72 87.518 481.052 85.6972Z" fill="#F3F3F3"/>
<path d="M464.151 80.8655C466.973 79.0171 471.832 80.3614 471.989 82.7139C472.146 84.3943 470.578 84.5623 469.951 86.5788C469.481 88.2592 470.108 90.2756 469.324 91.4519C468.697 92.4601 466.973 92.4602 465.719 92.7962C463.054 93.6364 458.038 96.9972 456 93.3003C456.314 91.2839 458.038 90.9478 458.665 89.2674C458.665 87.9231 457.411 87.251 457.568 85.9067C457.881 84.2263 458.978 84.7304 460.703 84.0582C461.957 83.5541 462.427 81.8737 464.151 80.8655Z" fill="#F3F3F3"/>
<path d="M309.974 32.0237C310.433 33.9763 304.625 36.4171 304.014 33.9763C303.708 32.0237 308.599 29.5829 309.974 32.0237Z" fill="#F3F3F3"/>
<path d="M303 539C301.95 539 301.05 539 300 539C300.45 537.667 302.4 537.667 303 539Z" fill="#F3F3F3"/>
<path d="M293 16.2131C293.25 15.929 293.75 15.929 294 16.2131C293.875 16.6394 293.75 17.2077 293 16.9235C293 16.6394 293 16.4973 293 16.2131Z" fill="#F3F3F3"/>
<path d="M273 51.2128C273 52.3024 268.517 54.1702 268 51.9911C268 51.6797 268 50.9015 268.862 50.2789C270.069 49.6563 273 50.1232 273 51.2128Z" fill="#F3F3F3"/>
<path d="M179 260.971C178.786 261.382 178.571 261.588 178.357 262C175.357 262 178.143 258.295 179 260.971Z" fill="#F3F3F3"/>
<path d="M87.0387 103.205C88.9502 102.287 90.8617 104.674 89.5874 105.959C87.4635 106.326 86.8263 104.123 87.0387 103.205Z" fill="#F3F3F3"/>
<path d="M332.583 111.424C331.566 111.085 330.039 111.255 328.682 110.915C327.495 110.746 326.138 110.407 325.121 110.237C322.407 109.898 319.355 110.746 317.659 109.05C320.372 105.488 323.934 101.926 327.326 98.8733C328.343 98.0253 330.548 97.3469 330.039 95.4812C328.174 93.7852 325.799 95.6508 323.934 96.6685C322.068 97.6861 319.694 99.2125 317.659 99.5518C313.927 100.061 309.009 98.5341 305.956 100.4C305.617 102.096 309.348 101.417 308.84 103.962C307.313 104.131 305.956 104.301 304.769 103.283C303.752 102.265 304.26 100.909 303.582 100.4C302.395 99.3821 298.155 99.2125 296.12 99.5518C293.745 99.891 291.71 101.417 291.371 103.453C294.254 104.81 298.833 102.096 299.851 105.488C298.325 108.371 294.593 109.898 295.102 113.629C295.272 115.155 296.968 117.021 298.325 117.191C299.512 117.36 300.19 116.173 301.547 116.343C302.904 116.512 302.565 117.869 304.091 117.7C306.296 116.852 307.483 113.799 309.857 113.799C312.91 117.36 307.144 119.226 304.091 120.244C300.529 121.601 295.781 122.279 293.067 123.466C291.71 124.145 286.114 129.402 285.435 125.332C284.926 122.449 288.149 123.297 288.827 120.752C285.266 120.074 282.043 122.279 278.991 123.466C274.411 125.162 266.78 126.18 265.762 131.268C265.592 132.286 266.271 134.151 265.592 134.83C265.084 135.339 261.861 135.508 260.335 136.017C258.13 136.695 256.265 138.391 254.908 138.731C253.89 139.07 252.364 138.9 251.686 139.24C249.82 139.918 249.311 142.292 247.106 143.988C246.258 144.667 244.393 145.176 243.714 145.854C242.527 147.041 242.358 149.925 240.323 150.433C238.966 150.603 237.948 149.416 236.761 150.264C236.591 153.147 237.779 157.048 236.591 159.931C233.878 162.136 230.995 163.663 227.603 165.528C225.737 166.546 224.041 166.885 221.667 168.072C219.971 168.92 218.614 170.786 216.749 171.973C212.509 174.517 207.251 177.57 207.251 183.846C207.251 185.203 207.93 186.729 208.099 188.425C208.269 189.443 207.93 190.291 208.099 191.308C208.438 193.683 210.134 196.736 208.099 198.262C205.046 197.075 201.146 196.566 199.111 194.361C198.602 192.156 200.298 190.291 199.959 188.256C199.789 186.559 197.415 183.676 196.058 183.507C194.701 183.337 193.344 184.694 191.988 184.694C190.292 184.524 188.765 182.319 186.56 181.98C183.338 181.641 181.133 182.659 177.572 182.15C174.18 184.015 173.162 187.238 169.092 186.899C167.566 186.729 166.209 185.711 164.513 185.372C162.647 185.033 159.934 184.355 158.068 184.524C154.168 184.863 151.454 187.577 148.232 189.273C145.349 190.8 141.278 192.665 140.43 195.718C139.921 197.414 140.43 199.789 139.752 201.315C139.413 202.333 138.565 203.181 137.886 204.198C135.342 208.778 133.307 214.884 135.173 221.498C135.512 222.516 137.886 227.943 139.073 229.13C140.261 230.318 143.653 232.183 145.518 232.353C147.214 232.353 149.08 231.505 150.776 231.166C152.641 230.827 155.016 230.827 156.711 230.318C161.63 228.791 160.612 222.177 165.531 219.972C167.735 218.954 170.11 218.785 173.841 218.615C175.028 219.633 175.537 221.329 175.367 222.855C175.198 224.042 174.18 225.06 173.502 226.756C172.993 228.113 172.823 229.809 172.314 230.996C171.636 232.523 170.11 233.54 169.601 235.067C169.262 235.915 169.431 237.102 169.092 237.95C168.583 239.476 166.548 240.494 167.566 242.02C172.314 243.886 178.25 241.512 182.49 242.19C184.186 242.529 187.917 244.565 187.917 247.448C187.917 249.483 186.391 250.84 186.052 253.045C185.712 255.928 184.525 259.32 184.525 261.525C184.356 265.256 189.952 271.701 194.023 271.701C198.263 271.701 200.807 267.461 205.894 269.666C207.59 270.345 209.456 273.228 211.322 273.058C212.848 272.889 215.222 270.175 216.24 268.309C217.427 265.935 217.597 264.069 219.801 262.882C222.176 261.695 224.211 262.204 227.264 261.016C228.62 260.508 229.808 259.66 231.164 258.811C232.182 258.133 233.369 256.098 234.726 257.455C236.591 259.32 232.521 260.338 234.048 262.204C237.1 263.9 238.796 259.151 241.001 258.981C241.679 258.981 244.223 260.338 245.58 261.186C247.276 262.373 247.954 263.9 249.82 264.408C251.007 264.578 253.042 263.9 254.738 264.239C257.113 264.578 258.469 266.613 260.165 266.444C262.37 266.444 263.218 264.069 265.084 263.73C268.984 263.052 270.511 264.239 272.207 266.613C274.242 266.953 274.242 264.408 276.107 265.256C275.09 267.292 276.447 268.14 277.295 269.836C277.803 270.853 277.803 271.701 278.143 272.041C279.16 273.058 281.365 273.058 282.891 274.076C284.587 275.094 285.435 277.129 287.47 279.334C289.506 281.539 292.728 283.913 295.272 284.083C297.816 284.252 299.681 283.404 301.886 283.574C306.465 284.083 309.348 286.457 312.74 289.001C314.606 290.358 316.132 291.376 316.811 293.072C317.15 294.259 316.98 295.785 317.489 297.142C318.507 300.026 322.577 301.213 321.051 306.131C321.729 307.488 323.255 307.997 324.951 309.015C326.308 309.863 327.326 311.559 328.852 311.728C329.7 311.898 330.718 311.389 331.566 311.559C334.109 311.728 335.805 312.746 338.01 313.594C339.367 314.103 341.063 314.272 342.08 314.951C343.268 315.799 343.437 318.343 344.794 319.021C345.642 319.53 347.677 318.852 349.373 319.021C351.748 319.361 355.139 320.717 357.175 320.887C358.531 320.887 359.549 320.378 360.736 320.378C366.163 320.887 369.386 327.332 374.643 329.367C376.339 330.046 378.883 329.537 380.07 330.046C382.105 330.894 383.801 337 383.971 339.713C384.48 347.854 378.205 350.568 374.473 355.995C373.795 357.183 373.286 358.879 372.269 360.575C370.064 363.797 367.69 364.476 368.029 370.242C368.029 371.769 368.877 373.465 368.877 375.161C368.877 377.366 368.707 380.249 368.198 382.115C367.859 383.641 366.672 384.828 366.333 386.185C366.163 387.542 366.672 388.56 366.502 389.747C366.333 391.104 364.976 392.8 363.958 394.666C361.923 398.566 361.414 402.976 357.175 404.503C354.631 405.351 351.408 404.842 348.695 405.86C347.677 406.199 346.151 407.216 344.794 407.895C340.893 409.76 335.297 412.135 334.279 416.205C333.261 419.767 335.636 422.651 334.957 426.721C334.279 427.908 333.261 429.095 332.244 430.622C331.226 431.979 330.718 433.336 329.7 434.692C328.343 436.389 326.308 437.067 325.46 439.441C325.121 440.289 325.29 441.137 324.951 442.325C324.782 442.834 323.934 443.512 323.594 444.36C323.255 445.208 323.255 446.226 322.916 446.904C321.899 448.939 318.846 453.688 316.641 454.367C311.892 455.724 306.974 452.331 303.752 453.01C304.26 455.215 305.787 455.045 306.974 456.572C307.652 457.42 307.992 458.776 308.84 459.794C309.857 460.981 310.705 461.321 310.875 462.677C311.214 465.391 309.009 468.274 307.483 469.122C306.126 469.97 303.412 470.479 301.038 470.988C299.342 471.327 295.102 471.327 294.254 472.345C293.067 473.871 294.933 477.772 294.085 479.299C292.389 482.521 287.81 479.129 285.605 480.147C285.435 481.843 286.114 483.709 287.47 484.387C288.827 485.235 291.032 484.217 292.049 485.744C291.541 487.949 289.166 488.288 288.658 490.493C288.658 492.698 289.336 493.206 289.166 494.563C288.658 497.447 284.078 497.277 284.248 500.499C284.418 505.079 293.067 503.213 293.237 507.623C293.406 510.337 290.693 510.337 289.845 513.05C289.336 514.407 290.184 514.746 289.845 515.934C289.506 517.46 287.64 517.969 287.64 519.834C287.64 522.039 290.862 524.414 292.389 526.11C293.915 527.806 295.95 530.35 297.985 531.537C301.208 533.233 305.787 532.894 307.144 536.117C306.635 537.982 304.939 538.491 303.073 539C302.904 539 302.734 539 302.565 539C301.886 538.661 299.851 538.661 299.173 539C298.155 539 297.137 539 295.95 539C292.897 537.643 289.336 536.795 285.605 535.438C284.248 534.929 282.722 533.912 281.365 533.233C280.347 532.725 278.991 532.555 278.143 532.046C276.277 531.028 274.072 527.806 272.037 526.449C270.85 525.601 268.984 525.262 268.136 524.414C267.458 523.566 266.949 522.039 266.271 521.022C265.592 520.004 264.236 519.156 263.388 518.138C261.522 515.594 259.148 512.372 259.148 510.506C259.148 508.641 260.844 507.453 260.335 505.757C259.826 504.231 256.265 504.57 255.756 502.535C255.417 501.348 256.773 499.482 256.604 497.786C256.604 496.768 254.738 495.581 255.417 494.224C256.265 492.698 257.791 494.394 258.978 493.546C257.961 490.323 258.978 485.065 255.756 484.048C254.06 485.405 257.452 488.627 254.569 489.475C251.855 488.288 252.534 484.726 251.855 482.012C251.516 480.316 250.668 478.79 250.498 476.755C250.498 475.737 250.838 474.55 250.668 473.532C250.159 470.479 246.767 467.935 246.598 465.052C246.428 463.525 247.446 462.338 247.785 460.812C247.954 459.794 247.615 458.607 247.785 457.42C247.954 456.063 248.802 454.706 248.972 453.349C249.311 450.805 248.972 446.565 248.463 444.53C247.954 441.986 245.919 439.781 245.58 436.897C245.41 435.88 245.919 434.184 245.75 432.827C245.58 431.64 244.902 430.452 244.902 428.926C244.732 427.569 245.241 426.382 245.41 424.855C245.58 421.972 244.902 418.919 244.902 416.036C244.902 415.188 245.41 414.679 245.41 413.831C245.41 411.457 244.562 409.082 244.562 406.877C244.393 402.637 245.071 399.584 244.393 395.683C243.884 392.63 243.206 388.051 242.188 386.185C241.001 384.15 236.252 380.588 233.878 379.231C232.352 378.383 230.486 378.044 228.62 377.196C224.889 375.331 217.936 371.599 216.24 368.037C215.731 367.02 215.901 365.663 215.392 364.476C214.374 362.101 212.339 360.236 210.813 358.031C208.099 353.791 205.725 348.533 203.011 344.123C201.485 341.918 200.298 339.374 198.771 337.678C197.923 336.66 194.871 335.643 194.531 334.116C194.023 332.081 192.496 329.198 192.666 327.671C193.005 325.466 197.245 323.77 197.245 321.905C197.245 320.209 195.04 319.191 194.531 317.834C193.344 314.442 195.21 312.407 196.567 309.524C197.075 308.506 197.415 307.149 197.923 306.301C198.771 305.114 200.467 304.775 201.485 303.418C202.163 302.739 202.503 301.043 203.351 300.026C205.047 297.821 207.76 296.973 208.608 294.768C209.117 293.072 209.456 284.761 208.778 281.878C208.438 280.182 206.912 278.995 206.234 277.298C205.216 274.585 205.046 271.532 202.163 271.701C200.467 271.701 199.28 273.567 198.093 274.924C197.754 276.45 197.923 278.316 196.227 278.825C193.684 279.503 192.666 276.111 189.783 275.263C188.596 274.924 186.73 274.924 185.882 274.585C183.677 273.567 182.999 270.345 180.625 269.157C178.759 268.14 177.063 268.479 175.876 266.953C175.367 265.935 175.706 263.9 175.706 262.373C173.162 260.847 171.127 255.589 168.244 254.232C166.378 253.384 163.495 253.384 161.121 252.706C159.934 252.366 159.086 251.858 157.899 251.518C156.372 251.179 155.016 251.179 153.828 250.67C149.419 248.465 147.044 241.342 141.448 241.512C139.073 241.512 136.869 243.717 134.664 243.717C132.629 243.717 129.067 242.021 126.354 240.833C123.64 239.476 120.587 238.798 118.213 237.611C116.348 236.593 115.16 234.897 113.464 234.219C112.277 233.71 110.412 233.54 109.394 233.031C108.037 232.353 106.511 230.827 104.645 229.639C102.949 228.452 101.084 226.586 101.084 225.06C101.084 223.364 102.78 221.837 102.949 220.141C103.458 214.714 99.5574 210.983 97.0135 207.76C95.1479 205.386 92.9432 203.35 91.2472 201.315C91.4168 199.789 91.4168 199.619 91.2472 198.093C89.8904 196.736 88.7033 194.701 87.1769 192.665C85.8201 190.8 83.2762 188.934 82.937 186.899C82.5978 184.355 83.9546 182.15 82.937 179.775C81.4106 175.705 75.6443 177.57 76.3227 182.998C76.4923 184.524 78.6971 186.559 79.2059 187.916C79.8842 189.443 79.7146 191.308 80.393 193.174C80.9018 194.87 82.7674 196.397 83.2762 198.432C84.2938 201.485 84.1242 204.877 85.1417 206.743C85.9897 208.439 88.7033 210.135 87.1769 212.17C84.9721 212.679 84.2938 210.474 82.937 209.287C82.2586 208.608 79.5451 207.251 79.0363 205.725C78.6971 204.368 79.8842 202.672 79.5451 200.976C78.6971 197.753 72.422 197.753 72.422 194.531C72.422 192.496 75.1355 192.156 75.1355 190.291C75.1355 188.086 72.2524 186.22 71.574 184.524C71.0652 182.828 70.8956 180.114 70.726 177.74C70.5564 175.535 70.726 172.991 70.2172 171.295C69.7085 169.769 67.5037 167.564 65.9773 166.716C63.9422 165.698 62.4158 166.037 61.3982 164.511C60.5502 163.154 60.0415 160.101 59.8719 158.744C59.5327 156.03 59.8719 153.147 59.7023 150.264C59.5327 147.381 59.1935 144.667 59.7023 141.444C60.8894 139.239 62.9246 138.222 63.9422 136.017C64.7902 134.491 64.7902 132.625 65.8077 131.098C67.5037 128.215 71.0652 125.501 73.4396 122.618C75.9835 119.565 78.3579 116.512 79.8843 112.951C80.393 111.763 81.9194 108.88 81.7498 107.354C81.4106 105.149 77.3403 103.453 77.6795 100.909C77.8491 99.3822 80.2234 99.3822 80.9018 97.6861C81.241 96.8381 81.5802 94.6332 81.5802 93.6156C81.5802 91.4107 80.393 89.2058 80.9018 86.8313C81.241 84.7961 84.2938 84.1176 82.7674 81.9128C81.241 79.7079 78.5275 83.1 76.8315 81.7432C75.3051 80.3863 77.1707 78.8599 77.3403 76.4854C77.3403 75.4678 76.8315 74.4501 76.8315 73.7717C77.0011 72.7541 78.8667 71.058 78.3579 70.3796C77.1707 68.8532 75.8139 64.9522 73.1004 63.5954C69.8781 61.8993 66.1469 63.0865 61.5678 62.2385C58.6847 61.7297 57.4975 59.1856 54.784 59.3552C53.2576 59.5249 52.24 61.3905 50.0352 62.2385C47.8305 63.2561 44.9474 62.917 42.9122 63.4258C40.7074 63.9346 39.6899 65.461 37.4851 65.2914C35.6195 65.1218 35.6195 63.4258 33.4148 63.2562C32.5668 63.0866 30.8708 63.765 29.5141 63.9346C25.9525 64.2738 19.6775 64.4434 16.2855 63.765C13.0632 63.0866 11.028 62.0689 7.46652 60.3729C4.75297 59.1857 -0.165322 57.6592 0.0042743 55.6239C0.173871 54.4367 4.75298 53.0798 6.44894 52.4014C9.33208 51.5534 11.1976 50.0269 13.4024 49.8573C14.2504 49.8573 15.4376 50.3661 16.6247 50.3661C17.8119 50.1965 19.1687 49.1789 20.6951 49.0093C23.9174 48.5005 28.3269 49.1789 27.8181 46.126C25.4438 44.2603 15.7768 47.4829 15.4376 43.4123C15.268 40.8682 19.1687 40.1898 21.8822 39.5114C24.4262 39.0026 28.3269 37.9849 30.7013 38.1545C33.2452 38.3242 36.6371 41.2074 38.1635 37.9849C38.8419 35.6104 37.3155 33.7448 36.8067 31.8791C38.6723 29.1654 42.2338 29.5046 44.9473 29.1654C48.0001 28.6566 50.544 28.1478 53.4272 26.9606C56.1407 25.7733 58.8543 25.0949 61.907 24.7557C64.9597 24.4165 68.0125 23.2292 70.726 22.89C72.9308 22.7204 75.1355 22.89 77.1707 22.3812C79.0363 22.042 81.0714 20.8548 83.2762 21.0244C84.633 21.0244 85.8201 22.042 87.3465 22.3812C88.7033 22.5508 90.2296 22.3812 91.5864 22.5508C92.604 22.7204 93.6216 23.5685 94.8087 23.7381C96.5047 24.0773 98.3703 23.5685 100.066 23.7381C101.593 23.9077 102.78 24.9253 104.306 25.0949C107.698 25.6037 111.768 24.9253 115.16 25.6037C116.517 25.7733 117.535 26.4517 119.061 26.7909C120.418 26.9606 121.775 26.791 123.131 26.9606C124.997 27.2998 126.354 28.9958 128.389 29.1654C131.95 29.5046 135.851 27.639 139.413 27.2998C142.126 27.1302 144.67 27.4694 147.553 26.7909C150.097 26.2821 152.472 25.2645 154.676 25.2645C155.863 25.2645 156.881 25.6037 158.068 25.4341C159.255 25.2645 160.612 23.9077 161.969 24.0773C163.665 24.4165 163.326 26.4517 165.191 26.9606C167.226 25.9429 169.092 26.9606 171.297 26.9606C173.332 26.9606 175.197 25.9429 177.572 26.2822C181.642 26.9606 187.408 30.8615 190.631 28.8262C191.479 28.3174 191.309 27.2998 191.988 25.9429C193.005 24.0773 194.871 21.7028 194.531 18.9891C189.952 18.9891 185.712 21.194 180.625 21.5332C175.367 18.3107 181.981 16.2754 185.882 14.749C188.935 13.5617 191.479 10.848 195.379 10.1696C198.602 9.6608 201.994 10.848 205.725 11.3569C207.93 11.5265 210.134 11.1872 211.322 11.5264C213.526 12.2049 214.713 14.4097 216.579 14.9186C217.427 15.0882 218.614 15.0882 219.801 15.4274C221.837 15.9362 223.702 16.9538 225.737 15.4274C227.264 15.7666 227.433 17.4626 229.129 17.6323C230.656 16.7842 231.843 14.749 234.048 14.2401C235.065 14.0705 236.083 14.4097 237.27 14.2401C239.135 13.9009 241.51 11.5264 242.697 13.7313C242.188 15.4274 239.814 15.597 238.457 16.9538C237.27 18.1411 235.404 20.6852 235.574 21.8724C235.913 24.0773 239.135 23.2292 239.135 25.9429C238.627 27.4694 236.761 26.7909 235.235 27.4694C233.878 28.1478 233.369 29.5047 231.843 29.6743C227.772 30.5223 224.38 28.6566 220.819 28.8262C220.649 30.3527 222.515 31.2007 223.533 31.7095C226.755 33.4056 229.299 33.236 233.878 33.0664C236.252 33.0664 238.796 33.7448 240.831 32.388C242.019 31.5399 242.019 29.6742 243.036 28.487C244.393 27.2998 247.276 25.9429 249.142 26.2822C250.159 26.4518 251.686 27.639 251.686 28.487C251.686 30.5223 248.802 29.8439 248.802 32.0487C250.668 33.236 255.756 30.8615 255.925 28.8262C256.095 27.4694 254.229 26.6214 254.399 25.2645C254.569 22.89 257.791 22.89 257.282 20.5155C255.756 19.3283 254.06 20.8548 252.534 20.5155C250.329 20.1763 248.294 17.4626 247.276 15.7666C248.294 14.5793 250.329 15.4274 251.855 15.597C253.551 13.2225 256.604 12.3745 260.844 12.0353C262.37 11.8657 264.405 11.3569 265.084 12.7137C265.423 14.9186 261.861 16.1058 262.54 18.6499C265.592 19.3283 266.61 15.2578 268.984 13.7313C270.172 13.0529 271.698 12.5441 273.224 11.8657C274.581 11.3569 276.107 10 277.295 10C278.482 10 278.821 11.0176 280.008 11.5264C281.195 12.0353 282.552 11.1872 282.891 12.7137C280.347 17.2931 270.511 14.5793 267.967 19.1587C268.476 22.2116 266.44 25.2645 268.136 27.2998C269.324 28.8262 272.207 27.8086 272.885 29.335C273.733 31.3703 270.172 31.3703 271.02 33.9144C273.394 35.2712 276.277 32.5576 278.482 31.3703C280.856 30.1831 283.909 28.8262 284.078 25.9429C282.891 23.738 278.482 25.4341 277.803 23.0596C277.464 21.7028 279.16 18.8195 279.669 18.3107C282.043 15.597 290.184 11.8657 296.12 12.3745C297.307 12.5441 298.325 13.2225 299.512 13.2225C303.413 13.5617 307.992 11.5264 311.044 13.2225C313.419 11.8657 316.471 13.3921 319.863 13.0529C322.407 14.5794 321.729 17.9715 325.799 19.3283C326.817 19.6675 328.174 19.4979 329.7 19.8371C330.718 20.0067 331.905 21.3636 333.092 21.8724C334.788 22.7204 336.145 22.5508 336.484 23.7381C336.823 24.9253 335.297 25.6037 335.297 26.9606C336.314 27.8086 335.466 28.9958 335.975 30.1831C336.993 32.2183 339.367 32.0487 341.741 33.0664C343.437 33.7448 346.999 35.9496 346.999 37.6457C346.829 38.8329 343.607 40.6986 342.42 41.2074C341.572 41.5466 337.841 43.4123 336.653 43.2427C334.449 42.9035 333.77 38.6633 330.718 38.6633C329.53 38.6633 328.343 39.5114 328.174 41.2074C328.174 44.0907 331.566 44.2604 331.566 46.8044C331.735 49.8573 329.87 50.0269 327.326 51.8926C325.46 51.2142 323.934 50.0269 321.39 49.8573C320.033 51.5534 323.764 52.2318 322.577 54.4367C319.015 55.2847 316.132 53.419 312.91 52.4014C311.892 52.0622 310.366 52.2318 309.518 51.723C308.161 51.0446 307.822 48.8397 306.804 47.6525C305.617 46.2956 303.243 44.4299 301.208 44.4299C298.494 44.4299 294.424 47.822 292.219 44.5995C293.745 39.5114 301.038 43.2427 305.787 41.377C307.483 40.6986 308.161 38.833 309.688 37.9849C312.571 36.2889 317.319 36.1193 316.811 32.7271C316.641 31.0311 314.267 31.0311 312.91 30.1831C311.214 28.9958 309.857 24.9253 307.313 24.7557C305.956 24.5861 305.108 25.7733 303.752 25.9429C300.869 26.2821 297.646 24.7557 294.933 25.9429C293.745 26.6213 294.593 27.8086 293.576 29.1654C292.728 30.183 290.862 30.5223 290.184 31.7095C289.336 32.8967 289.506 34.5928 288.318 35.6105C286.453 37.3065 282.552 37.4761 280.178 38.3242C279.16 38.6634 277.803 39.8506 276.786 39.8506C274.92 39.8506 274.072 37.3065 272.037 38.3242C271.868 40.6986 274.581 41.7162 276.277 42.9035C278.143 44.0907 280.178 45.278 280.856 47.4829C278.991 51.3838 276.107 47.3132 273.224 47.3132C270.002 47.3132 265.423 53.4191 262.709 48.5005C263.388 45.9564 266.271 45.4476 266.949 42.9035C263.727 43.4123 261.013 46.126 257.282 46.974C255.756 47.3132 254.229 47.3133 252.703 47.6525C249.99 48.5005 248.124 50.3661 245.241 51.5534C244.054 51.8926 242.867 51.8926 241.679 52.2318C238.966 53.0798 235.743 54.7759 232.86 56.3023C229.977 57.8288 226.755 59.5249 225.059 61.0513C224.041 61.8993 221.667 64.7826 221.667 65.8002C221.837 67.1571 224.38 67.6659 224.38 69.0227C224.38 69.8708 222.854 71.5669 223.872 72.9237C224.72 73.9413 226.585 73.0933 228.62 73.4325C232.012 73.9413 234.387 76.655 236.931 78.1815C238.966 79.1991 241.849 80.5559 244.054 80.8951C247.106 81.2343 250.668 80.0471 251.007 82.4216C251.346 84.7961 248.124 85.6441 247.785 87.1706C249.481 89.3754 246.598 90.3931 246.598 92.4283C246.598 93.9548 248.463 96.3293 250.159 96.4989C252.364 96.6685 255.756 94.294 256.604 91.9195C257.791 89.2058 257.282 85.6441 259.317 83.6088C269.832 83.948 278.651 78.8599 277.973 68.0051C277.973 66.9875 277.295 65.6307 277.464 64.4434C277.803 62.7474 280.856 61.2209 280.347 59.016C283.23 58.168 283.23 53.4191 286.283 52.7406C288.827 52.2318 291.71 54.6063 295.102 54.2671C296.12 54.2671 297.646 53.2494 298.664 53.4191C300.869 53.7583 302.225 56.472 303.921 57.6592C305.448 58.8464 306.974 58.3376 307.313 59.864C306.804 62.4081 305.108 62.4081 305.278 64.7826C305.448 66.8179 307.652 68.3443 308.67 68.6836C310.366 69.0228 312.74 68.1747 314.267 67.3267C317.319 65.9698 319.863 61.5601 322.407 62.0689C324.442 62.5778 325.969 68.8532 326.308 71.058C326.647 73.4325 325.969 75.2981 326.138 77.503C326.478 81.2343 331.226 80.8951 333.601 82.9304C334.279 83.6088 334.618 85.1353 335.127 85.8137C336.314 87.3402 337.671 87.3402 337.841 89.0362C338.18 92.9372 334.279 93.2764 334.618 97.5165C333.77 99.2126 331.735 99.0429 331.905 101.417C332.244 104.979 337.332 102.265 338.689 104.979C339.367 106.506 338.519 107.523 338.01 109.728C339.706 111.763 339.706 115.155 336.653 115.155C335.127 113.968 334.449 111.933 332.583 111.424ZM89.3817 105.658C90.3992 104.64 88.8729 102.265 87.3465 103.113C87.1769 103.962 87.6857 105.997 89.3817 105.658ZM246.428 126.01C245.41 125.162 242.358 125.332 240.323 125.501C238.796 125.671 237.1 126.01 236.931 127.028C239.305 128.215 245.75 129.063 246.428 126.01ZM234.726 122.279C236.422 120.922 235.743 118.039 233.878 117.53C233.2 117.36 232.182 118.039 230.995 118.039C229.638 117.869 228.451 116.852 227.433 116.682C225.568 116.512 223.872 117.36 223.193 118.208C223.193 119.565 224.211 119.735 224.041 121.092C221.837 122.618 223.024 127.876 225.228 128.046C227.433 128.215 228.62 122.279 231.673 121.77C232.691 121.6 233.369 122.449 234.726 122.279ZM231.673 131.268C228.451 130.081 225.568 132.116 222.854 132.455C221.328 132.625 218.445 132.116 218.784 134.491C219.123 136.356 222.006 135.678 223.702 135.169C227.264 133.982 229.468 132.964 231.673 131.268ZM221.667 114.138C226.076 112.272 220.819 106.336 218.784 105.827C215.053 104.81 209.965 108.541 205.725 109.728C203.351 110.407 201.146 110.407 200.467 112.442C202.672 116.004 206.742 111.594 209.965 112.272C211.491 112.611 212.509 114.647 214.035 114.986C215.053 114.986 221.328 114.307 221.667 114.138ZM218.614 117.7C217.766 116.682 212.678 117.869 211.152 118.887C210.134 119.565 209.456 121.261 208.438 122.449C207.421 123.805 206.234 124.653 205.216 125.841C204.368 126.858 199.789 133.473 203.351 134.151C204.877 134.491 207.93 131.268 208.269 130.081C209.286 126.01 211.152 122.957 214.374 121.092C216.409 120.074 218.275 120.074 218.614 117.7ZM190.461 92.598C193.005 92.4284 194.701 85.1353 190.461 86.1529C187.578 86.6617 186.9 92.598 190.461 92.598ZM178.25 261.356C178.42 261.016 178.589 260.847 178.759 260.508C178.081 258.133 175.876 261.186 178.25 261.356ZM83.1066 72.9237C83.1066 72.4149 82.7674 72.4149 82.937 72.0757C82.2586 72.0757 81.4106 71.9061 81.5802 72.7541C81.9194 73.4325 82.7674 73.4325 83.1066 72.9237ZM319.524 37.6457C320.711 37.8153 321.22 37.4761 321.051 36.2889C320.203 35.6104 318.676 36.4585 319.524 37.6457ZM293.745 15.597C293.406 15.2578 292.728 15.2578 292.389 15.597C292.389 15.9362 292.389 16.2754 292.389 16.445C293.237 16.6146 293.576 16.1058 293.745 15.597ZM208.269 32.8968C208.947 32.3879 210.134 31.7095 209.626 30.6919C207.082 29.5047 203.011 30.3527 199.28 30.0134C197.245 27.1301 193.684 26.6214 193.344 31.3703C197.584 34.7624 203.859 29.6743 208.269 32.8968ZM167.905 56.1328C169.262 55.6239 170.958 55.9631 171.297 54.6063C170.279 53.7582 169.092 52.571 167.905 52.571C166.209 52.571 165.531 53.9278 163.835 54.7759C161.969 55.7935 159.255 55.9631 159.086 57.6592C162.647 58.3376 165.7 56.8112 167.905 56.1328ZM166.718 39.8506C168.074 39.681 169.601 40.1898 170.618 39.0026C169.601 34.084 162.647 37.1369 158.747 37.4761C157.899 38.833 156.711 40.0202 156.542 42.0555C159.595 42.7339 163.326 40.529 166.718 39.8506ZM234.387 269.836C236.083 269.497 235.574 265.426 233.539 266.444C231.843 267.292 232.691 270.175 234.387 269.836Z" fill="#F3F3F3"/>
<path d="M82.864 72.0118C82.864 72.302 83.0765 72.4471 82.9702 72.7372C82.7577 73.1724 82.2263 73.0274 82.0138 72.5921C81.9075 71.8668 82.4389 72.0118 82.864 72.0118Z" fill="#F3F3F3"/>
<path d="M76 85.0462C75.5385 86.7077 74.4615 87.2615 73.0769 88C72.6154 87.6308 72.3077 87.2615 72 86.7077C72.1538 84.4923 74.9231 82.8308 76 85.0462Z" fill="#F3F3F3"/>
</svg>
