<svg width="17" height="24" viewBox="0 0 17 24" fill="none" xmlns="http://www.w3.org/2000/svg">
<path d="M8.49965 0C3.81317 0 0 3.96381 0 8.83593C0 10.1068 0.250226 11.3201 0.743353 12.4426C2.8685 17.2767 6.943 22.3804 8.14144 23.8293C8.23123 23.9376 8.36213 24 8.49988 24C8.63764 24 8.76854 23.9376 8.85833 23.8293C10.0563 22.3806 14.1308 17.2771 16.2566 12.4426C16.75 11.3201 17 10.1068 17 8.83593C16.9995 3.96381 13.1864 0 8.49965 0ZM8.49965 13.4253C6.0652 13.4253 4.08442 11.3663 4.08442 8.83568C4.08442 6.30481 6.0652 4.24578 8.49965 4.24578C10.9341 4.24578 12.9149 6.30481 12.9149 8.83568C12.9151 11.3663 10.9343 13.4253 8.49965 13.4253Z" fill="#0f0f0f"/>
</svg>
