<svg width="977" height="1082" viewBox="0 0 977 1082" fill="none" xmlns="http://www.w3.org/2000/svg">
 <rect clip-path="url(#77fudlf7tbo)" x="0" y="0" width="977" height="1082" style="fill: url(&quot;#cb59ner01oa&quot;);"></rect>
        <defs>
            <clipPath id="77fudlf7tbo">
<rect opacity="0.4" x="182" y="46" width="747" height="1" fill="#D6D6D6"/>
<g filter="url(#filter0_d)">
<rect width="747" height="591" rx="4" transform="matrix(1 0 0 -1 182 803)" fill="white"/>
<rect x="0.5" y="-0.5" width="746" height="590" rx="3.5" transform="matrix(1 0 0 -1 182 802)" stroke="black" stroke-opacity="0.04"/>
</g>
<rect opacity="0.8" x="206.25" y="351.25" width="698.5" height="0.5" stroke="#D6D6D6" stroke-width="0.5" stroke-dasharray="2 2"/>
<rect opacity="0.47" x="182" y="952" width="747" height="1" fill="#D6D6D6"/>
<rect width="64" height="19" rx="5" fill="#F7F7F7"/>
<rect y="29" width="64" height="19" rx="5" fill="#F7F7F7"/>
<rect y="57" width="64" height="19" rx="5" fill="#F7F7F7"/>
<rect x="178" y="2" width="160" height="23" rx="5" fill="#F7F7F7"/>
<rect x="202" y="127" width="21" height="16" rx="5" fill="#F7F7F7"/>
<rect x="348" y="116" width="101" height="17" rx="5" fill="#F7F7F7"/>
<rect x="630" y="122" width="83" height="20" rx="5" fill="#F7F7F7"/>
<rect x="792" y="124" width="55" height="16" rx="5" fill="#F7F7F7"/>
<rect x="895" y="126" width="12" height="12" rx="5" fill="#F7F7F7"/>
<rect x="348" y="135" width="65" height="17" rx="5" fill="#F7F7F7"/>
<rect x="242" y="75" width="90" height="117" rx="5" fill="#F7F7F7"/>
<rect x="202" y="274" width="21" height="16" rx="5" fill="#F7F7F7"/>
<rect x="348" y="263" width="101" height="17" rx="5" fill="#F7F7F7"/>
<rect x="630" y="269" width="83" height="20" rx="5" fill="#F7F7F7"/>
<rect x="792" y="271" width="55" height="16" rx="5" fill="#F7F7F7"/>
<rect x="895" y="273" width="12" height="12" rx="5" fill="#F7F7F7"/>
<rect x="348" y="282" width="65" height="17" rx="5" fill="#F7F7F7"/>
<rect x="242" y="222" width="90" height="117" rx="5" fill="#F7F7F7"/>
<rect x="202" y="875" width="21" height="16" rx="5" fill="#F7F7F7"/>
<rect x="348" y="864" width="101" height="17" rx="5" fill="#F7F7F7"/>
<rect x="630" y="870" width="83" height="20" rx="5" fill="#F7F7F7"/>
<rect x="792" y="872" width="55" height="16" rx="5" fill="#F7F7F7"/>
<rect x="895" y="874" width="12" height="12" rx="5" fill="#F7F7F7"/>
<rect x="348" y="883" width="65" height="17" rx="5" fill="#F7F7F7"/>
<rect x="242" y="823" width="90" height="117" rx="5" fill="#F7F7F7"/>
<rect x="202" y="1017" width="21" height="16" rx="5" fill="#F7F7F7"/>
<rect x="348" y="1006" width="101" height="17" rx="5" fill="#F7F7F7"/>
<rect x="630" y="1012" width="83" height="20" rx="5" fill="#F7F7F7"/>
<rect x="792" y="1014" width="55" height="16" rx="5" fill="#F7F7F7"/>
<rect x="895" y="1016" width="12" height="12" rx="5" fill="#F7F7F7"/>
<rect x="348" y="1025" width="65" height="17" rx="5" fill="#F7F7F7"/>
<rect x="242" y="965" width="90" height="117" rx="5" fill="#F7F7F7"/>
<rect x="242" y="376" width="119" height="16" rx="5" fill="#F7F7F7"/>
<rect x="242" y="480" width="119" height="16" rx="5" fill="#F7F7F7"/>
<rect x="242" y="403" width="162" height="15" rx="5" fill="#F7F7F7"/>
<rect x="242" y="421" width="119" height="15" rx="5" fill="#F7F7F7"/>
<rect x="242" y="439" width="76" height="15" rx="5" fill="#F7F7F7"/>
<rect x="242" y="507" width="86" height="15" rx="5" fill="#F7F7F7"/>
<rect x="787" y="607" width="64" height="16" rx="5" fill="#F7F7F7"/>
<rect x="653" y="607" width="36" height="16" rx="5" fill="#F7F7F7"/>
<rect x="242" y="546" width="90" height="117" rx="5" fill="#F7F7F7"/>
<rect x="345" y="563" width="53" height="16" rx="5" fill="#F7F7F7"/>
<rect x="345" y="612" width="105" height="16" rx="5" fill="#F7F7F7"/>
<rect x="345" y="630" width="78" height="16" rx="5" fill="#F7F7F7"/>
<rect x="345" y="582" width="156" height="16" rx="5" fill="#F7F7F7"/>
<rect x="787" y="732" width="64" height="16" rx="5" fill="#F7F7F7"/>
<rect x="653" y="732" width="36" height="16" rx="5" fill="#F7F7F7"/>
<rect x="242" y="671" width="90" height="117" rx="5" fill="#F7F7F7"/>
<rect x="345" y="688" width="53" height="16" rx="5" fill="#F7F7F7"/>
<rect x="345" y="737" width="105" height="16" rx="5" fill="#F7F7F7"/>
<rect x="345" y="755" width="78" height="16" rx="5" fill="#F7F7F7"/>
<rect x="345" y="707" width="156" height="16" rx="5" fill="#F7F7F7"/>
<rect x="635" y="13" width="73" height="16" rx="5" fill="#F7F7F7"/>
<rect x="803" y="13" width="34" height="16" rx="5" fill="#F7F7F7"/>
 </clipPath><linearGradient id="cb59ner01oa"><stop offset="0.675228" stop-color="#f9f9f9"><animate attributeName="offset" values="-2; 1" dur="2s" repeatCount="indefinite"></animate></stop><stop offset="1.17523" stop-color="#ecebeb"><animate attributeName="offset" values="-1.5; 1.5" dur="2s" repeatCount="indefinite"></animate></stop><stop offset="1.67523" stop-color="#f9f9f9"><animate attributeName="offset" values="-1; 2" dur="2s" repeatCount="indefinite"></animate></stop></linearGradient></defs>
<defs>
<filter id="filter0_d" x="132" y="164" width="847" height="691" filterUnits="userSpaceOnUse" color-interpolation-filters="sRGB">
<feFlood flood-opacity="0" result="BackgroundImageFix"/>
<feColorMatrix in="SourceAlpha" type="matrix" values="0 0 0 0 0 0 0 0 0 0 0 0 0 0 0 0 0 0 127 0"/>
<feOffset dy="2"/>
<feGaussianBlur stdDeviation="25"/>
<feColorMatrix type="matrix" values="0 0 0 0 0 0 0 0 0 0 0 0 0 0 0 0 0 0 0.07 0"/>
<feBlend mode="normal" in2="BackgroundImageFix" result="effect1_dropShadow"/>
<feBlend mode="normal" in="SourceGraphic" in2="effect1_dropShadow" result="shape"/>
</filter>
</defs>
</svg>
