<svg width="944" height="1970" viewBox="0 0 944 1970" fill="none" xmlns="http://www.w3.org/2000/svg">
    <rect clip-path="url(#77fudlf7tbo)" x="0" y="0" width="944" height="1970" style="fill: url(&quot;#cb59ner01oa&quot;);"></rect>
    <defs>
        <clipPath id="77fudlf7tbo">
<rect x="87" y="394" width="124" height="14" rx="5" fill="#F7F7F7"/>
<rect x="71" y="417" width="156" height="14" rx="5" fill="#F7F7F7"/>
<rect x="111" y="450" width="76" height="14" rx="5" fill="#F7F7F7"/>
<rect width="299" height="374" rx="5" fill="#F7F7F7"/>
<rect x="409" y="394" width="124" height="14" rx="5" fill="#F7F7F7"/>
<rect x="393" y="417" width="156" height="14" rx="5" fill="#F7F7F7"/>
<rect x="433" y="450" width="76" height="14" rx="5" fill="#F7F7F7"/>
<rect x="322" width="299" height="374" rx="5" fill="#F7F7F7"/>
<rect x="732" y="394" width="124" height="14" rx="5" fill="#F7F7F7"/>
<rect x="716" y="417" width="156" height="14" rx="5" fill="#F7F7F7"/>
<rect x="756" y="450" width="76" height="14" rx="5" fill="#F7F7F7"/>
<rect x="645" width="299" height="374" rx="5" fill="#F7F7F7"/>
<rect x="87" y="896" width="124" height="14" rx="5" fill="#F7F7F7"/>
<rect x="71" y="919" width="156" height="14" rx="5" fill="#F7F7F7"/>
<rect x="111" y="952" width="76" height="14" rx="5" fill="#F7F7F7"/>
<rect y="502" width="299" height="374" rx="5" fill="#F7F7F7"/>
<rect x="409" y="896" width="124" height="14" rx="5" fill="#F7F7F7"/>
<rect x="393" y="919" width="156" height="14" rx="5" fill="#F7F7F7"/>
<rect x="433" y="952" width="76" height="14" rx="5" fill="#F7F7F7"/>
<rect x="322" y="502" width="299" height="374" rx="5" fill="#F7F7F7"/>
<rect x="732" y="896" width="124" height="14" rx="5" fill="#F7F7F7"/>
<rect x="716" y="919" width="156" height="14" rx="5" fill="#F7F7F7"/>
<rect x="756" y="952" width="76" height="14" rx="5" fill="#F7F7F7"/>
<rect x="645" y="502" width="299" height="374" rx="5" fill="#F7F7F7"/>
<rect x="87" y="1398" width="124" height="14" rx="5" fill="#F7F7F7"/>
<rect x="71" y="1421" width="156" height="14" rx="5" fill="#F7F7F7"/>
<rect x="111" y="1454" width="76" height="14" rx="5" fill="#F7F7F7"/>
<rect y="1004" width="299" height="374" rx="5" fill="#F7F7F7"/>
<rect x="409" y="1398" width="124" height="14" rx="5" fill="#F7F7F7"/>
<rect x="393" y="1421" width="156" height="14" rx="5" fill="#F7F7F7"/>
<rect x="433" y="1454" width="76" height="14" rx="5" fill="#F7F7F7"/>
<rect x="322" y="1004" width="299" height="374" rx="5" fill="#F7F7F7"/>
<rect x="732" y="1398" width="124" height="14" rx="5" fill="#F7F7F7"/>
<rect x="716" y="1421" width="156" height="14" rx="5" fill="#F7F7F7"/>
<rect x="756" y="1454" width="76" height="14" rx="5" fill="#F7F7F7"/>
<rect x="645" y="1004" width="299" height="374" rx="5" fill="#F7F7F7"/>
<rect x="87" y="1900" width="124" height="14" rx="5" fill="#F7F7F7"/>
<rect x="71" y="1923" width="156" height="14" rx="5" fill="#F7F7F7"/>
<rect x="111" y="1956" width="76" height="14" rx="5" fill="#F7F7F7"/>
<rect y="1506" width="299" height="374" rx="5" fill="#F7F7F7"/>
<rect x="409" y="1900" width="124" height="14" rx="5" fill="#F7F7F7"/>
<rect x="393" y="1923" width="156" height="14" rx="5" fill="#F7F7F7"/>
<rect x="433" y="1956" width="76" height="14" rx="5" fill="#F7F7F7"/>
<rect x="322" y="1506" width="299" height="374" rx="5" fill="#F7F7F7"/>
<rect x="732" y="1900" width="124" height="14" rx="5" fill="#F7F7F7"/>
<rect x="716" y="1923" width="156" height="14" rx="5" fill="#F7F7F7"/>
<rect x="756" y="1956" width="76" height="14" rx="5" fill="#F7F7F7"/>
<rect x="645" y="1506" width="299" height="374" rx="5" fill="#F7F7F7"/>
</clipPath><linearGradient id="cb59ner01oa"><stop offset="0.675228" stop-color="#f9f9f9"><animate attributeName="offset" values="-2; 1" dur="2s" repeatCount="indefinite"></animate></stop><stop offset="1.17523" stop-color="#ecebeb"><animate attributeName="offset" values="-1.5; 1.5" dur="2s" repeatCount="indefinite"></animate></stop><stop offset="1.67523" stop-color="#f9f9f9"><animate attributeName="offset" values="-1; 2" dur="2s" repeatCount="indefinite"></animate></stop></linearGradient></defs></svg>
