<svg width="1077" height="1711" viewBox="0 0 1077 1711" fill="none" xmlns="http://www.w3.org/2000/svg">
    <rect clip-path="url(#77fudlf7tbo)" x="0" y="0" width="1077" height="1711" style="fill: url(&quot;#cb59ner01oa&quot;);"></rect>
    <defs>
        <clipPath id="77fudlf7tbo">
<rect x="64" y="344" width="134" height="14" rx="5" fill="#F7F7F7"/>
<rect x="53" y="363" width="156" height="14" rx="5" fill="#F7F7F7"/>
<rect x="99" y="389" width="64" height="14" rx="5" fill="#F7F7F7"/>
<rect width="262" height="329" rx="5" fill="#F7F7F7"/>
<rect x="336" y="344" width="134" height="14" rx="5" fill="#F7F7F7"/>
<rect x="325" y="363" width="156" height="14" rx="5" fill="#F7F7F7"/>
<rect x="371" y="389" width="64" height="14" rx="5" fill="#F7F7F7"/>
<rect x="272" width="262" height="329" rx="5" fill="#F7F7F7"/>
<rect x="608" y="344" width="134" height="14" rx="5" fill="#F7F7F7"/>
<rect x="597" y="363" width="156" height="14" rx="5" fill="#F7F7F7"/>
<rect x="643" y="389" width="64" height="14" rx="5" fill="#F7F7F7"/>
<rect x="544" width="262" height="329" rx="5" fill="#F7F7F7"/>
<rect x="64" y="780" width="134" height="14" rx="5" fill="#F7F7F7"/>
<rect x="53" y="799" width="156" height="14" rx="5" fill="#F7F7F7"/>
<rect x="99" y="825" width="64" height="14" rx="5" fill="#F7F7F7"/>
<rect y="436" width="262" height="329" rx="5" fill="#F7F7F7"/>
<rect x="336" y="780" width="134" height="14" rx="5" fill="#F7F7F7"/>
<rect x="325" y="799" width="156" height="14" rx="5" fill="#F7F7F7"/>
<rect x="371" y="825" width="64" height="14" rx="5" fill="#F7F7F7"/>
<rect x="272" y="436" width="262" height="329" rx="5" fill="#F7F7F7"/>
<rect x="608" y="780" width="134" height="14" rx="5" fill="#F7F7F7"/>
<rect x="597" y="799" width="156" height="14" rx="5" fill="#F7F7F7"/>
<rect x="643" y="825" width="64" height="14" rx="5" fill="#F7F7F7"/>
<rect x="544" y="436" width="262" height="329" rx="5" fill="#F7F7F7"/>
<rect x="64" y="1216" width="134" height="14" rx="5" fill="#F7F7F7"/>
<rect x="53" y="1235" width="156" height="14" rx="5" fill="#F7F7F7"/>
<rect x="99" y="1261" width="64" height="14" rx="5" fill="#F7F7F7"/>
<rect y="872" width="262" height="329" rx="5" fill="#F7F7F7"/>
<rect x="336" y="1216" width="134" height="14" rx="5" fill="#F7F7F7"/>
<rect x="325" y="1235" width="156" height="14" rx="5" fill="#F7F7F7"/>
<rect x="371" y="1261" width="64" height="14" rx="5" fill="#F7F7F7"/>
<rect x="272" y="872" width="262" height="329" rx="5" fill="#F7F7F7"/>
<rect x="608" y="1216" width="134" height="14" rx="5" fill="#F7F7F7"/>
<rect x="597" y="1235" width="156" height="14" rx="5" fill="#F7F7F7"/>
<rect x="643" y="1261" width="64" height="14" rx="5" fill="#F7F7F7"/>
<rect x="544" y="872" width="262" height="329" rx="5" fill="#F7F7F7"/>
<rect x="879" y="344" width="134" height="14" rx="5" fill="#F7F7F7"/>
<rect x="868" y="363" width="156" height="14" rx="5" fill="#F7F7F7"/>
<rect x="914" y="389" width="64" height="14" rx="5" fill="#F7F7F7"/>
<rect x="815" width="262" height="329" rx="5" fill="#F7F7F7"/>
<rect x="879" y="780" width="134" height="14" rx="5" fill="#F7F7F7"/>
<rect x="868" y="799" width="156" height="14" rx="5" fill="#F7F7F7"/>
<rect x="914" y="825" width="64" height="14" rx="5" fill="#F7F7F7"/>
<rect x="815" y="436" width="262" height="329" rx="5" fill="#F7F7F7"/>
<rect x="879" y="1216" width="134" height="14" rx="5" fill="#F7F7F7"/>
<rect x="868" y="1235" width="156" height="14" rx="5" fill="#F7F7F7"/>
<rect x="914" y="1261" width="64" height="14" rx="5" fill="#F7F7F7"/>
<rect x="815" y="872" width="262" height="329" rx="5" fill="#F7F7F7"/>
<rect x="64" y="1652" width="134" height="14" rx="5" fill="#F7F7F7"/>
<rect x="53" y="1671" width="156" height="14" rx="5" fill="#F7F7F7"/>
<rect x="99" y="1697" width="64" height="14" rx="5" fill="#F7F7F7"/>
<rect y="1308" width="262" height="329" rx="5" fill="#F7F7F7"/>
<rect x="336" y="1652" width="134" height="14" rx="5" fill="#F7F7F7"/>
<rect x="325" y="1671" width="156" height="14" rx="5" fill="#F7F7F7"/>
<rect x="371" y="1697" width="64" height="14" rx="5" fill="#F7F7F7"/>
<rect x="272" y="1308" width="262" height="329" rx="5" fill="#F7F7F7"/>
<rect x="608" y="1652" width="134" height="14" rx="5" fill="#F7F7F7"/>
<rect x="597" y="1671" width="156" height="14" rx="5" fill="#F7F7F7"/>
<rect x="643" y="1697" width="64" height="14" rx="5" fill="#F7F7F7"/>
<rect x="544" y="1308" width="262" height="329" rx="5" fill="#F7F7F7"/>
<rect x="879" y="1652" width="134" height="14" rx="5" fill="#F7F7F7"/>
<rect x="868" y="1671" width="156" height="14" rx="5" fill="#F7F7F7"/>
<rect x="914" y="1697" width="64" height="14" rx="5" fill="#F7F7F7"/>
<rect x="815" y="1308" width="262" height="329" rx="5" fill="#F7F7F7"/>
</clipPath><linearGradient id="cb59ner01oa"><stop offset="0.675228" stop-color="#f9f9f9"><animate attributeName="offset" values="-2; 1" dur="2s" repeatCount="indefinite"></animate></stop><stop offset="1.17523" stop-color="#ecebeb"><animate attributeName="offset" values="-1.5; 1.5" dur="2s" repeatCount="indefinite"></animate></stop><stop offset="1.67523" stop-color="#f9f9f9"><animate attributeName="offset" values="-1; 2" dur="2s" repeatCount="indefinite"></animate></stop></linearGradient></defs></svg>
