<svg width="960" height="2136" viewBox="0 0 960 2136" fill="none" xmlns="http://www.w3.org/2000/svg">
    <rect clip-path="url(#77fudlf7tbo)" x="0" y="0" width="960" height="2136" style="fill: url(&quot;#cb59ner01oa&quot;);"></rect>
    <defs>
        <clipPath id="77fudlf7tbo">
            <rect opacity="0.2" y="73" width="960" height="1" fill="#C4C4C4"/>
            <rect x="8" width="128" height="23" rx="5" fill="#F7F7F7"/>
            <rect x="8" y="48" width="88" height="14" rx="5" fill="#F7F7F7"/>
            <rect x="808" y="48" width="66" height="14" rx="5" fill="#F7F7F7"/>
            <rect x="894" y="48" width="66" height="14" rx="5" fill="#F7F7F7"/>
            <rect x="95" y="500" width="124" height="14" rx="5" fill="#F7F7F7"/>
            <rect x="79" y="523" width="156" height="14" rx="5" fill="#F7F7F7"/>
            <rect x="119" y="556" width="76" height="14" rx="5" fill="#F7F7F7"/>
            <rect x="8" y="106" width="299" height="374" rx="5" fill="#F7F7F7"/>
            <rect x="417" y="500" width="124" height="14" rx="5" fill="#F7F7F7"/>
            <rect x="401" y="523" width="156" height="14" rx="5" fill="#F7F7F7"/>
            <rect x="441" y="556" width="76" height="14" rx="5" fill="#F7F7F7"/>
            <rect x="330" y="106" width="299" height="374" rx="5" fill="#F7F7F7"/>
            <rect x="740" y="500" width="124" height="14" rx="5" fill="#F7F7F7"/>
            <rect x="724" y="523" width="156" height="14" rx="5" fill="#F7F7F7"/>
            <rect x="764" y="556" width="76" height="14" rx="5" fill="#F7F7F7"/>
            <rect x="653" y="106" width="299" height="374" rx="5" fill="#F7F7F7"/>
            <rect x="95" y="1002" width="124" height="14" rx="5" fill="#F7F7F7"/>
            <rect x="79" y="1025" width="156" height="14" rx="5" fill="#F7F7F7"/>
            <rect x="119" y="1058" width="76" height="14" rx="5" fill="#F7F7F7"/>
            <rect x="8" y="608" width="299" height="374" rx="5" fill="#F7F7F7"/>
            <rect x="417" y="1002" width="124" height="14" rx="5" fill="#F7F7F7"/>
            <rect x="401" y="1025" width="156" height="14" rx="5" fill="#F7F7F7"/>
            <rect x="441" y="1058" width="76" height="14" rx="5" fill="#F7F7F7"/>
            <rect x="330" y="608" width="299" height="374" rx="5" fill="#F7F7F7"/>
            <rect x="740" y="1002" width="124" height="14" rx="5" fill="#F7F7F7"/>
            <rect x="724" y="1025" width="156" height="14" rx="5" fill="#F7F7F7"/>
            <rect x="764" y="1058" width="76" height="14" rx="5" fill="#F7F7F7"/>
            <rect x="653" y="608" width="299" height="374" rx="5" fill="#F7F7F7"/>
            <rect x="95" y="1504" width="124" height="14" rx="5" fill="#F7F7F7"/>
            <rect x="79" y="1527" width="156" height="14" rx="5" fill="#F7F7F7"/>
            <rect x="119" y="1560" width="76" height="14" rx="5" fill="#F7F7F7"/>
            <rect x="8" y="1110" width="299" height="374" rx="5" fill="#F7F7F7"/>
            <rect x="417" y="1504" width="124" height="14" rx="5" fill="#F7F7F7"/>
            <rect x="401" y="1527" width="156" height="14" rx="5" fill="#F7F7F7"/>
            <rect x="441" y="1560" width="76" height="14" rx="5" fill="#F7F7F7"/>
            <rect x="330" y="1110" width="299" height="374" rx="5" fill="#F7F7F7"/>
            <rect x="740" y="1504" width="124" height="14" rx="5" fill="#F7F7F7"/>
            <rect x="724" y="1527" width="156" height="14" rx="5" fill="#F7F7F7"/>
            <rect x="764" y="1560" width="76" height="14" rx="5" fill="#F7F7F7"/>
            <rect x="653" y="1110" width="299" height="374" rx="5" fill="#F7F7F7"/>
            <rect x="95" y="2006" width="124" height="14" rx="5" fill="#F7F7F7"/>
            <rect x="79" y="2029" width="156" height="14" rx="5" fill="#F7F7F7"/>
            <rect x="119" y="2062" width="76" height="14" rx="5" fill="#F7F7F7"/>
            <rect x="8" y="1612" width="299" height="374" rx="5" fill="#F7F7F7"/>
            <rect x="417" y="2006" width="124" height="14" rx="5" fill="#F7F7F7"/>
            <rect x="401" y="2029" width="156" height="14" rx="5" fill="#F7F7F7"/>
            <rect x="441" y="2062" width="76" height="14" rx="5" fill="#F7F7F7"/>
            <rect x="330" y="1612" width="299" height="374" rx="5" fill="#F7F7F7"/>
            <rect x="740" y="2006" width="124" height="14" rx="5" fill="#F7F7F7"/>
            <rect x="724" y="2029" width="156" height="14" rx="5" fill="#F7F7F7"/>
            <rect x="764" y="2062" width="76" height="14" rx="5" fill="#F7F7F7"/>
            <rect x="653" y="1612" width="299" height="374" rx="5" fill="#F7F7F7"/>
            <rect x="336" y="2122" width="288" height="14" rx="5" fill="#F7F7F7"/>
        </clipPath><linearGradient id="cb59ner01oa"><stop offset="0.675228" stop-color="#f9f9f9"><animate attributeName="offset" values="-2; 1" dur="2s" repeatCount="indefinite"></animate></stop><stop offset="1.17523" stop-color="#ecebeb"><animate attributeName="offset" values="-1.5; 1.5" dur="2s" repeatCount="indefinite"></animate></stop><stop offset="1.67523" stop-color="#f9f9f9"><animate attributeName="offset" values="-1; 2" dur="2s" repeatCount="indefinite"></animate></stop></linearGradient></defs>
</svg>
