<svg width="343" height="2271" viewBox="0 0 343 2271" fill="none" xmlns="http://www.w3.org/2000/svg">
    <rect clip-path="url(#77fudlf7tbo)" x="0" y="0" width="343" height="2271" style="fill: url(&quot;#cb59ner01oa&quot;);"></rect>
        <defs>
            <clipPath id="77fudlf7tbo">
                <rect opacity="0.2" y="73" width="343" height="1" fill="#C4C4C4"/>
                <rect width="128" height="23" rx="5" fill="#F7F7F7"/>
                <rect y="48" width="88" height="14" rx="5" fill="#F7F7F7"/>
                <rect x="199" y="48" width="66" height="14" rx="5" fill="#F7F7F7"/>
                <rect x="277" y="48" width="66" height="14" rx="5" fill="#F7F7F7"/>
                <rect x="17" y="320" width="134" height="14" rx="5" fill="#F7F7F7"/>
                <rect x="6" y="339" width="156" height="14" rx="5" fill="#F7F7F7"/>
                <rect x="52" y="365" width="64" height="14" rx="5" fill="#F7F7F7"/>
                <rect y="106" width="168" height="195" rx="5" fill="#F7F7F7"/>
                <rect x="192" y="320" width="134" height="14" rx="5" fill="#F7F7F7"/>
                <rect x="181" y="339" width="156" height="14" rx="5" fill="#F7F7F7"/>
                <rect x="227" y="365" width="64" height="14" rx="5" fill="#F7F7F7"/>
                <rect x="175" y="106" width="168" height="195" rx="5" fill="#F7F7F7"/>
                <rect x="17" y="625" width="134" height="14" rx="5" fill="#F7F7F7"/>
                <rect x="6" y="644" width="156" height="14" rx="5" fill="#F7F7F7"/>
                <rect x="52" y="670" width="64" height="14" rx="5" fill="#F7F7F7"/>
                <rect y="411" width="168" height="195" rx="5" fill="#F7F7F7"/>
                <rect x="192" y="625" width="134" height="14" rx="5" fill="#F7F7F7"/>
                <rect x="181" y="644" width="156" height="14" rx="5" fill="#F7F7F7"/>
                <rect x="227" y="670" width="64" height="14" rx="5" fill="#F7F7F7"/>
                <rect x="175" y="411" width="168" height="195" rx="5" fill="#F7F7F7"/>
                <rect x="17" y="930" width="134" height="14" rx="5" fill="#F7F7F7"/>
                <rect x="6" y="949" width="156" height="14" rx="5" fill="#F7F7F7"/>
                <rect x="52" y="975" width="64" height="14" rx="5" fill="#F7F7F7"/>
                <rect y="716" width="168" height="195" rx="5" fill="#F7F7F7"/>
                <rect x="192" y="930" width="134" height="14" rx="5" fill="#F7F7F7"/>
                <rect x="181" y="949" width="156" height="14" rx="5" fill="#F7F7F7"/>
                <rect x="227" y="975" width="64" height="14" rx="5" fill="#F7F7F7"/>
                <rect x="175" y="716" width="168" height="195" rx="5" fill="#F7F7F7"/>
                <rect x="17" y="1235" width="134" height="14" rx="5" fill="#F7F7F7"/>
                <rect x="6" y="1254" width="156" height="14" rx="5" fill="#F7F7F7"/>
                <rect x="52" y="1280" width="64" height="14" rx="5" fill="#F7F7F7"/>
                <rect y="1021" width="168" height="195" rx="5" fill="#F7F7F7"/>
                <rect x="192" y="1235" width="134" height="14" rx="5" fill="#F7F7F7"/>
                <rect x="181" y="1254" width="156" height="14" rx="5" fill="#F7F7F7"/>
                <rect x="227" y="1280" width="64" height="14" rx="5" fill="#F7F7F7"/>
                <rect x="175" y="1021" width="168" height="195" rx="5" fill="#F7F7F7"/>
                <rect x="17" y="1540" width="134" height="14" rx="5" fill="#F7F7F7"/>
                <rect x="6" y="1559" width="156" height="14" rx="5" fill="#F7F7F7"/>
                <rect x="52" y="1585" width="64" height="14" rx="5" fill="#F7F7F7"/>
                <rect y="1326" width="168" height="195" rx="5" fill="#F7F7F7"/>
                <rect x="192" y="1540" width="134" height="14" rx="5" fill="#F7F7F7"/>
                <rect x="181" y="1559" width="156" height="14" rx="5" fill="#F7F7F7"/>
                <rect x="227" y="1585" width="64" height="14" rx="5" fill="#F7F7F7"/>
                <rect x="175" y="1326" width="168" height="195" rx="5" fill="#F7F7F7"/>
                <rect x="17" y="1845" width="134" height="14" rx="5" fill="#F7F7F7"/>
                <rect x="6" y="1864" width="156" height="14" rx="5" fill="#F7F7F7"/>
                <rect x="52" y="1890" width="64" height="14" rx="5" fill="#F7F7F7"/>
                <rect y="1631" width="168" height="195" rx="5" fill="#F7F7F7"/>
                <rect x="192" y="1845" width="134" height="14" rx="5" fill="#F7F7F7"/>
                <rect x="181" y="1864" width="156" height="14" rx="5" fill="#F7F7F7"/>
                <rect x="227" y="1890" width="64" height="14" rx="5" fill="#F7F7F7"/>
                <rect x="175" y="1631" width="168" height="195" rx="5" fill="#F7F7F7"/>
                <rect x="17" y="2150" width="134" height="14" rx="5" fill="#F7F7F7"/>
                <rect x="6" y="2169" width="156" height="14" rx="5" fill="#F7F7F7"/>
                <rect x="52" y="2195" width="64" height="14" rx="5" fill="#F7F7F7"/>
                <rect y="1936" width="168" height="195" rx="5" fill="#F7F7F7"/>
                <rect x="192" y="2150" width="134" height="14" rx="5" fill="#F7F7F7"/>
                <rect x="181" y="2169" width="156" height="14" rx="5" fill="#F7F7F7"/>
                <rect x="227" y="2195" width="64" height="14" rx="5" fill="#F7F7F7"/>
                <rect x="175" y="1936" width="168" height="195" rx="5" fill="#F7F7F7"/>
                <rect x="27" y="2257" width="288" height="14" rx="5" fill="#F7F7F7"/>
            </clipPath><linearGradient id="cb59ner01oa"><stop offset="0.675228" stop-color="#f9f9f9"><animate attributeName="offset" values="-2; 1" dur="2s" repeatCount="indefinite"></animate></stop><stop offset="1.17523" stop-color="#ecebeb"><animate attributeName="offset" values="-1.5; 1.5" dur="2s" repeatCount="indefinite"></animate></stop><stop offset="1.67523" stop-color="#f9f9f9"><animate attributeName="offset" values="-1; 2" dur="2s" repeatCount="indefinite"></animate></stop></linearGradient></defs>
</svg>
