<svg width="1348" height="1896" viewBox="0 0 1348 1896" fill="none" xmlns="http://www.w3.org/2000/svg">
    <rect clip-path="url(#77fudlf7tbo)" x="0" y="0" width="1348" height="1896" style="fill: url(&quot;#cb59ner01oa&quot;);"></rect>
    <defs>
        <clipPath id="77fudlf7tbo">
<rect x="4" width="128" height="23" rx="5" fill="#F7F7F7"/>
<rect y="107" width="83" height="14" rx="5" fill="#F7F7F7"/>
<rect y="624" width="83" height="14" rx="5" fill="#F7F7F7"/>
<rect y="147" width="151" height="437" rx="5" fill="#F7F7F7"/>
<rect x="335" y="451" width="134" height="14" rx="5" fill="#F7F7F7"/>
<rect x="324" y="470" width="156" height="14" rx="5" fill="#F7F7F7"/>
<rect x="370" y="496" width="64" height="14" rx="5" fill="#F7F7F7"/>
<rect x="271" y="107" width="262" height="329" rx="5" fill="#F7F7F7"/>
<rect x="607" y="451" width="134" height="14" rx="5" fill="#F7F7F7"/>
<rect x="596" y="470" width="156" height="14" rx="5" fill="#F7F7F7"/>
<rect x="642" y="496" width="64" height="14" rx="5" fill="#F7F7F7"/>
<rect x="543" y="107" width="262" height="329" rx="5" fill="#F7F7F7"/>
<rect x="879" y="451" width="134" height="14" rx="5" fill="#F7F7F7"/>
<rect x="868" y="470" width="156" height="14" rx="5" fill="#F7F7F7"/>
<rect x="914" y="496" width="64" height="14" rx="5" fill="#F7F7F7"/>
<rect x="815" y="107" width="262" height="329" rx="5" fill="#F7F7F7"/>
<rect x="335" y="887" width="134" height="14" rx="5" fill="#F7F7F7"/>
<rect x="324" y="906" width="156" height="14" rx="5" fill="#F7F7F7"/>
<rect x="370" y="932" width="64" height="14" rx="5" fill="#F7F7F7"/>
<rect x="271" y="543" width="262" height="329" rx="5" fill="#F7F7F7"/>
<rect x="607" y="887" width="134" height="14" rx="5" fill="#F7F7F7"/>
<rect x="596" y="906" width="156" height="14" rx="5" fill="#F7F7F7"/>
<rect x="642" y="932" width="64" height="14" rx="5" fill="#F7F7F7"/>
<rect x="543" y="543" width="262" height="329" rx="5" fill="#F7F7F7"/>
<rect x="879" y="887" width="134" height="14" rx="5" fill="#F7F7F7"/>
<rect x="868" y="906" width="156" height="14" rx="5" fill="#F7F7F7"/>
<rect x="914" y="932" width="64" height="14" rx="5" fill="#F7F7F7"/>
<rect x="815" y="543" width="262" height="329" rx="5" fill="#F7F7F7"/>
<rect x="335" y="1323" width="134" height="14" rx="5" fill="#F7F7F7"/>
<rect x="324" y="1342" width="156" height="14" rx="5" fill="#F7F7F7"/>
<rect x="370" y="1368" width="64" height="14" rx="5" fill="#F7F7F7"/>
<rect x="271" y="979" width="262" height="329" rx="5" fill="#F7F7F7"/>
<rect x="607" y="1323" width="134" height="14" rx="5" fill="#F7F7F7"/>
<rect x="596" y="1342" width="156" height="14" rx="5" fill="#F7F7F7"/>
<rect x="642" y="1368" width="64" height="14" rx="5" fill="#F7F7F7"/>
<rect x="543" y="979" width="262" height="329" rx="5" fill="#F7F7F7"/>
<rect x="879" y="1323" width="134" height="14" rx="5" fill="#F7F7F7"/>
<rect x="868" y="1342" width="156" height="14" rx="5" fill="#F7F7F7"/>
<rect x="914" y="1368" width="64" height="14" rx="5" fill="#F7F7F7"/>
<rect x="815" y="979" width="262" height="329" rx="5" fill="#F7F7F7"/>
<rect x="1150" y="451" width="134" height="14" rx="5" fill="#F7F7F7"/>
<rect x="1139" y="470" width="156" height="14" rx="5" fill="#F7F7F7"/>
<rect x="1185" y="496" width="64" height="14" rx="5" fill="#F7F7F7"/>
<rect x="1086" y="107" width="262" height="329" rx="5" fill="#F7F7F7"/>
<rect x="1150" y="887" width="134" height="14" rx="5" fill="#F7F7F7"/>
<rect x="1139" y="906" width="156" height="14" rx="5" fill="#F7F7F7"/>
<rect x="1185" y="932" width="64" height="14" rx="5" fill="#F7F7F7"/>
<rect x="1086" y="543" width="262" height="329" rx="5" fill="#F7F7F7"/>
<rect x="1150" y="1323" width="134" height="14" rx="5" fill="#F7F7F7"/>
<rect x="1139" y="1342" width="156" height="14" rx="5" fill="#F7F7F7"/>
<rect x="1185" y="1368" width="64" height="14" rx="5" fill="#F7F7F7"/>
<rect x="1086" y="979" width="262" height="329" rx="5" fill="#F7F7F7"/>
<rect x="335" y="1759" width="134" height="14" rx="5" fill="#F7F7F7"/>
<rect x="324" y="1778" width="156" height="14" rx="5" fill="#F7F7F7"/>
<rect x="370" y="1804" width="64" height="14" rx="5" fill="#F7F7F7"/>
<rect x="271" y="1415" width="262" height="329" rx="5" fill="#F7F7F7"/>
<rect x="607" y="1759" width="134" height="14" rx="5" fill="#F7F7F7"/>
<rect x="596" y="1778" width="156" height="14" rx="5" fill="#F7F7F7"/>
<rect x="642" y="1804" width="64" height="14" rx="5" fill="#F7F7F7"/>
<rect x="543" y="1415" width="262" height="329" rx="5" fill="#F7F7F7"/>
<rect x="879" y="1759" width="134" height="14" rx="5" fill="#F7F7F7"/>
<rect x="868" y="1778" width="156" height="14" rx="5" fill="#F7F7F7"/>
<rect x="914" y="1804" width="64" height="14" rx="5" fill="#F7F7F7"/>
<rect x="815" y="1415" width="262" height="329" rx="5" fill="#F7F7F7"/>
<rect x="1150" y="1759" width="134" height="14" rx="5" fill="#F7F7F7"/>
<rect x="1139" y="1778" width="156" height="14" rx="5" fill="#F7F7F7"/>
<rect x="1185" y="1804" width="64" height="14" rx="5" fill="#F7F7F7"/>
<rect x="1086" y="1415" width="262" height="329" rx="5" fill="#F7F7F7"/>
<rect y="664" width="151" height="293" rx="5" fill="#F7F7F7"/>
<rect y="997" width="83" height="14" rx="5" fill="#F7F7F7"/>
<rect y="1037" width="151" height="183" rx="5" fill="#F7F7F7"/>
<rect y="1260" width="83" height="14" rx="5" fill="#F7F7F7"/>
<rect y="1300" width="151" height="67" rx="5" fill="#F7F7F7"/>
<rect y="1410" width="83" height="14" rx="5" fill="#F7F7F7"/>
<rect x="588" y="1882" width="288" height="14" rx="5" fill="#F7F7F7"/>
<rect x="916" y="1882" width="20" height="14" rx="5" fill="#F7F7F7"/>
<rect x="976" y="1882" width="56" height="14" rx="5" fill="#F7F7F7"/>
<rect y="1450" width="151" height="67" rx="5" fill="#F7F7F7"/>
<rect x="4" y="43" width="156" height="14" rx="5" fill="#F7F7F7"/>
<rect x="1143" y="43" width="66" height="14" rx="5" fill="#F7F7F7"/>
<rect x="1265" y="43" width="76" height="14" rx="5" fill="#F7F7F7"/>
</clipPath><linearGradient id="cb59ner01oa"><stop offset="0.675228" stop-color="#f9f9f9"><animate attributeName="offset" values="-2; 1" dur="2s" repeatCount="indefinite"></animate></stop><stop offset="1.17523" stop-color="#ecebeb"><animate attributeName="offset" values="-1.5; 1.5" dur="2s" repeatCount="indefinite"></animate></stop><stop offset="1.67523" stop-color="#f9f9f9"><animate attributeName="offset" values="-1; 2" dur="2s" repeatCount="indefinite"></animate></stop></linearGradient></defs></svg>
