<svg width="10" height="11" viewBox="0 0 10 11" fill="none" xmlns="http://www.w3.org/2000/svg">
<path d="M4.98039 10.9776C3.70981 10.9707 2.55773 10.6829 1.54054 10.099C0.944441 9.75673 0.448606 9.34044 0.0585014 8.85151C-0.0107696 8.7649 -0.0198842 8.68248 0.0384492 8.58749C0.46319 7.90439 1.13402 7.42245 2.05642 7.15424C2.28976 7.08579 2.54132 7.05366 2.78559 7.00895C2.94783 6.97962 3.09002 7.02572 3.21945 7.09836C3.54393 7.27717 3.90122 7.40289 4.29132 7.46855C5.16632 7.61802 5.98117 7.50626 6.72674 7.1235C6.91815 7.02432 7.10591 6.99079 7.3356 7.02572C8.25253 7.16262 8.99446 7.51325 9.55592 8.0832C9.71269 8.24105 9.82935 8.42265 9.96243 8.59448C10.0208 8.66991 10.008 8.73976 9.94602 8.81659C9.46842 9.41727 8.8468 9.91179 8.07571 10.2918C7.4705 10.5907 6.8106 10.7974 6.09966 10.8924C5.72961 10.9413 5.35409 10.9651 4.98039 11C4.98221 10.9902 4.98221 10.9832 4.98039 10.9776Z" fill="white"/>
<path d="M4.99805 6C3.35592 5.98875 2.00945 4.67292 2.00003 3.00283C1.9925 1.3646 3.3465 0.00752888 4.9924 3.12626e-05C6.62889 -0.00746636 7.98289 1.33461 7.99984 2.97846C8.01679 4.62981 6.66655 5.98875 4.99805 6Z" fill="white"/>
</svg>
