<svg width="92" height="11" viewBox="0 0 92 11" fill="none" xmlns="http://www.w3.org/2000/svg">
<path d="M3.02722 1.34239L1.38348 1.34239L1.38348 2.28754C1.38348 2.89024 1.05473 3.35597 0.342445 3.35597H0L0 4.97231H1.21911L1.21911 8.10911C1.21911 9.4104 2.04097 10.1912 3.35597 10.1912C3.89018 10.1912 4.21893 10.0953 4.3833 10.0268V8.52004C4.28742 8.54744 4.04086 8.57483 3.82169 8.57483C3.30117 8.57483 3.02722 8.38306 3.02722 7.79406L3.02722 4.97231H4.3833V3.35597L3.02722 3.35597L3.02722 1.34239Z" fill="white" fill-opacity="0.6"/>
<path d="M7.41823 6.13662C7.45932 5.39694 7.91135 4.82163 8.67842 4.82163C9.55509 4.82163 9.92493 5.41064 9.92493 6.16402V10.0953H11.7467V5.84897C11.7467 4.3696 10.9523 3.17789 9.24004 3.17789C8.59624 3.17789 7.85656 3.39706 7.41823 3.91758L7.41823 0.178072L5.59642 0.178072L5.59642 10.0953H7.41823L7.41823 6.13662Z" fill="white" fill-opacity="0.6"/>
<path d="M14.9244 5.95855C14.9655 5.34215 15.486 4.62986 16.4312 4.62986C17.4722 4.62986 17.9105 5.28736 17.9379 5.95855H14.9244ZM18.116 7.71187C17.8968 8.31457 17.4311 8.73921 16.5819 8.73921C15.6778 8.73921 14.9244 8.09541 14.8833 7.20505L19.705 7.20505C19.705 7.17766 19.7324 6.9037 19.7324 6.64344C19.7324 4.47919 18.4858 3.1505 16.4038 3.1505C14.6779 3.1505 13.0889 4.54768 13.0889 6.69823C13.0889 8.97207 14.7189 10.3008 16.5682 10.3008C18.2256 10.3008 19.294 9.32821 19.6365 8.1639L18.116 7.71187Z" fill="white" fill-opacity="0.6"/>
<path d="M26.0434 4.91752V10.0953L27.8515 10.0953V3.35597L23.3449 3.35597V2.61628C23.3449 1.8629 23.8928 1.68483 24.2901 1.68483C24.5914 1.68483 24.7695 1.72593 24.8654 1.75332V0.219165C24.7147 0.150676 24.3449 0.0821873 23.9613 0.0821873C22.4683 0.0821873 21.5094 1.06843 21.5094 2.58889V3.35597L20.3862 3.35597V4.91752H21.5094V10.0953H23.3449V4.91752L26.0434 4.91752ZM25.8242 1.13692C25.8242 1.75332 26.3311 2.24644 26.9475 2.24644C27.5639 2.24644 28.0707 1.75332 28.0707 1.13692C28.0707 0.506819 27.5639 0 26.9475 0C26.3311 0 25.8242 0.506819 25.8242 1.13692Z" fill="white" fill-opacity="0.6"/>
<path d="M33.9177 3.32857C33.7807 3.31487 33.6438 3.30117 33.4931 3.30117C32.9178 3.30117 31.9863 3.46555 31.5754 4.35591V3.35597H29.8084V10.0953H31.6302V7.01328C31.6302 5.56131 32.4384 5.10929 33.3698 5.10929C33.5342 5.10929 33.7123 5.12298 33.9177 5.16408V3.32857Z" fill="white" fill-opacity="0.6"/>
<path d="M34.664 8.21869C34.7462 8.98577 35.4448 10.3008 37.4721 10.3008C39.2391 10.3008 40.0884 9.17754 40.0884 8.08171C40.0884 7.09547 39.4172 6.2873 38.0885 6.01334L37.1297 5.80787C36.7598 5.73939 36.5132 5.53392 36.5132 5.20517C36.5132 4.82163 36.8968 4.53398 37.3762 4.53398C38.1433 4.53398 38.4309 5.0408 38.4857 5.43803L40.0062 5.09559C39.924 4.3696 39.2802 3.1505 37.3625 3.1505C35.9105 3.1505 34.8421 4.15044 34.8421 5.35585C34.8421 6.301 35.4311 7.08177 36.7324 7.36942L37.6228 7.57489C38.1433 7.68448 38.3488 7.93104 38.3488 8.23239C38.3488 8.58853 38.0611 8.90358 37.4584 8.90358C36.6639 8.90358 36.2667 8.41046 36.2256 7.87624L34.664 8.21869Z" fill="white" fill-opacity="0.6"/>
<path d="M43.7996 1.34239L42.1559 1.34239V2.28754C42.1559 2.89024 41.8271 3.35597 41.1149 3.35597H40.7724V4.97231L41.9915 4.97231V8.10911C41.9915 9.4104 42.8134 10.1912 44.1284 10.1912C44.6626 10.1912 44.9913 10.0953 45.1557 10.0268V8.52004C45.0598 8.54744 44.8133 8.57483 44.5941 8.57483C44.0736 8.57483 43.7996 8.38306 43.7996 7.79406V4.97231H45.1557V3.35597H43.7996V1.34239Z" fill="white" fill-opacity="0.6"/>
<path d="M48.9096 1.34239L47.2658 1.34239V2.28754C47.2658 2.89024 46.9371 3.35597 46.2248 3.35597H45.8823V4.97231L47.1014 4.97231V8.10911C47.1014 9.4104 47.9233 10.1912 49.2383 10.1912C49.7725 10.1912 50.1013 10.0953 50.2656 10.0268V8.52004C50.1698 8.54744 49.9232 8.57483 49.704 8.57483C49.1835 8.57483 48.9096 8.38306 48.9096 7.79406V4.97231H50.2656V3.35597H48.9096V1.34239Z" fill="white" fill-opacity="0.6"/>
<path d="M53.3006 6.13662C53.3417 5.39694 53.7937 4.82163 54.5608 4.82163C55.4374 4.82163 55.8073 5.41064 55.8073 6.16402V10.0953H57.6291V5.84897C57.6291 4.3696 56.8346 3.17789 55.1224 3.17789C54.4786 3.17789 53.7389 3.39706 53.3006 3.91758V0.178072L51.4788 0.178072V10.0953H53.3006V6.13662Z" fill="white" fill-opacity="0.6"/>
<path d="M60.8068 5.95855C60.8479 5.34215 61.3684 4.62986 62.3135 4.62986C63.3545 4.62986 63.7929 5.28736 63.8203 5.95855L60.8068 5.95855ZM63.9983 7.71187C63.7792 8.31457 63.3135 8.73921 62.4642 8.73921C61.5601 8.73921 60.8068 8.09541 60.7657 7.20505L65.5873 7.20505C65.5873 7.17766 65.6147 6.9037 65.6147 6.64344C65.6147 4.47919 64.3682 3.1505 62.2861 3.1505C60.5602 3.1505 58.9712 4.54768 58.9712 6.69823C58.9712 8.97207 60.6013 10.3008 62.4505 10.3008C64.1079 10.3008 65.1764 9.32821 65.5188 8.1639L63.9983 7.71187Z" fill="white" fill-opacity="0.6"/>
<path d="M68.8711 10.0953V0.178072L67.0493 0.178072V10.0953H68.8711Z" fill="white" fill-opacity="0.6"/>
<path d="M70.3705 8.25978C70.3705 9.31452 71.2472 10.2871 72.6854 10.2871C73.6854 10.2871 74.3292 9.82133 74.6716 9.28712C74.6716 9.54738 74.699 9.91722 74.7401 10.0953H76.4112C76.3702 9.86243 76.3291 9.38301 76.3291 9.02686V5.71199C76.3291 4.35591 75.5346 3.1505 73.3977 3.1505C71.5896 3.1505 70.6171 4.31481 70.5075 5.36954L72.1238 5.71199C72.1786 5.12298 72.617 4.61616 73.4114 4.61616C74.1785 4.61616 74.5483 5.0134 74.5483 5.49283C74.5483 5.72569 74.4251 5.91746 74.0415 5.97225L72.3841 6.21881C71.2609 6.38318 70.3705 7.05438 70.3705 8.25978ZM73.069 8.93098C72.48 8.93098 72.1923 8.54744 72.1923 8.1502C72.1923 7.62968 72.5622 7.36943 73.0279 7.30094L74.5483 7.06807V7.36942C74.5483 8.56114 73.8361 8.93098 73.069 8.93098Z" fill="white" fill-opacity="0.6"/>
<path d="M77.5901 8.21869C77.6723 8.98577 78.3709 10.3008 80.3982 10.3008C82.1652 10.3008 83.0145 9.17754 83.0145 8.08171C83.0145 7.09547 82.3433 6.2873 81.0146 6.01334L80.0557 5.80787C79.6859 5.73939 79.4393 5.53392 79.4393 5.20517C79.4393 4.82163 79.8229 4.53398 80.3023 4.53398C81.0694 4.53398 81.357 5.0408 81.4118 5.43803L82.9323 5.09559C82.8501 4.3696 82.2063 3.1505 80.2886 3.1505C78.8366 3.1505 77.7682 4.15044 77.7682 5.35585C77.7682 6.301 78.3572 7.08177 79.6585 7.36942L80.5488 7.57489C81.0694 7.68448 81.2748 7.93104 81.2748 8.23239C81.2748 8.58853 80.9872 8.90358 80.3845 8.90358C79.59 8.90358 79.1928 8.41046 79.1517 7.87624L77.5901 8.21869Z" fill="white" fill-opacity="0.6"/>
<path d="M86.7257 1.34239L85.082 1.34239V2.28754C85.082 2.89024 84.7532 3.35597 84.0409 3.35597H83.6985V4.97231H84.9176V8.10911C84.9176 9.4104 85.7395 10.1912 87.0545 10.1912C87.5887 10.1912 87.9174 10.0953 88.0818 10.0268V8.52004C87.9859 8.54744 87.7393 8.57483 87.5202 8.57483C86.9997 8.57483 86.7257 8.38306 86.7257 7.79406V4.97231H88.0818V3.35597L86.7257 3.35597V1.34239Z" fill="white" fill-opacity="0.6"/>
<path d="M89.4933 8.94467C89.4933 9.62957 90.0549 10.1912 90.7398 10.1912C91.4384 10.1912 92 9.62957 92 8.94467C92 8.25978 91.4384 7.69817 90.7398 7.69817C90.0549 7.69817 89.4933 8.25978 89.4933 8.94467Z" fill="white" fill-opacity="0.6"/>
</svg>
