<svg width="1123" height="607" viewBox="0 0 1123 607" fill="none" xmlns="http://www.w3.org/2000/svg">
    <rect clip-path="url(#77fudlf7tbo)" x="0" y="0" width="1123" height="607" style="fill: url(&quot;#cb59ner01oa&quot;);"></rect>
        <defs>
            <clipPath id="77fudlf7tbo">
                <rect x="227" y="4" width="160" height="23" rx="5" fill="#F7F7F7"/>
                <rect width="64" height="19" rx="5" fill="#F7F7F7"/>
                <rect y="29" width="64" height="19" rx="5" fill="#F7F7F7"/>
                <rect x="227" y="64" width="123" height="160" rx="5" fill="#F7F7F7"/>
                <rect x="375" y="82" width="53" height="16" rx="5" fill="#F7F7F7"/>
                <rect x="375" y="131" width="105" height="16" rx="5" fill="#F7F7F7"/>
                <rect x="375" y="149" width="78" height="16" rx="5" fill="#F7F7F7"/>
                <rect x="375" y="194" width="83" height="17" rx="5" fill="#F7F7F7"/>
                <rect x="938" y="194" width="28" height="17" rx="5" fill="#F7F7F7"/>
                <rect x="1000" y="194" width="123" height="17" rx="5" fill="#F7F7F7"/>
                <rect x="1070" y="101" width="53" height="17" rx="5" fill="#F7F7F7"/>
                <rect x="1070" y="82" width="53" height="16" rx="5" fill="#F7F7F7"/>
                <rect x="375" y="101" width="156" height="16" rx="5" fill="#F7F7F7"/>
                <rect x="227" y="249" width="123" height="160" rx="5" fill="#F7F7F7"/>
                <rect x="375" y="267" width="53" height="16" rx="5" fill="#F7F7F7"/>
                <rect x="375" y="316" width="105" height="16" rx="5" fill="#F7F7F7"/>
                <rect x="375" y="334" width="78" height="16" rx="5" fill="#F7F7F7"/>
                <rect x="375" y="379" width="83" height="17" rx="5" fill="#F7F7F7"/>
                <rect x="938" y="379" width="28" height="17" rx="5" fill="#F7F7F7"/>
                <rect x="1000" y="379" width="123" height="17" rx="5" fill="#F7F7F7"/>
                <rect x="1070" y="286" width="53" height="17" rx="5" fill="#F7F7F7"/>
                <rect x="1070" y="267" width="53" height="16" rx="5" fill="#F7F7F7"/>
                <rect x="375" y="286" width="156" height="16" rx="5" fill="#F7F7F7"/>
                <rect x="227" y="434" width="123" height="160" rx="5" fill="#F7F7F7"/>
                <rect x="375" y="452" width="53" height="16" rx="5" fill="#F7F7F7"/>
                <rect x="375" y="501" width="105" height="16" rx="5" fill="#F7F7F7"/>
                <rect x="375" y="519" width="78" height="16" rx="5" fill="#F7F7F7"/>
                <rect x="375" y="564" width="83" height="17" rx="5" fill="#F7F7F7"/>
                <rect x="938" y="564" width="28" height="17" rx="5" fill="#F7F7F7"/>
                <rect x="1000" y="564" width="123" height="17" rx="5" fill="#F7F7F7"/>
                <rect x="1070" y="471" width="53" height="17" rx="5" fill="#F7F7F7"/>
                <rect x="1070" y="452" width="53" height="16" rx="5" fill="#F7F7F7"/>
                <rect x="375" y="471" width="156" height="16" rx="5" fill="#F7F7F7"/>
                <rect y="57" width="64" height="19" rx="5" fill="#F7F7F7"/>
                <rect opacity="0.4" x="232" y="51" width="888" height="1" fill="#D6D6D6"/>
                <rect opacity="0.2" x="232" y="236" width="887" height="1" fill="#00000B" fill-opacity="0.32"/>
                <rect opacity="0.2" x="232" y="421" width="887" height="1" fill="#00000B" fill-opacity="0.32"/>
                <rect opacity="0.2" x="232" y="606" width="887" height="1" fill="#00000B" fill-opacity="0.32"/>
            </clipPath><linearGradient id="cb59ner01oa"><stop offset="0.675228" stop-color="#f9f9f9"><animate attributeName="offset" values="-2; 1" dur="2s" repeatCount="indefinite"></animate></stop><stop offset="1.17523" stop-color="#ecebeb"><animate attributeName="offset" values="-1.5; 1.5" dur="2s" repeatCount="indefinite"></animate></stop><stop offset="1.67523" stop-color="#f9f9f9"><animate attributeName="offset" values="-1; 2" dur="2s" repeatCount="indefinite"></animate></stop></linearGradient></defs>
</svg>
