<svg width="13" height="15" viewBox="0 0 13 15" fill="none" xmlns="http://www.w3.org/2000/svg">
<path d="M0.00248556 12.9663L0.888936 3.29448C0.907931 3.07975 1.09472 2.91718 1.31317 2.91718H3.13672C3.16205 1.30368 4.52338 0 6.19497 0C7.86656 0 9.2279 1.30368 9.25323 2.91718H11.0768C11.2984 2.91718 11.482 3.07975 11.501 3.29448L12.3875 12.9663C12.3875 12.9785 12.3906 12.9908 12.3906 13.0031C12.3906 14.1043 11.349 15 10.0669 15H2.32309C1.0409 15 -0.000680521 14.1043 -0.000680521 13.0031C-0.000680521 12.9908 -0.000680328 12.9785 0.00248556 12.9663ZM6.19497 0.828221C4.9951 0.828221 4.01684 1.76074 3.99151 2.91718H8.39843C8.37311 1.76074 7.39485 0.828221 6.19497 0.828221ZM2.32309 14.1718H10.0669C10.871 14.1718 11.5232 13.6564 11.5358 13.0215L10.6874 3.74847H9.25639V5.00613C9.25639 5.2362 9.06644 5.42025 8.829 5.42025C8.59155 5.42025 8.4016 5.2362 8.4016 5.00613V3.74847H3.99151V5.00613C3.99151 5.2362 3.80156 5.42025 3.56412 5.42025C3.32667 5.42025 3.13672 5.2362 3.13672 5.00613V3.74847H1.70574L0.854111 13.0215C0.866774 13.6564 1.52211 14.1718 2.32309 14.1718Z" fill="#0f0f0f" fill-opacity="0.5"/>
</svg>
