<svg width="12" height="11" viewBox="0 0 12 11" fill="none" xmlns="http://www.w3.org/2000/svg">
<path opacity="0.5" d="M11.25 2.92277H8.877C9.04725 2.80895 9.1935 2.69587 9.2955 2.59454C9.9 1.99902 9.9 1.02976 9.2955 0.434243C8.70825 -0.144381 7.68375 -0.145115 7.09575 0.434243C6.771 0.753661 5.90775 2.0541 6.027 2.92277H5.973C6.0915 2.0541 5.229 0.753661 4.90425 0.434243C4.31625 -0.145115 3.29175 -0.144381 2.7045 0.434243C2.1 1.02976 2.1 1.99902 2.70375 2.59454C2.8065 2.69587 2.95275 2.80895 3.123 2.92277H0.75C0.33675 2.92277 0 3.25246 0 3.65706V5.49279C0 5.69546 0.168 5.85994 0.375 5.85994H0.75V10.2657C0.75 10.6703 1.08675 11 1.5 11H10.5C10.9132 11 11.25 10.6703 11.25 10.2657V5.85994H11.625C11.832 5.85994 12 5.69546 12 5.49279V3.65706C12 3.25246 11.6632 2.92277 11.25 2.92277ZM3.23625 0.95192C3.3885 0.802124 3.59025 0.719884 3.80475 0.719884C4.0185 0.719884 4.22025 0.802124 4.3725 0.95192C4.878 1.44977 5.3805 2.72157 5.20575 2.89853C5.20575 2.89853 5.17425 2.92277 5.067 2.92277C4.54875 2.92277 3.5595 2.39554 3.23625 2.07686C2.922 1.76699 2.922 1.26179 3.23625 0.95192ZM5.625 10.2657H1.5V5.85994H5.625V10.2657ZM5.625 5.12565H0.75V3.65706H5.067H5.625V5.12565ZM7.6275 0.95192C7.932 0.653063 8.46 0.653797 8.76375 0.95192C9.078 1.26179 9.078 1.76699 8.76375 2.07686C8.4405 2.39554 7.45125 2.92277 6.933 2.92277C6.82575 2.92277 6.79425 2.89927 6.7935 2.89853C6.6195 2.72157 7.122 1.44977 7.6275 0.95192ZM10.5 10.2657H6.375V5.85994H10.5V10.2657ZM11.25 5.12565H6.375V3.65706H6.933H11.25V5.12565Z" fill="#0f0f0f"/>
</svg>
