<svg width="18" height="10" viewBox="0 0 18 10" fill="none" xmlns="http://www.w3.org/2000/svg">
<path d="M0.237774 5.00638C0.129373 2.42853 2.6293 0.0462849 5.48626 0.0153775C6.94238 -0.0967969 8.35902 0.413932 9.46097 1.24692C9.00894 1.69583 8.54902 2.13956 8.05774 2.55497C7.08763 2.02263 5.91963 1.61694 4.78584 1.97724C2.95714 2.44755 1.84967 4.39775 2.5264 6.01358C3.08684 7.70116 5.35943 8.62731 7.14052 7.91838C8.06277 7.62011 8.67082 6.85154 8.93763 6.02568C7.88066 6.00666 6.82345 6.01855 5.76648 5.99218C5.76385 5.42417 5.76121 4.85833 5.76385 4.29033C7.5265 4.28795 9.29179 4.28319 11.0571 4.29746C11.1655 5.68916 10.9382 7.17855 9.93646 8.29554C8.56481 9.88997 6.03066 10.3579 3.96912 9.73241C1.78124 9.08335 0.190154 7.09253 0.237774 5.00638Z" fill="#414752"/>
<path d="M14.4922 2.85791C15.0155 2.85791 15.5386 2.85791 16.0643 2.85791C16.0672 3.33298 16.0722 3.81042 16.0751 4.28527C16.6008 4.29003 17.1294 4.2924 17.6554 4.29478C17.6554 4.76985 17.6554 5.24232 17.6554 5.71739C17.1297 5.71976 16.6011 5.72214 16.0751 5.72452C16.0698 6.20196 16.0672 6.67681 16.0643 7.15426C15.5386 7.15188 15.0124 7.15426 14.4893 7.15426C14.4843 6.67681 14.4843 6.20196 14.4787 5.7269C13.953 5.72193 13.4244 5.71976 12.8984 5.71717C12.8984 5.2421 12.8984 4.76963 12.8984 4.29456C13.4244 4.29219 13.9504 4.28981 14.4787 4.28505C14.4814 3.81042 14.4866 3.33298 14.4922 2.85791Z" fill="#414752"/>
</svg>
