<svg width="343" height="946" viewBox="0 0 343 946" fill="none" xmlns="http://www.w3.org/2000/svg">
 <rect clip-path="url(#77fudlf7tbo)" x="0" y="0" width="343" height="946" style="fill: url(&quot;#cb59ner01oa&quot;);"></rect>
        <defs>
            <clipPath id="77fudlf7tbo">
<rect width="160" height="23" rx="5" fill="#F7F7F7"/>
<rect y="341" width="160" height="22" rx="5" fill="#F7F7F7"/>
<rect x="323" y="5" width="20" height="13" rx="5" fill="#F7F7F7"/>
<rect y="99" width="67" height="15" rx="5" fill="#F7F7F7"/>
<rect y="117" width="76" height="17" rx="5" fill="#F7F7F7"/>
<rect opacity="0.4" y="139" width="343" height="1" fill="#D6D6D6"/>
<rect y="154" width="67" height="15" rx="5" fill="#F7F7F7"/>
<rect y="172" width="76" height="17" rx="5" fill="#F7F7F7"/>
<rect opacity="0.4" y="194" width="343" height="1" fill="#D6D6D6"/>
<rect y="209" width="67" height="15" rx="5" fill="#F7F7F7"/>
<rect y="227" width="76" height="17" rx="5" fill="#F7F7F7"/>
<rect opacity="0.4" y="249" width="343" height="1" fill="#D6D6D6"/>
<rect y="280" width="67" height="15" rx="5" fill="#F7F7F7"/>
<rect y="298" width="76" height="17" rx="5" fill="#F7F7F7"/>
<rect opacity="0.4" y="320" width="343" height="1" fill="#D6D6D6"/>
<rect y="436" width="67" height="15" rx="5" fill="#F7F7F7"/>
<rect y="454" width="76" height="17" rx="5" fill="#F7F7F7"/>
<rect opacity="0.4" y="476" width="343" height="1" fill="#D6D6D6"/>
<rect y="491" width="67" height="15" rx="5" fill="#F7F7F7"/>
<rect y="509" width="76" height="17" rx="5" fill="#F7F7F7"/>
<rect opacity="0.4" y="531" width="343" height="1" fill="#D6D6D6"/>
<rect y="564" width="67" height="15" rx="5" fill="#F7F7F7"/>
<rect y="582" width="76" height="17" rx="5" fill="#F7F7F7"/>
<rect opacity="0.4" y="604" width="343" height="1" fill="#D6D6D6"/>
<rect y="637" width="67" height="15" rx="5" fill="#F7F7F7"/>
<rect y="655" width="76" height="17" rx="5" fill="#F7F7F7"/>
<rect opacity="0.4" y="677" width="343" height="1" fill="#D6D6D6"/>
<rect y="67" width="98" height="16" rx="5" fill="#F7F7F7"/>
<rect y="404" width="141" height="16" rx="5" fill="#F7F7F7"/>
<rect y="748" width="67" height="15" rx="5" fill="#F7F7F7"/>
<rect y="766" width="76" height="17" rx="5" fill="#F7F7F7"/>
<rect opacity="0.4" y="788" width="343" height="1" fill="#D6D6D6"/>
<rect y="716" width="141" height="16" rx="5" fill="#F7F7F7"/>
<rect y="867" width="67" height="15" rx="5" fill="#F7F7F7"/>
<rect y="885" width="76" height="17" rx="5" fill="#F7F7F7"/>
<rect opacity="0.4" y="907" width="343" height="1" fill="#D6D6D6"/>
<rect y="835" width="141" height="16" rx="5" fill="#F7F7F7"/>
<rect y="931" width="111" height="15" rx="5" fill="#F7F7F7"/>
</clipPath><linearGradient id="cb59ner01oa"><stop offset="0.675228" stop-color="#f9f9f9"><animate attributeName="offset" values="-2; 1" dur="2s" repeatCount="indefinite"></animate></stop><stop offset="1.17523" stop-color="#ecebeb"><animate attributeName="offset" values="-1.5; 1.5" dur="2s" repeatCount="indefinite"></animate></stop><stop offset="1.67523" stop-color="#f9f9f9"><animate attributeName="offset" values="-1; 2" dur="2s" repeatCount="indefinite"></animate></stop></linearGradient></defs>
</svg>
