<svg width="1120" height="500" viewBox="0 0 1120 500" fill="none" xmlns="http://www.w3.org/2000/svg">
    <rect clip-path="url(#77fudlf7tbo)" x="0" y="0" width="1120" height="500" style="fill: url(&quot;#cb59ner01oa&quot;);"></rect>
        <defs>
            <clipPath id="77fudlf7tbo">
                <rect x="227" y="4" width="160" height="23" rx="5" fill="#F7F7F7"/>
                <rect x="227" y="74" width="98" height="16" rx="5" fill="#F7F7F7"/>
                <rect x="227" y="372" width="149" height="16" rx="5" fill="#F7F7F7"/>
                <rect x="571" y="304" width="111" height="15" rx="5" fill="#F7F7F7"/>
                <rect x="227" y="106" width="67" height="15" rx="5" fill="#F7F7F7"/>
                <rect x="227" y="124" width="76" height="17" rx="5" fill="#F7F7F7"/>
                <rect opacity="0.4" x="227" y="146" width="323" height="1" fill="#D6D6D6"/>
                <rect x="227" y="161" width="67" height="15" rx="5" fill="#F7F7F7"/>
                <rect x="227" y="179" width="76" height="17" rx="5" fill="#F7F7F7"/>
                <rect opacity="0.4" x="227" y="201" width="323" height="1" fill="#D6D6D6"/>
                <rect x="575" y="106" width="67" height="15" rx="5" fill="#F7F7F7"/>
                <rect x="575" y="124" width="76" height="17" rx="5" fill="#F7F7F7"/>
                <rect opacity="0.4" x="575" y="146" width="323" height="1" fill="#D6D6D6"/>
                <rect x="575" y="161" width="67" height="15" rx="5" fill="#F7F7F7"/>
                <rect x="575" y="179" width="76" height="17" rx="5" fill="#F7F7F7"/>
                <rect opacity="0.4" x="575" y="201" width="323" height="1" fill="#D6D6D6"/>
                <rect x="227" y="285" width="67" height="15" rx="5" fill="#F7F7F7"/>
                <rect x="227" y="303" width="76" height="17" rx="5" fill="#F7F7F7"/>
                <rect opacity="0.4" x="227" y="325" width="323" height="1" fill="#D6D6D6"/>
                <rect x="227" y="403" width="67" height="15" rx="5" fill="#F7F7F7"/>
                <rect x="227" y="421" width="76" height="17" rx="5" fill="#F7F7F7"/>
                <rect opacity="0.4" x="227" y="443" width="323" height="1" fill="#D6D6D6"/>
                <rect x="227" y="459" width="67" height="15" rx="5" fill="#F7F7F7"/>
                <rect x="227" y="477" width="76" height="17" rx="5" fill="#F7F7F7"/>
                <rect opacity="0.4" x="227" y="499" width="323" height="1" fill="#D6D6D6"/>
                <rect x="575" y="403" width="67" height="15" rx="5" fill="#F7F7F7"/>
                <rect x="575" y="421" width="76" height="17" rx="5" fill="#F7F7F7"/>
                <rect opacity="0.4" x="575" y="443" width="323" height="1" fill="#D6D6D6"/>
                <rect x="575" y="459" width="67" height="15" rx="5" fill="#F7F7F7"/>
                <rect x="575" y="477" width="76" height="17" rx="5" fill="#F7F7F7"/>
                <rect opacity="0.4" x="575" y="499" width="323" height="1" fill="#D6D6D6"/>
                <rect width="64" height="19" rx="5" fill="#F7F7F7"/>
                <rect y="29" width="64" height="19" rx="5" fill="#F7F7F7"/>
                <rect y="57" width="64" height="19" rx="5" fill="#F7F7F7"/>
                <rect opacity="0.4" x="232" y="51" width="888" height="1" fill="#D6D6D6"/>
            </clipPath><linearGradient id="cb59ner01oa"><stop offset="0.675228" stop-color="#f9f9f9"><animate attributeName="offset" values="-2; 1" dur="2s" repeatCount="indefinite"></animate></stop><stop offset="1.17523" stop-color="#ecebeb"><animate attributeName="offset" values="-1.5; 1.5" dur="2s" repeatCount="indefinite"></animate></stop><stop offset="1.67523" stop-color="#f9f9f9"><animate attributeName="offset" values="-1; 2" dur="2s" repeatCount="indefinite"></animate></stop></linearGradient></defs>
</svg>
