<svg width="704" height="888" viewBox="0 0 704 888" fill="none" xmlns="http://www.w3.org/2000/svg">
 <rect clip-path="url(#77fudlf7tbo)" x="0" y="0" width="704" height="888" style="fill: url(&quot;#cb59ner01oa&quot;);"></rect>
        <defs>
            <clipPath id="77fudlf7tbo">
<rect width="160" height="23" rx="5" fill="#F7F7F7"/>
<rect x="684" y="5" width="20" height="13" rx="5" fill="#F7F7F7"/>
<rect x="303" y="69" width="98" height="16" rx="5" fill="#F7F7F7"/>
<rect x="278" y="390" width="149" height="16" rx="5" fill="#F7F7F7"/>
<rect x="273" y="331" width="159" height="16" rx="5" fill="#F7F7F7"/>
<rect x="293" y="666" width="118" height="16" rx="5" fill="#F7F7F7"/>
<rect x="287" y="777" width="131" height="16" rx="5" fill="#F7F7F7"/>
<rect x="187" y="101" width="67" height="15" rx="5" fill="#F7F7F7"/>
<rect x="187" y="119" width="76" height="17" rx="5" fill="#F7F7F7"/>
<rect opacity="0.4" x="187" y="141" width="330" height="1" fill="#D6D6D6"/>
<rect x="187" y="156" width="67" height="15" rx="5" fill="#F7F7F7"/>
<rect x="187" y="174" width="76" height="17" rx="5" fill="#F7F7F7"/>
<rect opacity="0.4" x="187" y="196" width="330" height="1" fill="#D6D6D6"/>
<rect x="187" y="211" width="67" height="15" rx="5" fill="#F7F7F7"/>
<rect x="187" y="229" width="76" height="17" rx="5" fill="#F7F7F7"/>
<rect opacity="0.4" x="187" y="251" width="330" height="1" fill="#D6D6D6"/>
<rect x="187" y="266" width="67" height="15" rx="5" fill="#F7F7F7"/>
<rect x="187" y="284" width="76" height="17" rx="5" fill="#F7F7F7"/>
<rect opacity="0.4" x="187" y="306" width="330" height="1" fill="#D6D6D6"/>
<rect x="187" y="422" width="67" height="15" rx="5" fill="#F7F7F7"/>
<rect x="187" y="440" width="76" height="17" rx="5" fill="#F7F7F7"/>
<rect opacity="0.4" x="187" y="462" width="330" height="1" fill="#D6D6D6"/>
<rect x="187" y="477" width="67" height="15" rx="5" fill="#F7F7F7"/>
<rect x="187" y="495" width="76" height="17" rx="5" fill="#F7F7F7"/>
<rect opacity="0.4" x="187" y="517" width="330" height="1" fill="#D6D6D6"/>
<rect x="187" y="532" width="67" height="15" rx="5" fill="#F7F7F7"/>
<rect x="187" y="550" width="76" height="17" rx="5" fill="#F7F7F7"/>
<rect opacity="0.4" x="187" y="572" width="330" height="1" fill="#D6D6D6"/>
<rect x="187" y="587" width="67" height="15" rx="5" fill="#F7F7F7"/>
<rect x="187" y="605" width="76" height="17" rx="5" fill="#F7F7F7"/>
<rect opacity="0.4" x="187" y="627" width="330" height="1" fill="#D6D6D6"/>
<rect x="187" y="698" width="67" height="15" rx="5" fill="#F7F7F7"/>
<rect x="187" y="716" width="76" height="17" rx="5" fill="#F7F7F7"/>
<rect opacity="0.4" x="187" y="738" width="330" height="1" fill="#D6D6D6"/>
<rect x="187" y="809" width="67" height="15" rx="5" fill="#F7F7F7"/>
<rect x="187" y="827" width="76" height="17" rx="5" fill="#F7F7F7"/>
<rect opacity="0.4" x="187" y="849" width="330" height="1" fill="#D6D6D6"/>
<rect x="297" y="873" width="111" height="15" rx="5" fill="#F7F7F7"/>
</clipPath><linearGradient id="cb59ner01oa"><stop offset="0.675228" stop-color="#f9f9f9"><animate attributeName="offset" values="-2; 1" dur="2s" repeatCount="indefinite"></animate></stop><stop offset="1.17523" stop-color="#ecebeb"><animate attributeName="offset" values="-1.5; 1.5" dur="2s" repeatCount="indefinite"></animate></stop><stop offset="1.67523" stop-color="#f9f9f9"><animate attributeName="offset" values="-1; 2" dur="2s" repeatCount="indefinite"></animate></stop></linearGradient></defs>
</svg>
