<svg width="1170" height="1052" viewBox="0 0 1170 1052" fill="none" xmlns="http://www.w3.org/2000/svg">
 <rect clip-path="url(#77fudlf7tbo)" x="0" y="0" width="1170" height="1052" style="fill: url(&quot;#cb59ner01oa&quot;);"></rect>
    <defs>
        <clipPath id="77fudlf7tbo">
<rect x="227" y="4" width="160" height="23" rx="5" fill="#F7F7F7"/>
<rect x="252" y="112" width="21" height="16" rx="5" fill="#F7F7F7"/>
<rect x="398" y="101" width="101" height="17" rx="5" fill="#F7F7F7"/>
<rect x="804" y="107" width="83" height="20" rx="5" fill="#F7F7F7"/>
<rect x="1011" y="108" width="55" height="16" rx="5" fill="#F7F7F7"/>
<rect x="1095" y="110" width="12" height="12" rx="5" fill="#F7F7F7"/>
<rect x="398" y="120" width="65" height="17" rx="5" fill="#F7F7F7"/>
<rect x="292" y="60" width="90" height="117" rx="5" fill="#F7F7F7"/>
<rect x="252" y="987" width="21" height="16" rx="5" fill="#F7F7F7"/>
<rect x="398" y="976" width="101" height="17" rx="5" fill="#F7F7F7"/>
<rect x="804" y="982" width="83" height="20" rx="5" fill="#F7F7F7"/>
<rect x="1011" y="983" width="55" height="16" rx="5" fill="#F7F7F7"/>
<rect x="1095" y="985" width="12" height="12" rx="5" fill="#F7F7F7"/>
<rect x="398" y="995" width="65" height="17" rx="5" fill="#F7F7F7"/>
<rect x="292" y="935" width="90" height="117" rx="5" fill="#F7F7F7"/>
<rect x="252" y="845" width="21" height="16" rx="5" fill="#F7F7F7"/>
<rect x="398" y="834" width="101" height="17" rx="5" fill="#F7F7F7"/>
<rect x="804" y="840" width="83" height="20" rx="5" fill="#F7F7F7"/>
<rect x="1011" y="841" width="55" height="16" rx="5" fill="#F7F7F7"/>
<rect x="1095" y="843" width="12" height="12" rx="5" fill="#F7F7F7"/>
<rect x="398" y="853" width="65" height="17" rx="5" fill="#F7F7F7"/>
<rect x="292" y="793" width="90" height="117" rx="5" fill="#F7F7F7"/>
<rect width="64" height="19" rx="5" fill="#F7F7F7"/>
<rect y="29" width="64" height="19" rx="5" fill="#F7F7F7"/>
<rect y="57" width="64" height="19" rx="5" fill="#F7F7F7"/>
<rect x="815" y="14" width="72" height="17" rx="5" fill="#F7F7F7"/>
<rect x="1035" y="14" width="33" height="17" rx="5" fill="#F7F7F7"/>
<rect opacity="0.4" x="232" y="47" width="888" height="1" fill="#D6D6D6"/>
<rect opacity="0.4" x="232" y="922" width="888" height="1" fill="#D6D6D6"/>
<g filter="url(#filter0_d)">
<rect width="889" height="591" rx="4" transform="matrix(1 0 0 -1 231 781)" fill="white"/>
<rect x="0.5" y="-0.5" width="888" height="590" rx="3.5" transform="matrix(1 0 0 -1 231 780)" stroke="black" stroke-opacity="0.04"/>
</g>
<rect x="252" y="252" width="21" height="16" rx="5" fill="#F7F7F7"/>
<rect x="398" y="241" width="101" height="17" rx="5" fill="#F7F7F7"/>
<rect x="292" y="354" width="119" height="16" rx="5" fill="#F7F7F7"/>
<rect x="292" y="458" width="119" height="16" rx="5" fill="#F7F7F7"/>
<rect x="292" y="381" width="162" height="15" rx="5" fill="#F7F7F7"/>
<rect x="292" y="399" width="119" height="15" rx="5" fill="#F7F7F7"/>
<rect x="292" y="417" width="76" height="15" rx="5" fill="#F7F7F7"/>
<rect x="292" y="485" width="86" height="15" rx="5" fill="#F7F7F7"/>
<rect x="804" y="247" width="83" height="20" rx="5" fill="#F7F7F7"/>
<rect x="292" y="524" width="90" height="117" rx="5" fill="#F7F7F7"/>
<rect x="396" y="543" width="53" height="16" rx="5" fill="#F7F7F7"/>
<rect x="396" y="592" width="105" height="16" rx="5" fill="#F7F7F7"/>
<rect x="396" y="610" width="78" height="16" rx="5" fill="#F7F7F7"/>
<rect x="396" y="562" width="156" height="16" rx="5" fill="#F7F7F7"/>
<rect x="852" y="585" width="35" height="16" rx="5" fill="#F7F7F7"/>
<rect x="1001" y="585" width="65" height="16" rx="5" fill="#F7F7F7"/>
<rect x="292" y="649" width="90" height="117" rx="5" fill="#F7F7F7"/>
<rect x="396" y="668" width="53" height="16" rx="5" fill="#F7F7F7"/>
<rect x="396" y="717" width="105" height="16" rx="5" fill="#F7F7F7"/>
<rect x="396" y="735" width="78" height="16" rx="5" fill="#F7F7F7"/>
<rect x="396" y="687" width="156" height="16" rx="5" fill="#F7F7F7"/>
<rect x="852" y="710" width="35" height="16" rx="5" fill="#F7F7F7"/>
<rect x="1001" y="710" width="65" height="16" rx="5" fill="#F7F7F7"/>
<rect x="1011" y="248" width="55" height="16" rx="5" fill="#F7F7F7"/>
<rect x="1095" y="250" width="12" height="12" rx="5" fill="#F7F7F7"/>
<rect x="398" y="260" width="65" height="17" rx="5" fill="#F7F7F7"/>
<rect x="292" y="200" width="90" height="117" rx="5" fill="#F7F7F7"/>
<rect opacity="0.8" x="247.25" y="329.25" width="856.5" height="0.5" stroke="#D6D6D6" stroke-width="0.5" stroke-dasharray="2 2"/>
</clipPath><linearGradient id="cb59ner01oa"><stop offset="0.675228" stop-color="#f9f9f9"><animate attributeName="offset" values="-2; 1" dur="2s" repeatCount="indefinite"></animate></stop><stop offset="1.17523" stop-color="#ecebeb"><animate attributeName="offset" values="-1.5; 1.5" dur="2s" repeatCount="indefinite"></animate></stop><stop offset="1.67523" stop-color="#f9f9f9"><animate attributeName="offset" values="-1; 2" dur="2s" repeatCount="indefinite"></animate></stop></linearGradient></defs>
<defs>
<filter id="filter0_d" x="181" y="142" width="989" height="691" filterUnits="userSpaceOnUse" color-interpolation-filters="sRGB">
<feFlood flood-opacity="0" result="BackgroundImageFix"/>
<feColorMatrix in="SourceAlpha" type="matrix" values="0 0 0 0 0 0 0 0 0 0 0 0 0 0 0 0 0 0 127 0"/>
<feOffset dy="2"/>
<feGaussianBlur stdDeviation="25"/>
<feColorMatrix type="matrix" values="0 0 0 0 0 0 0 0 0 0 0 0 0 0 0 0 0 0 0.07 0"/>
<feBlend mode="normal" in2="BackgroundImageFix" result="effect1_dropShadow"/>
<feBlend mode="normal" in="SourceGraphic" in2="effect1_dropShadow" result="shape"/>
</filter>
</defs>
</svg>
