<svg width="337" height="2103" viewBox="0 0 337 2103" fill="none" xmlns="http://www.w3.org/2000/svg">
    <rect clip-path="url(#77fudlf7tbo)" x="0" y="0" width="337" height="2103" style="fill: url(&quot;#cb59ner01oa&quot;);"></rect>
    <defs>
        <clipPath id="77fudlf7tbo">
<rect x="17" y="214" width="134" height="14" rx="5" fill="#F7F7F7"/>
<rect x="6" y="233" width="156" height="14" rx="5" fill="#F7F7F7"/>
<rect x="52" y="259" width="64" height="14" rx="5" fill="#F7F7F7"/>
<rect width="168" height="195" rx="5" fill="#F7F7F7"/>
<rect x="192" y="214" width="134" height="14" rx="5" fill="#F7F7F7"/>
<rect x="181" y="233" width="156" height="14" rx="5" fill="#F7F7F7"/>
<rect x="227" y="259" width="64" height="14" rx="5" fill="#F7F7F7"/>
<rect x="175" width="168" height="195" rx="5" fill="#F7F7F7"/>
<rect x="17" y="519" width="134" height="14" rx="5" fill="#F7F7F7"/>
<rect x="6" y="538" width="156" height="14" rx="5" fill="#F7F7F7"/>
<rect x="52" y="564" width="64" height="14" rx="5" fill="#F7F7F7"/>
<rect y="305" width="168" height="195" rx="5" fill="#F7F7F7"/>
<rect x="192" y="519" width="134" height="14" rx="5" fill="#F7F7F7"/>
<rect x="181" y="538" width="156" height="14" rx="5" fill="#F7F7F7"/>
<rect x="227" y="564" width="64" height="14" rx="5" fill="#F7F7F7"/>
<rect x="175" y="305" width="168" height="195" rx="5" fill="#F7F7F7"/>
<rect x="17" y="824" width="134" height="14" rx="5" fill="#F7F7F7"/>
<rect x="6" y="843" width="156" height="14" rx="5" fill="#F7F7F7"/>
<rect x="52" y="869" width="64" height="14" rx="5" fill="#F7F7F7"/>
<rect y="610" width="168" height="195" rx="5" fill="#F7F7F7"/>
<rect x="192" y="824" width="134" height="14" rx="5" fill="#F7F7F7"/>
<rect x="181" y="843" width="156" height="14" rx="5" fill="#F7F7F7"/>
<rect x="227" y="869" width="64" height="14" rx="5" fill="#F7F7F7"/>
<rect x="175" y="610" width="168" height="195" rx="5" fill="#F7F7F7"/>
<rect x="17" y="1129" width="134" height="14" rx="5" fill="#F7F7F7"/>
<rect x="6" y="1148" width="156" height="14" rx="5" fill="#F7F7F7"/>
<rect x="52" y="1174" width="64" height="14" rx="5" fill="#F7F7F7"/>
<rect y="915" width="168" height="195" rx="5" fill="#F7F7F7"/>
<rect x="192" y="1129" width="134" height="14" rx="5" fill="#F7F7F7"/>
<rect x="181" y="1148" width="156" height="14" rx="5" fill="#F7F7F7"/>
<rect x="227" y="1174" width="64" height="14" rx="5" fill="#F7F7F7"/>
<rect x="175" y="915" width="168" height="195" rx="5" fill="#F7F7F7"/>
<rect x="17" y="1434" width="134" height="14" rx="5" fill="#F7F7F7"/>
<rect x="6" y="1453" width="156" height="14" rx="5" fill="#F7F7F7"/>
<rect x="52" y="1479" width="64" height="14" rx="5" fill="#F7F7F7"/>
<rect y="1220" width="168" height="195" rx="5" fill="#F7F7F7"/>
<rect x="192" y="1434" width="134" height="14" rx="5" fill="#F7F7F7"/>
<rect x="181" y="1453" width="156" height="14" rx="5" fill="#F7F7F7"/>
<rect x="227" y="1479" width="64" height="14" rx="5" fill="#F7F7F7"/>
<rect x="175" y="1220" width="168" height="195" rx="5" fill="#F7F7F7"/>
<rect x="17" y="1739" width="134" height="14" rx="5" fill="#F7F7F7"/>
<rect x="6" y="1758" width="156" height="14" rx="5" fill="#F7F7F7"/>
<rect x="52" y="1784" width="64" height="14" rx="5" fill="#F7F7F7"/>
<rect y="1525" width="168" height="195" rx="5" fill="#F7F7F7"/>
<rect x="192" y="1739" width="134" height="14" rx="5" fill="#F7F7F7"/>
<rect x="181" y="1758" width="156" height="14" rx="5" fill="#F7F7F7"/>
<rect x="227" y="1784" width="64" height="14" rx="5" fill="#F7F7F7"/>
<rect x="175" y="1525" width="168" height="195" rx="5" fill="#F7F7F7"/>
<rect x="17" y="2044" width="134" height="14" rx="5" fill="#F7F7F7"/>
<rect x="6" y="2063" width="156" height="14" rx="5" fill="#F7F7F7"/>
<rect x="52" y="2089" width="64" height="14" rx="5" fill="#F7F7F7"/>
<rect y="1830" width="168" height="195" rx="5" fill="#F7F7F7"/>
<rect x="192" y="2044" width="134" height="14" rx="5" fill="#F7F7F7"/>
<rect x="181" y="2063" width="156" height="14" rx="5" fill="#F7F7F7"/>
<rect x="227" y="2089" width="64" height="14" rx="5" fill="#F7F7F7"/>
<rect x="175" y="1830" width="168" height="195" rx="5" fill="#F7F7F7"/>
</clipPath><linearGradient id="cb59ner01oa"><stop offset="0.675228" stop-color="#f9f9f9"><animate attributeName="offset" values="-2; 1" dur="2s" repeatCount="indefinite"></animate></stop><stop offset="1.17523" stop-color="#ecebeb"><animate attributeName="offset" values="-1.5; 1.5" dur="2s" repeatCount="indefinite"></animate></stop><stop offset="1.67523" stop-color="#f9f9f9"><animate attributeName="offset" values="-1; 2" dur="2s" repeatCount="indefinite"></animate></stop></linearGradient></defs></svg>