<svg width="704" height="2129" viewBox="0 0 704 2129" fill="none" xmlns="http://www.w3.org/2000/svg">
    <rect clip-path="url(#77fudlf7tbo)" x="0" y="0" width="704" height="2129" style="fill: url(&quot;#cb59ner01oa&quot;);"></rect>
    <defs>
        <clipPath id="77fudlf7tbo">
<rect x="89" y="434" width="160" height="14" rx="5" fill="#F7F7F7"/>
<rect x="72" y="459" width="194" height="14" rx="5" fill="#F7F7F7"/>
<rect x="134" y="489" width="70" height="14" rx="5" fill="#F7F7F7"/>
<rect width="340" height="410" rx="5" fill="#F7F7F7"/>
<rect x="453" y="434" width="160" height="14" rx="5" fill="#F7F7F7"/>
<rect x="436" y="459" width="194" height="14" rx="5" fill="#F7F7F7"/>
<rect x="498" y="489" width="70" height="14" rx="5" fill="#F7F7F7"/>
<rect x="364" width="340" height="410" rx="5" fill="#F7F7F7"/>
<rect x="89" y="976" width="160" height="14" rx="5" fill="#F7F7F7"/>
<rect x="72" y="1001" width="194" height="14" rx="5" fill="#F7F7F7"/>
<rect x="134" y="1031" width="70" height="14" rx="5" fill="#F7F7F7"/>
<rect y="542" width="340" height="410" rx="5" fill="#F7F7F7"/>
<rect x="453" y="976" width="160" height="14" rx="5" fill="#F7F7F7"/>
<rect x="436" y="1001" width="194" height="14" rx="5" fill="#F7F7F7"/>
<rect x="498" y="1031" width="70" height="14" rx="5" fill="#F7F7F7"/>
<rect x="364" y="542" width="340" height="410" rx="5" fill="#F7F7F7"/>
<rect x="89" y="1518" width="160" height="14" rx="5" fill="#F7F7F7"/>
<rect x="72" y="1543" width="194" height="14" rx="5" fill="#F7F7F7"/>
<rect x="134" y="1573" width="70" height="14" rx="5" fill="#F7F7F7"/>
<rect y="1084" width="340" height="410" rx="5" fill="#F7F7F7"/>
<rect x="453" y="1518" width="160" height="14" rx="5" fill="#F7F7F7"/>
<rect x="436" y="1543" width="194" height="14" rx="5" fill="#F7F7F7"/>
<rect x="498" y="1573" width="70" height="14" rx="5" fill="#F7F7F7"/>
<rect x="364" y="1084" width="340" height="410" rx="5" fill="#F7F7F7"/>
<rect x="89" y="2060" width="160" height="14" rx="5" fill="#F7F7F7"/>
<rect x="72" y="2085" width="194" height="14" rx="5" fill="#F7F7F7"/>
<rect x="134" y="2115" width="70" height="14" rx="5" fill="#F7F7F7"/>
<rect y="1626" width="340" height="410" rx="5" fill="#F7F7F7"/>
<rect x="453" y="2060" width="160" height="14" rx="5" fill="#F7F7F7"/>
<rect x="436" y="2085" width="194" height="14" rx="5" fill="#F7F7F7"/>
<rect x="498" y="2115" width="70" height="14" rx="5" fill="#F7F7F7"/>
<rect x="364" y="1626" width="340" height="410" rx="5" fill="#F7F7F7"/>
</clipPath><linearGradient id="cb59ner01oa"><stop offset="0.675228" stop-color="#f9f9f9"><animate attributeName="offset" values="-2; 1" dur="2s" repeatCount="indefinite"></animate></stop><stop offset="1.17523" stop-color="#ecebeb"><animate attributeName="offset" values="-1.5; 1.5" dur="2s" repeatCount="indefinite"></animate></stop><stop offset="1.67523" stop-color="#f9f9f9"><animate attributeName="offset" values="-1; 2" dur="2s" repeatCount="indefinite"></animate></stop></linearGradient></defs></svg>
