<svg width="712" height="2532" viewBox="0 0 712 2532" fill="none" xmlns="http://www.w3.org/2000/svg">
    <rect clip-path="url(#77fudlf7tbo)" x="0" y="0" width="712" height="2532" style="fill: url(&quot;#cb59ner01oa&quot;);"></rect>
        <defs>
            <clipPath id="77fudlf7tbo">
                <rect x="112" y="107" width="494" height="494" rx="5" fill="#EBEBEB"/>
                <rect x="607" y="664" width="13" height="20" rx="5" fill="#EBEBEB"/>
                <rect x="98" y="664" width="13" height="20" rx="5" fill="#EBEBEB"/>
                <rect x="188" y="643" width="53" height="62" rx="5" fill="#EBEBEB"/>
                <rect x="260" y="643" width="53" height="62" rx="5" fill="#EBEBEB"/>
                <rect x="332" y="643" width="53" height="62" rx="5" fill="#EBEBEB"/>
                <rect x="404" y="643" width="53" height="62" rx="5" fill="#EBEBEB"/>
                <rect x="476" y="643" width="53" height="62" rx="5" fill="#EBEBEB"/>
                <rect x="7" width="162" height="14" rx="5" fill="#EBEBEB"/>
                <rect y="55" width="32" height="32" rx="5" fill="#EBEBEB"/>
                <rect x="680" y="55" width="32" height="32" rx="5" fill="#EBEBEB"/>
                <rect x="97" y="785" width="133" height="14" rx="5" fill="#EBEBEB"/>
                <rect x="525" y="809" width="96" height="20" rx="5" fill="#EBEBEB"/>
                <rect x="97" y="809" width="233" height="20" rx="5" fill="#EBEBEB"/>
                <rect x="98" y="1026" width="65" height="14" rx="5" fill="#F7F7F7"/>
                <rect x="98" y="845" width="113" height="14" rx="5" fill="#EBEBEB"/>
                <rect x="98" y="939" width="297" height="62" rx="5" fill="#F7F7F7"/>
                <rect x="518" y="1076" width="102" height="14" rx="5" fill="#F7F7F7"/>
                <rect x="98" y="1073" width="51" height="21" rx="5" fill="#F7F7F7"/>
                <rect x="98" y="1116" width="522" height="44" rx="5" fill="#F7F7F7"/>
                <rect x="98" y="1176" width="522" height="44" rx="5" fill="#F7F7F7"/>
                <rect x="98" y="1294" width="83" height="23" rx="5" fill="#F7F7F7"/>
                <rect x="98" y="1337" width="522" height="114" rx="5" fill="#F7F7F7"/>
                <rect x="98" y="1489" width="376" height="17" rx="5" fill="#F7F7F7"/>
                <rect x="98" y="1514" width="376" height="17" rx="5" fill="#F7F7F7"/>
                <rect x="98" y="1539" width="376" height="17" rx="5" fill="#F7F7F7"/>
                <rect x="98" y="1564" width="376" height="17" rx="5" fill="#F7F7F7"/>
                <rect x="98" y="1589" width="376" height="17" rx="5" fill="#F7F7F7"/>
                <rect x="98" y="1614" width="376" height="17" rx="5" fill="#F7F7F7"/>
                <rect x="98" y="1639" width="376" height="17" rx="5" fill="#F7F7F7"/>
                <rect x="98" y="1664" width="376" height="17" rx="5" fill="#F7F7F7"/>
                <rect x="98" y="1689" width="376" height="17" rx="5" fill="#F7F7F7"/>
                <rect x="98" y="1761" width="167" height="14" rx="5" fill="#F7F7F7"/>
                <rect x="98" y="1795" width="128" height="14" rx="5" fill="#F7F7F7"/>
                <rect x="98" y="1819" width="128" height="14" rx="5" fill="#F7F7F7"/>
                <rect x="98" y="1843" width="128" height="14" rx="5" fill="#F7F7F7"/>
                <rect x="233" y="1973" width="252" height="16" rx="5" fill="#F7F7F7"/>
                <rect x="255" y="1927" width="208" height="29" rx="5" fill="#F7F7F7"/>
                <rect x="96" y="2463" width="160" height="14" rx="5" fill="#F7F7F7"/>
                <rect x="79" y="2488" width="194" height="14" rx="5" fill="#F7F7F7"/>
                <rect x="141" y="2518" width="70" height="14" rx="5" fill="#F7F7F7"/>
                <rect x="7" y="2029" width="340" height="410" rx="5" fill="#F7F7F7"/>
                <rect x="460" y="2463" width="160" height="14" rx="5" fill="#F7F7F7"/>
                <rect x="443" y="2488" width="194" height="14" rx="5" fill="#F7F7F7"/>
                <rect x="505" y="2518" width="70" height="14" rx="5" fill="#F7F7F7"/>
                <rect x="371" y="2029" width="340" height="410" rx="5" fill="#F7F7F7"/>
            </clipPath><linearGradient id="cb59ner01oa"><stop offset="0.675228" stop-color="#f9f9f9"><animate attributeName="offset" values="-2; 1" dur="2s" repeatCount="indefinite"></animate></stop><stop offset="1.17523" stop-color="#ecebeb"><animate attributeName="offset" values="-1.5; 1.5" dur="2s" repeatCount="indefinite"></animate></stop><stop offset="1.67523" stop-color="#f9f9f9"><animate attributeName="offset" values="-1; 2" dur="2s" repeatCount="indefinite"></animate></stop></linearGradient></defs>
</svg>
