<svg width="1352" height="1729" viewBox="0 0 1352 1729" fill="none" xmlns="http://www.w3.org/2000/svg">
    <rect clip-path="url(#77fudlf7tbo)" x="0" y="0" width="1348" height="1896" style="fill: url(&quot;#cb59ner01oa&quot;);"></rect>
    <defs>
        <clipPath id="77fudlf7tbo">
<rect x="965" y="38" width="133" height="14" rx="5" fill="#EBEBEB"/>
<rect x="965" y="627" width="167" height="14" rx="5" fill="#F7F7F7"/>
<rect x="965" y="661" width="128" height="14" rx="5" fill="#F7F7F7"/>
<rect x="965" y="685" width="128" height="14" rx="5" fill="#F7F7F7"/>
<rect x="965" y="709" width="128" height="14" rx="5" fill="#F7F7F7"/>
<rect width="162" height="14" rx="5" fill="#EBEBEB"/>
<rect y="142" width="56" height="62" rx="5" fill="#EBEBEB"/>
<rect x="20" y="105" width="17" height="11" rx="5" fill="#EBEBEB"/>
<rect x="20" y="434" width="17" height="11" rx="5" fill="#EBEBEB"/>
<rect y="210" width="56" height="62" rx="5" fill="#EBEBEB"/>
<rect y="278" width="56" height="62" rx="5" fill="#EBEBEB"/>
<rect y="346" width="56" height="62" rx="5" fill="#EBEBEB"/>
<rect x="965" y="245" width="65" height="14" rx="5" fill="#EBEBEB"/>
<rect x="1250" y="323" width="102" height="14" rx="5" fill="#EBEBEB"/>
<rect x="1115" y="496" width="86" height="17" rx="5" fill="#EBEBEB"/>
<rect x="965" y="171" width="113" height="14" rx="5" fill="#EBEBEB"/>
<rect x="965" y="320" width="51" height="21" rx="5" fill="#EBEBEB"/>
<rect x="965" y="192" width="359" height="42" rx="5" fill="#EBEBEB"/>
<rect x="965" y="369" width="387" height="50" rx="5" fill="#EBEBEB"/>
<rect x="186" y="37" width="649" height="484" rx="5" fill="#EBEBEB"/>
<rect x="965" y="429" width="387" height="48" rx="5" fill="#EBEBEB"/>
<rect x="965" y="110" width="96" height="20" rx="5" fill="#EBEBEB"/>
<rect x="965" y="62" width="233" height="20" rx="5" fill="#EBEBEB"/>
<rect x="114" y="616" width="83" height="23" rx="5" fill="#F7F7F7"/>
<rect x="114" y="659" width="669" height="88" rx="5" fill="#F7F7F7"/>
<rect x="114" y="777" width="376" height="17" rx="5" fill="#F7F7F7"/>
<rect x="114" y="801" width="376" height="17" rx="5" fill="#F7F7F7"/>
<rect x="114" y="825" width="376" height="17" rx="5" fill="#F7F7F7"/>
<rect x="114" y="849" width="376" height="17" rx="5" fill="#F7F7F7"/>
<rect x="114" y="873" width="376" height="17" rx="5" fill="#F7F7F7"/>
<rect x="114" y="897" width="376" height="17" rx="5" fill="#F7F7F7"/>
<rect x="114" y="921" width="376" height="17" rx="5" fill="#F7F7F7"/>
<rect x="114" y="945" width="376" height="17" rx="5" fill="#F7F7F7"/>
<rect x="114" y="969" width="376" height="17" rx="5" fill="#F7F7F7"/>
<rect x="550" y="1185" width="252" height="16" rx="5" fill="#F7F7F7"/>
<rect x="101" y="1670" width="134" height="14" rx="5" fill="#F7F7F7"/>
<rect x="90" y="1689" width="156" height="14" rx="5" fill="#F7F7F7"/>
<rect x="136" y="1715" width="64" height="14" rx="5" fill="#F7F7F7"/>
<rect x="4" y="1246" width="328" height="410" rx="5" fill="#F7F7F7"/>
<rect x="440" y="1670" width="134" height="14" rx="5" fill="#F7F7F7"/>
<rect x="429" y="1689" width="156" height="14" rx="5" fill="#F7F7F7"/>
<rect x="475" y="1715" width="64" height="14" rx="5" fill="#F7F7F7"/>
<rect x="343" y="1246" width="328" height="410" rx="5" fill="#F7F7F7"/>
<rect x="778" y="1670" width="134" height="14" rx="5" fill="#F7F7F7"/>
<rect x="767" y="1689" width="156" height="14" rx="5" fill="#F7F7F7"/>
<rect x="813" y="1715" width="64" height="14" rx="5" fill="#F7F7F7"/>
<rect x="681" y="1246" width="328" height="410" rx="5" fill="#F7F7F7"/>
<rect x="1117" y="1670" width="134" height="14" rx="5" fill="#F7F7F7"/>
<rect x="1106" y="1689" width="156" height="14" rx="5" fill="#F7F7F7"/>
<rect x="1152" y="1715" width="64" height="14" rx="5" fill="#F7F7F7"/>
<rect x="1020" y="1246" width="328" height="410" rx="5" fill="#F7F7F7"/>
<rect x="572" y="1139" width="208" height="29" rx="5" fill="#F7F7F7"/>
</clipPath><linearGradient id="cb59ner01oa"><stop offset="0.675228" stop-color="#f9f9f9"><animate attributeName="offset" values="-2; 1" dur="2s" repeatCount="indefinite"></animate></stop><stop offset="1.17523" stop-color="#ecebeb"><animate attributeName="offset" values="-1.5; 1.5" dur="2s" repeatCount="indefinite"></animate></stop><stop offset="1.67523" stop-color="#f9f9f9"><animate attributeName="offset" values="-1; 2" dur="2s" repeatCount="indefinite"></animate></stop></linearGradient></defs></svg>