<svg width="951" height="1808" viewBox="0 0 951 1808" fill="none" xmlns="http://www.w3.org/2000/svg">
    <rect clip-path="url(#77fudlf7tbo)" x="0" y="0" width="951" height="1808" style="fill: url(&quot;#cb59ner01oa&quot;);"></rect>
        <defs>
            <clipPath id="77fudlf7tbo">
                <rect width="162" height="14" rx="5" fill="#EBEBEB"/>
                <rect x="8" y="83" width="32" height="32" rx="5" fill="#EBEBEB"/>
                <rect x="912" y="83" width="32" height="32" rx="5" fill="#EBEBEB"/>
                <rect x="128" y="138" width="339" height="339" rx="5" fill="#EBEBEB"/>
                <rect x="564" y="92" width="133" height="14" rx="5" fill="#EBEBEB"/>
                <rect x="564" y="164" width="96" height="20" rx="5" fill="#EBEBEB"/>
                <rect x="564" y="116" width="233" height="20" rx="5" fill="#EBEBEB"/>
                <rect x="564" y="300" width="65" height="14" rx="5" fill="#EBEBEB"/>
                <rect x="849" y="378" width="102" height="14" rx="5" fill="#EBEBEB"/>
                <rect x="564" y="226" width="113" height="14" rx="5" fill="#EBEBEB"/>
                <rect x="564" y="375" width="51" height="21" rx="5" fill="#EBEBEB"/>
                <rect x="564" y="247" width="359" height="42" rx="5" fill="#EBEBEB"/>
                <rect x="564" y="424" width="387" height="50" rx="5" fill="#EBEBEB"/>
                <rect x="564" y="484" width="387" height="48" rx="5" fill="#EBEBEB"/>
                <rect y="214" width="48" height="56" rx="5" fill="#EBEBEB"/>
                <rect y="282" width="48" height="56" rx="5" fill="#EBEBEB"/>
                <rect y="350" width="48" height="56" rx="5" fill="#EBEBEB"/>
                <rect x="13" y="427" width="22" height="13" rx="5" fill="#EBEBEB"/>
                <rect x="13" y="179" width="22" height="13" rx="5" fill="#EBEBEB"/>
                <rect x="774" y="729" width="167" height="14" rx="5" fill="#F7F7F7"/>
                <rect x="774" y="763" width="128" height="14" rx="5" fill="#F7F7F7"/>
                <rect x="774" y="787" width="128" height="14" rx="5" fill="#F7F7F7"/>
                <rect x="774" y="811" width="128" height="14" rx="5" fill="#F7F7F7"/>
                <rect y="719" width="83" height="23" rx="5" fill="#F7F7F7"/>
                <rect y="762" width="666" height="93" rx="5" fill="#F7F7F7"/>
                <rect y="886" width="376" height="17" rx="5" fill="#F7F7F7"/>
                <rect y="910" width="376" height="17" rx="5" fill="#F7F7F7"/>
                <rect y="934" width="376" height="17" rx="5" fill="#F7F7F7"/>
                <rect y="958" width="376" height="17" rx="5" fill="#F7F7F7"/>
                <rect y="982" width="376" height="17" rx="5" fill="#F7F7F7"/>
                <rect y="1006" width="376" height="17" rx="5" fill="#F7F7F7"/>
                <rect y="1030" width="376" height="17" rx="5" fill="#F7F7F7"/>
                <rect y="1054" width="376" height="17" rx="5" fill="#F7F7F7"/>
                <rect y="1078" width="376" height="17" rx="5" fill="#F7F7F7"/>
                <rect x="346" y="1277" width="252" height="16" rx="5" fill="#F7F7F7"/>
                <rect x="368" y="1231" width="208" height="29" rx="5" fill="#F7F7F7"/>
                <rect x="87" y="1738" width="124" height="14" rx="5" fill="#F7F7F7"/>
                <rect x="71" y="1761" width="156" height="14" rx="5" fill="#F7F7F7"/>
                <rect x="111" y="1794" width="76" height="14" rx="5" fill="#F7F7F7"/>
                <rect y="1344" width="299" height="374" rx="5" fill="#F7F7F7"/>
                <rect x="409" y="1738" width="124" height="14" rx="5" fill="#F7F7F7"/>
                <rect x="393" y="1761" width="156" height="14" rx="5" fill="#F7F7F7"/>
                <rect x="433" y="1794" width="76" height="14" rx="5" fill="#F7F7F7"/>
                <rect x="322" y="1344" width="299" height="374" rx="5" fill="#F7F7F7"/>
                <rect x="732" y="1738" width="124" height="14" rx="5" fill="#F7F7F7"/>
                <rect x="716" y="1761" width="156" height="14" rx="5" fill="#F7F7F7"/>
                <rect x="756" y="1794" width="76" height="14" rx="5" fill="#F7F7F7"/>
                <rect x="645" y="1344" width="299" height="374" rx="5" fill="#F7F7F7"/>
            </clipPath><linearGradient id="cb59ner01oa"><stop offset="0.675228" stop-color="#f9f9f9"><animate attributeName="offset" values="-2; 1" dur="2s" repeatCount="indefinite"></animate></stop><stop offset="1.17523" stop-color="#ecebeb"><animate attributeName="offset" values="-1.5; 1.5" dur="2s" repeatCount="indefinite"></animate></stop><stop offset="1.67523" stop-color="#f9f9f9"><animate attributeName="offset" values="-1; 2" dur="2s" repeatCount="indefinite"></animate></stop></linearGradient></defs>
</svg>
