<svg width="343" height="2382" viewBox="0 0 343 2382" fill="none" xmlns="http://www.w3.org/2000/svg">
    <rect clip-path="url(#77fudlf7tbo)" x="0" y="0" width="343" height="2382" style="fill: url(&quot;#cb59ner01oa&quot;);"></rect>
        <defs>
            <clipPath id="77fudlf7tbo">
                <rect x="49" y="77" width="245" height="245" rx="5" fill="#EBEBEB"/>
                <rect x="330" y="357" width="13" height="22" rx="5" fill="#EBEBEB"/>
                <rect y="357" width="13" height="22" rx="5" fill="#EBEBEB"/>
                <rect x="51" y="346" width="37" height="44" rx="5" fill="#EBEBEB"/>
                <rect x="102" y="346" width="37" height="44" rx="5" fill="#EBEBEB"/>
                <rect x="153" y="346" width="37" height="44" rx="5" fill="#EBEBEB"/>
                <rect x="204" y="346" width="37" height="44" rx="5" fill="#EBEBEB"/>
                <rect x="255" y="346" width="37" height="44" rx="5" fill="#EBEBEB"/>
                <rect width="162" height="14" rx="5" fill="#EBEBEB"/>
                <rect y="38" width="32" height="32" rx="5" fill="#EBEBEB"/>
                <rect x="311" y="38" width="32" height="32" rx="5" fill="#EBEBEB"/>
                <rect y="431" width="133" height="14" rx="5" fill="#EBEBEB"/>
                <rect y="490" width="96" height="20" rx="5" fill="#EBEBEB"/>
                <rect y="455" width="233" height="20" rx="5" fill="#EBEBEB"/>
                <rect y="660" width="70" height="14" rx="5" fill="#EBEBEB"/>
                <rect y="547" width="113" height="14" rx="5" fill="#EBEBEB"/>
                <rect y="568" width="292" height="67" rx="5" fill="#EBEBEB"/>
                <rect y="713" width="54" height="21" rx="5" fill="#EBEBEB"/>
                <rect x="227" y="716" width="116" height="14" rx="5" fill="#EBEBEB"/>
                <rect y="757" width="343" height="44" rx="5" fill="#EBEBEB"/>
                <rect y="816" width="343" height="44" rx="5" fill="#EBEBEB"/>
                <rect y="950" width="83" height="23" rx="5" fill="#F7F7F7"/>
                <rect y="993" width="343" height="165" rx="5" fill="#F7F7F7"/>
                <rect y="1198" width="343" height="17" rx="5" fill="#F7F7F7"/>
                <rect y="1223" width="343" height="17" rx="5" fill="#F7F7F7"/>
                <rect y="1248" width="343" height="17" rx="5" fill="#F7F7F7"/>
                <rect y="1273" width="343" height="17" rx="5" fill="#F7F7F7"/>
                <rect y="1298" width="343" height="17" rx="5" fill="#F7F7F7"/>
                <rect y="1323" width="343" height="17" rx="5" fill="#F7F7F7"/>
                <rect y="1348" width="343" height="17" rx="5" fill="#F7F7F7"/>
                <rect y="1373" width="343" height="17" rx="5" fill="#F7F7F7"/>
                <rect y="1398" width="343" height="17" rx="5" fill="#F7F7F7"/>
                <rect y="1423" width="343" height="17" rx="5" fill="#F7F7F7"/>
                <rect y="1448" width="343" height="17" rx="5" fill="#F7F7F7"/>
                <rect y="1511" width="167" height="14" rx="5" fill="#F7F7F7"/>
                <rect y="1545" width="128" height="14" rx="5" fill="#F7F7F7"/>
                <rect y="1569" width="128" height="14" rx="5" fill="#F7F7F7"/>
                <rect y="1593" width="128" height="14" rx="5" fill="#F7F7F7"/>
                <rect x="45" y="1750" width="252" height="16" rx="5" fill="#F7F7F7"/>
                <rect x="67" y="1704" width="208" height="29" rx="5" fill="#F7F7F7"/>
                <rect x="17" y="2018" width="134" height="14" rx="5" fill="#F7F7F7"/>
                <rect x="6" y="2037" width="156" height="14" rx="5" fill="#F7F7F7"/>
                <rect x="52" y="2063" width="64" height="14" rx="5" fill="#F7F7F7"/>
                <rect y="1804" width="168" height="195" rx="5" fill="#F7F7F7"/>
                <rect x="192" y="2018" width="134" height="14" rx="5" fill="#F7F7F7"/>
                <rect x="181" y="2037" width="156" height="14" rx="5" fill="#F7F7F7"/>
                <rect x="227" y="2063" width="64" height="14" rx="5" fill="#F7F7F7"/>
                <rect x="175" y="1804" width="168" height="195" rx="5" fill="#F7F7F7"/>
                <rect x="17" y="2323" width="134" height="14" rx="5" fill="#F7F7F7"/>
                <rect x="6" y="2342" width="156" height="14" rx="5" fill="#F7F7F7"/>
                <rect x="52" y="2368" width="64" height="14" rx="5" fill="#F7F7F7"/>
                <rect y="2109" width="168" height="195" rx="5" fill="#F7F7F7"/>
                <rect x="192" y="2323" width="134" height="14" rx="5" fill="#F7F7F7"/>
                <rect x="181" y="2342" width="156" height="14" rx="5" fill="#F7F7F7"/>
                <rect x="227" y="2368" width="64" height="14" rx="5" fill="#F7F7F7"/>
                <rect x="175" y="2109" width="168" height="195" rx="5" fill="#F7F7F7"/>
            </clipPath><linearGradient id="cb59ner01oa"><stop offset="0.675228" stop-color="#f9f9f9"><animate attributeName="offset" values="-2; 1" dur="2s" repeatCount="indefinite"></animate></stop><stop offset="1.17523" stop-color="#ecebeb"><animate attributeName="offset" values="-1.5; 1.5" dur="2s" repeatCount="indefinite"></animate></stop><stop offset="1.67523" stop-color="#f9f9f9"><animate attributeName="offset" values="-1; 2" dur="2s" repeatCount="indefinite"></animate></stop></linearGradient></defs>
</svg>
