<svg width="929" height="605" viewBox="0 0 929 605" fill="none" xmlns="http://www.w3.org/2000/svg">
 <rect clip-path="url(#77fudlf7tbo)" x="0" y="0" width="929" height="605" style="fill: url(&quot;#cb59ner01oa&quot;);"></rect>
        <defs>
            <clipPath id="77fudlf7tbo">
<rect opacity="0.4" x="182" y="46" width="747" height="1" fill="#D6D6D6"/>
<rect opacity="0.2" x="182" y="247" width="747" height="1" fill="#00000B" fill-opacity="0.32"/>
<rect opacity="0.2" x="182" y="432" width="747" height="1" fill="#00000B" fill-opacity="0.32"/>
<rect width="64" height="19" rx="5" fill="#F7F7F7"/>
<rect y="29" width="64" height="19" rx="5" fill="#F7F7F7"/>
<rect y="57" width="64" height="19" rx="5" fill="#F7F7F7"/>
<rect x="178" y="2" width="160" height="23" rx="5" fill="#F7F7F7"/>
<rect x="178" y="75" width="123" height="160" rx="5" fill="#F7F7F7"/>
<rect x="326" y="93" width="53" height="16" rx="5" fill="#F7F7F7"/>
<rect x="326" y="142" width="105" height="16" rx="5" fill="#F7F7F7"/>
<rect x="326" y="160" width="78" height="16" rx="5" fill="#F7F7F7"/>
<rect x="326" y="205" width="83" height="17" rx="5" fill="#F7F7F7"/>
<rect x="326" y="112" width="156" height="16" rx="5" fill="#F7F7F7"/>
<rect x="738" y="207" width="28" height="17" rx="5" fill="#F7F7F7"/>
<rect x="806" y="207" width="123" height="17" rx="5" fill="#F7F7F7"/>
<rect x="876" y="114" width="53" height="17" rx="5" fill="#F7F7F7"/>
<rect x="876" y="95" width="53" height="16" rx="5" fill="#F7F7F7"/>
<rect x="177" y="260" width="123" height="160" rx="5" fill="#F7F7F7"/>
<rect x="325" y="278" width="53" height="16" rx="5" fill="#F7F7F7"/>
<rect x="325" y="327" width="105" height="16" rx="5" fill="#F7F7F7"/>
<rect x="325" y="345" width="78" height="16" rx="5" fill="#F7F7F7"/>
<rect x="325" y="390" width="83" height="17" rx="5" fill="#F7F7F7"/>
<rect x="325" y="297" width="156" height="16" rx="5" fill="#F7F7F7"/>
<rect x="737" y="392" width="28" height="17" rx="5" fill="#F7F7F7"/>
<rect x="805" y="392" width="123" height="17" rx="5" fill="#F7F7F7"/>
<rect x="875" y="299" width="53" height="17" rx="5" fill="#F7F7F7"/>
<rect x="875" y="280" width="53" height="16" rx="5" fill="#F7F7F7"/>
<rect x="177" y="445" width="123" height="160" rx="5" fill="#F7F7F7"/>
<rect x="325" y="463" width="53" height="16" rx="5" fill="#F7F7F7"/>
<rect x="325" y="512" width="105" height="16" rx="5" fill="#F7F7F7"/>
<rect x="325" y="530" width="78" height="16" rx="5" fill="#F7F7F7"/>
<rect x="325" y="575" width="83" height="17" rx="5" fill="#F7F7F7"/>
<rect x="325" y="482" width="156" height="16" rx="5" fill="#F7F7F7"/>
<rect x="737" y="577" width="28" height="17" rx="5" fill="#F7F7F7"/>
<rect x="805" y="577" width="123" height="17" rx="5" fill="#F7F7F7"/>
<rect x="875" y="484" width="53" height="17" rx="5" fill="#F7F7F7"/>
<rect x="875" y="465" width="53" height="16" rx="5" fill="#F7F7F7"/>
 </clipPath><linearGradient id="cb59ner01oa"><stop offset="0.675228" stop-color="#f9f9f9"><animate attributeName="offset" values="-2; 1" dur="2s" repeatCount="indefinite"></animate></stop><stop offset="1.17523" stop-color="#ecebeb"><animate attributeName="offset" values="-1.5; 1.5" dur="2s" repeatCount="indefinite"></animate></stop><stop offset="1.67523" stop-color="#f9f9f9"><animate attributeName="offset" values="-1; 2" dur="2s" repeatCount="indefinite"></animate></stop></linearGradient></defs>
</svg>
