<svg width="124" height="28" viewBox="0 0 124 28" fill="none" xmlns="http://www.w3.org/2000/svg">
<g opacity="0.7">
<path d="M38.1978 21.2505C37.7565 21.0461 37.4413 20.6713 37.4413 20.1263C37.4413 19.479 37.9457 18.9679 38.513 18.9679C38.7022 18.9679 38.8283 19.002 38.9543 19.0701C39.7109 19.4449 40.5304 19.6834 41.5391 19.6834C43.3674 19.6834 44.2185 18.7295 44.2185 16.9238V16.4469C43.4304 17.4689 42.5793 18.0822 41.1609 18.0822C38.9859 18.0822 37 16.3788 37 13.3808V13.3467C37 10.3146 39.0174 8.64529 41.1609 8.64529C42.6109 8.64529 43.462 9.29258 44.187 10.1443V10.0762C44.187 9.29258 44.7859 8.64529 45.5109 8.64529C46.2359 8.64529 46.8348 9.29258 46.8348 10.0762V16.5832C46.8348 18.3888 46.425 19.7174 45.637 20.5691C44.7543 21.523 43.4304 21.9319 41.6022 21.9319C40.3728 21.9659 39.3011 21.7275 38.1978 21.2505ZM44.2185 13.3467C44.2185 11.9499 43.2098 10.9619 41.9174 10.9619C40.625 10.9619 39.6478 11.9158 39.6478 13.3126V13.3467C39.6478 14.7435 40.625 15.6974 41.9174 15.6974C43.2098 15.6974 44.2185 14.7094 44.2185 13.3467ZM48.3163 10.1102C48.3163 9.32665 48.9152 8.67936 49.6402 8.67936C50.3652 8.67936 50.9641 9.32665 50.9641 10.1102V10.5531C51.3424 9.56513 51.9728 8.67936 52.7609 8.67936C53.5804 8.67936 54.0533 9.25852 54.0533 10.0762C54.0533 10.8257 53.612 11.2685 53.0446 11.4048C51.6891 11.7455 50.9641 12.8697 50.9641 14.8798V17.5711C50.9641 18.3547 50.3652 19.002 49.6402 19.002C48.9152 19.002 48.3163 18.3547 48.3163 17.5711V10.1102ZM53.7696 15.9699C53.7696 13.7214 55.3141 12.6994 57.5522 12.6994C58.4978 12.6994 59.1913 12.8697 59.8533 13.1082V12.9379C59.8533 11.7455 59.1598 11.0982 57.8359 11.0982C57.1109 11.0982 56.512 11.2004 56.0076 11.3707C55.85 11.4389 55.7554 11.4389 55.6293 11.4389C55.0304 11.4389 54.5261 10.9279 54.5261 10.2806C54.5261 9.76954 54.8098 9.32665 55.2511 9.15631C56.1022 8.81563 56.9848 8.61122 58.2457 8.61122C59.6957 8.61122 60.7359 9.02004 61.3978 9.73547C62.0913 10.485 62.4065 11.6092 62.4065 12.9719V17.5711C62.4065 18.3547 61.8391 18.9339 61.1141 18.9339C60.3576 18.9339 59.8533 18.3547 59.8533 17.7415V17.7074C59.2228 18.491 58.3087 19.002 57.0163 19.002C55.2196 19.0701 53.7696 17.98 53.7696 15.9699ZM59.8533 15.3226V14.8116C59.412 14.5731 58.813 14.4369 58.1511 14.4369C57.0163 14.4369 56.3228 14.9138 56.3228 15.8337V15.8677C56.3228 16.6513 56.9217 17.0942 57.7728 17.0942C59.0022 17.0942 59.8533 16.3788 59.8533 15.3226ZM63.7935 10.1102C63.7935 9.32665 64.3924 8.67936 65.1174 8.67936C65.8424 8.67936 66.4413 9.32665 66.4413 10.1102V10.2124C67.0402 9.36072 67.8598 8.57715 69.2152 8.57715C70.4446 8.57715 71.3587 9.15631 71.863 10.1784C72.6826 9.15631 73.6598 8.57715 74.9207 8.57715C76.9065 8.57715 78.0728 9.87174 78.0728 12.2906V17.5711C78.0728 18.3547 77.4739 19.002 76.7489 19.002C76.0239 19.002 75.425 18.3547 75.425 17.5711V13.2445C75.425 11.8818 74.8576 11.2004 73.8804 11.2004C72.8717 11.2004 72.2728 11.9158 72.2728 13.2445V17.5711C72.2728 18.3547 71.6739 19.002 70.9489 19.002C70.2239 19.002 69.625 18.3547 69.625 17.5711V13.2445C69.625 11.8818 69.0576 11.2004 68.0804 11.2004C67.0717 11.2004 66.4728 11.9158 66.4728 13.2445V17.5711C66.4728 18.3547 65.8739 19.002 65.1489 19.002C64.4239 19.002 63.825 18.3547 63.825 17.5711V10.1102H63.7935ZM79.4913 10.1102C79.4913 9.32665 80.0902 8.67936 80.8152 8.67936C81.5402 8.67936 82.1391 9.32665 82.1391 10.1102V10.2124C82.738 9.36072 83.5576 8.57715 84.913 8.57715C86.1424 8.57715 87.0565 9.15631 87.5609 10.1784C88.3804 9.15631 89.3576 8.57715 90.6185 8.57715C92.6043 8.57715 93.7707 9.87174 93.7707 12.2906V17.5711C93.7707 18.3547 93.1717 19.002 92.4467 19.002C91.7217 19.002 91.1228 18.3547 91.1228 17.5711V13.2445C91.1228 11.8818 90.5554 11.2004 89.5783 11.2004C88.5696 11.2004 87.9707 11.9158 87.9707 13.2445V17.5711C87.9707 18.3547 87.3717 19.002 86.6467 19.002C85.9217 19.002 85.3228 18.3547 85.3228 17.5711V13.2445C85.3228 11.8818 84.7554 11.2004 83.7783 11.2004C82.7696 11.2004 82.1707 11.9158 82.1707 13.2445V17.5711C82.1707 18.3547 81.5717 19.002 80.8467 19.002C80.1217 19.002 79.5228 18.3547 79.5228 17.5711L79.4913 10.1102ZM94.6533 15.9699C94.6533 13.7214 96.1978 12.6994 98.4359 12.6994C99.3815 12.6994 100.075 12.8697 100.737 13.1082V12.9379C100.737 11.7455 100.043 11.0982 98.7196 11.0982C97.9946 11.0982 97.3956 11.2004 96.8913 11.3707C96.7337 11.4389 96.6391 11.4389 96.513 11.4389C95.9141 11.4389 95.4098 10.9279 95.4098 10.2806C95.4098 9.76954 95.6935 9.32665 96.1348 9.15631C96.9859 8.81563 97.8685 8.61122 99.1293 8.61122C100.579 8.61122 101.62 9.02004 102.282 9.73547C102.975 10.485 103.29 11.6092 103.29 12.9719V17.5711C103.29 18.3547 102.723 18.9339 101.998 18.9339C101.241 18.9339 100.737 18.3547 100.737 17.7415V17.7074C100.075 18.491 99.1924 19.002 97.9 19.002C96.1033 19.0701 94.6533 17.98 94.6533 15.9699ZM100.737 15.3226V14.8116C100.296 14.5731 99.6967 14.4369 99.0348 14.4369C97.9 14.4369 97.2065 14.9138 97.2065 15.8337V15.8677C97.2065 16.6513 97.8054 17.0942 98.6565 17.0942C99.9174 17.0942 100.737 16.3788 100.737 15.3226ZM104.677 10.1102C104.677 9.32665 105.276 8.67936 106.001 8.67936C106.726 8.67936 107.325 9.32665 107.325 10.1102V10.5531C107.703 9.56513 108.334 8.67936 109.122 8.67936C109.941 8.67936 110.414 9.25852 110.414 10.0762C110.414 10.8257 109.973 11.2685 109.405 11.4048C108.05 11.7455 107.325 12.8697 107.325 14.8798V17.5711C107.325 18.3547 106.726 19.002 106.001 19.002C105.276 19.002 104.677 18.3547 104.677 17.5711V10.1102ZM111.234 6.43086C111.234 5.64729 111.833 5 112.558 5C113.283 5 113.882 5.64729 113.882 6.43086V17.5711C113.882 18.3547 113.283 19.002 112.558 19.002C111.833 19.002 111.234 18.3547 111.234 17.5711V6.43086ZM115.993 21.6934C115.615 21.5571 115.142 21.2164 115.142 20.501C115.142 19.7856 115.647 19.3427 116.183 19.3427C116.403 19.3427 116.529 19.3768 116.624 19.4108C116.845 19.479 117.002 19.513 117.191 19.513C117.664 19.513 117.885 19.4108 118.137 18.8998L118.232 18.6613L115.048 10.6553C114.985 10.4509 114.922 10.1784 114.922 10.008C114.922 9.19038 115.489 8.64529 116.246 8.64529C116.908 8.64529 117.286 9.05411 117.507 9.73547L119.524 15.6293L121.478 9.76954C121.699 9.15631 122.077 8.67936 122.739 8.67936C123.433 8.67936 124 9.25852 124 10.008C124 10.2465 123.937 10.5531 123.874 10.6894L120.596 19.1723C119.808 21.2164 119.02 22 117.443 22C116.845 21.9659 116.435 21.8637 115.993 21.6934Z" fill="#B3B8B7"/>
<path d="M14.5 28C22.5081 28 29 21.732 29 14C29 6.26801 22.5081 0 14.5 0C6.49187 0 0 6.26801 0 14C0 21.732 6.49187 28 14.5 28Z" fill="#B3B8B7"/>
<path d="M16.6058 15.4718C15.9958 15.4718 15.5142 16.0038 15.6105 16.6296C15.7068 17.099 16.1563 17.4119 16.6379 17.4119H18.1791L19.0782 17.2868C17.6333 19.3521 15.161 20.2909 12.4318 19.8528C10.2163 19.5085 8.32193 18.0378 7.51923 16.0038C5.68907 11.3724 9.15674 6.92888 13.684 6.92888C16.0279 6.92888 18.1149 8.27447 19.3029 9.90169V9.93298C19.624 10.3711 20.2341 10.4962 20.6836 10.1833C21.101 9.90169 21.2294 9.33842 20.9725 8.90032C19.335 6.39691 16.3811 4.80098 13.0739 5.02003C8.77145 5.36425 5.27166 8.80645 5.0148 13.031C4.72582 17.9439 8.70723 21.9181 13.684 21.9181C16.2848 21.9181 18.6286 20.8228 20.2019 19.0079L20.0093 20.0405V20.9793C20.0093 21.4487 20.3304 21.8868 20.812 21.9807C21.4542 22.1058 22 21.6051 22 21.0106V15.4718H16.6058Z" fill="white"/>
</g>
</svg>
