<svg width="90" height="29" viewBox="0 0 90 29" fill="none" xmlns="http://www.w3.org/2000/svg">
<path d="M11.218 10.2468V13.328H18.4271C18.2161 15.0478 17.6535 16.3018 16.7743 17.1975C15.7193 18.2723 14.0665 19.4547 11.218 19.4547C6.78709 19.4547 3.30563 15.8002 3.30563 11.2858C3.30563 6.77151 6.75193 3.08122 11.218 3.08122C13.6094 3.08122 15.3677 4.04857 16.6688 5.26673L18.7788 3.11704C16.9853 1.36147 14.5588 0 11.218 0C5.13428 0 0 5.05176 0 11.25C0 17.4483 5.13428 22.5 11.218 22.5C14.5237 22.5 16.9853 21.3894 18.9195 19.3472C20.9239 17.305 21.5218 14.4745 21.5218 12.1457C21.5218 11.4292 21.4866 10.7843 21.3459 10.211H11.218V10.2468Z" fill="#4285F4"/>
<path d="M30.815 7.82605C26.7869 7.82605 23.478 10.6934 23.478 14.6739C23.478 18.6207 26.7509 21.5217 30.815 21.5217C34.8791 21.5217 38.152 18.6207 38.152 14.6739C38.116 10.6934 34.8431 7.82605 30.815 7.82605ZM30.815 18.8231C28.6211 18.8231 26.7149 17.1027 26.7149 14.6739C26.7149 12.2114 28.6211 10.5247 30.815 10.5247C33.0089 10.5247 34.9151 12.2114 34.9151 14.6739C34.9151 17.1027 33.0089 18.8231 30.815 18.8231Z" fill="#EA4335"/>
<path d="M65.427 9.40094H65.3206C64.611 8.561 63.2627 7.82605 61.5241 7.82605C57.9405 7.82605 54.7827 10.9058 54.7827 14.9305C54.7827 18.9202 57.905 22.035 61.5241 22.035C63.2627 22.035 64.611 21.2651 65.3206 20.4251H65.427V21.4051C65.427 24.0999 63.9368 25.5698 61.5951 25.5698C59.6791 25.5698 58.4727 24.2049 57.976 23.0499L55.244 24.1699C56.0245 26.0597 58.1179 28.3696 61.6305 28.3696C65.3206 28.3696 68.4784 26.2347 68.4784 20.9851V8.21102H65.498V9.40094H65.427ZM61.808 19.2352C59.6436 19.2352 57.976 17.4154 57.976 14.9305C57.976 12.4107 59.6436 10.6258 61.808 10.6258C63.9723 10.6258 65.6399 12.4457 65.6399 14.9655C65.6754 17.4154 63.9723 19.2352 61.808 19.2352Z" fill="#4285F4"/>
<path d="M46.4673 7.82605C42.4392 7.82605 39.1304 10.6934 39.1304 14.6739C39.1304 18.6207 42.4032 21.5217 46.4673 21.5217C50.5314 21.5217 53.8043 18.6207 53.8043 14.6739C53.7683 10.6934 50.4955 7.82605 46.4673 7.82605ZM46.4673 18.8231C44.2734 18.8231 42.3673 17.1027 42.3673 14.6739C42.3673 12.2114 44.2734 10.5247 46.4673 10.5247C48.6612 10.5247 50.5674 12.2114 50.5674 14.6739C50.5674 17.1027 48.6612 18.8231 46.4673 18.8231Z" fill="#FBBC05"/>
<path d="M71.4131 0H74.3479V21.5218H71.4131V0Z" fill="#34A853"/>
<path d="M84.1017 18.7893C82.5674 18.7893 81.4764 18.0809 80.7604 16.7316L90.0001 12.9535L89.6933 12.1776C89.1137 10.6596 87.3748 7.82605 83.7949 7.82605C80.249 7.82605 77.2827 10.5922 77.2827 14.6739C77.2827 18.5195 80.2149 21.5217 84.1358 21.5217C87.3066 21.5217 89.1478 19.5989 89.8978 18.4857L87.5453 16.934C86.727 18.0135 85.636 18.7893 84.1017 18.7893ZM83.8971 10.356C85.1246 10.356 86.1815 10.997 86.5224 11.874L80.2831 14.4378C80.249 11.5367 82.3288 10.356 83.8971 10.356Z" fill="#EA4335"/>
</svg>
