<svg width="48" height="54" viewBox="0 0 48 54" fill="none" xmlns="http://www.w3.org/2000/svg">
<path d="M12.3501 5.13953L24.2159 1.01181C36.3238 -3.23732 48.9161 6.47497 47.9474 19.3437L46.4945 38.6469C45.8891 46.5381 39.593 52.7297 31.7228 52.9725C14.4085 53.7009 0 39.8609 0 22.5002C0 14.7304 4.96426 7.689 12.3501 5.13953Z" fill="url(#paint0_linear)"/>
<path d="M27.9529 31.946H27.2163V28.5706C27.2163 22.3292 22.1607 17.114 15.8489 17C15.6783 17 15.3294 17 15.1588 17C8.84705 17.114 3.79144 22.3292 3.79144 28.5706V31.946H3.05481C1.92273 31.946 1 33.0863 1 34.5079V51.4304C1 52.8445 1.92273 54 3.05481 54H27.9451C29.0772 54 30 52.8445 30 51.4304V34.5079C30.0077 33.0863 29.085 31.946 27.9529 31.946ZM17.8339 42.954V48.0703C17.8339 48.6556 17.3377 49.1498 16.7329 49.1498H14.2671C13.67 49.1498 13.166 48.6556 13.166 48.0703V42.954C12.5845 42.3914 12.2511 41.6236 12.2511 40.7645C12.2511 39.1453 13.5305 37.7465 15.1588 37.6856C15.3294 37.678 15.6783 37.678 15.8489 37.6856C17.4772 37.7465 18.7567 39.1453 18.7567 40.7645C18.7567 41.616 18.4155 42.3914 17.8339 42.954ZM22.37 31.946H15.8489H15.1588H8.63769V28.5706C8.63769 24.8531 11.716 21.7818 15.5 21.7818C19.2839 21.7818 22.3623 24.8531 22.3623 28.5706L22.37 31.946Z" fill="#F7F7F7"/>
<defs>
<linearGradient id="paint0_linear" x1="33" y1="3" x2="-27.5" y2="101" gradientUnits="userSpaceOnUse">
<stop stop-color="#FE6C56"/>
<stop offset="1" stop-color="#FF0084"/>
</linearGradient>
</defs>
</svg>
