<svg width="55" height="59" viewBox="0 0 55 59" fill="none" xmlns="http://www.w3.org/2000/svg">
<path d="M15.4507 3.26295C22.6161 -1.23749 31.624 -1.03292 38.687 3.5698L45.3406 7.96796C54.1438 13.7981 57.4195 25.1515 53.1202 34.766L49.7422 42.3349C45.5454 51.6427 35.4114 56.6545 25.4822 54.5066L21.7972 53.6883C11.7656 51.4381 4.70255 42.3349 5.00964 31.9021L5.41909 20.7533C5.62381 13.5935 9.41124 7.04741 15.4507 3.26295Z" fill="url(#paint0_linear)"/>
<path d="M19 21C8.57218 21 0 29.5722 0 40C0 50.4278 8.57218 59 19 59C29.4278 59 38 50.4278 38 40C38 29.5722 29.4278 21 19 21ZM27.898 41.7651H20.7651V48.898C20.7651 49.9209 19.9776 50.6632 19 50.6632C18.0224 50.6632 17.2349 49.8757 17.2349 48.898V41.7651H10.102C9.07909 41.7651 8.33683 40.9776 8.33683 40C8.33683 39.0224 9.07909 38.2349 10.102 38.2349H17.2349V31.102C17.2349 30.0791 18.0224 29.3368 19 29.3368C19.9776 29.3368 20.7651 30.1243 20.7651 31.102V38.2349H27.898C28.9209 38.2349 29.6632 39.0224 29.6632 40C29.6632 40.9776 28.8757 41.7651 27.898 41.7651Z" fill="#F7F7F7"/>
<defs>
<linearGradient id="paint0_linear" x1="30" y1="75.5" x2="56.0282" y2="-0.796369" gradientUnits="userSpaceOnUse">
<stop stop-color="#FDBD41"/>
<stop offset="1" stop-color="#FF782D"/>
</linearGradient>
</defs>
</svg>
