<svg width="14" height="13" viewBox="0 0 14 13" fill="none" xmlns="http://www.w3.org/2000/svg">
<path d="M14 2.37969C13.4794 2.61392 12.9246 2.76918 12.3462 2.84456C12.9412 2.4802 13.3954 1.90764 13.6089 1.21751C13.0541 1.55674 12.4416 1.79636 11.7889 1.93007C11.2621 1.35482 10.5114 0.998535 9.69238 0.998535C8.10337 0.998535 6.82412 2.32136 6.82412 3.94302C6.82412 4.17636 6.84338 4.40071 6.89062 4.6143C4.5045 4.49495 2.39313 3.322 0.97475 1.5352C0.727125 1.97584 0.581875 2.4802 0.581875 3.02315C0.581875 4.04264 1.09375 4.94636 1.85675 5.46956C1.39562 5.46059 0.94325 5.32328 0.56 5.107C0.56 5.11597 0.56 5.12764 0.56 5.1393C0.56 6.56982 1.55487 7.75802 2.8595 8.03174C2.62587 8.09725 2.37125 8.12866 2.107 8.12866C1.92325 8.12866 1.73775 8.11789 1.56362 8.07841C1.9355 9.24418 2.99075 10.1012 4.2455 10.129C3.269 10.9125 2.02912 11.3846 0.686875 11.3846C0.4515 11.3846 0.22575 11.3738 0 11.3442C1.27137 12.1851 2.77813 12.6652 4.403 12.6652C9.6845 12.6652 12.572 8.17802 12.572 4.28854C12.572 4.15841 12.5676 4.03277 12.5615 3.90802C13.1311 3.49341 13.6097 2.97559 14 2.37969Z" fill="#B1B1B1"/>
</svg>
