<svg width="13" height="13" viewBox="0 0 13 13" fill="none" xmlns="http://www.w3.org/2000/svg">
<path d="M13 7.9698V12.9995H10.2137V8.30666C10.2137 7.12778 9.81067 6.32324 8.80211 6.32324C8.03221 6.32324 7.57404 6.86544 7.37247 7.38993C7.29897 7.57743 7.28005 7.83841 7.28005 8.10088V12.9995H4.49279C4.49279 12.9995 4.53033 5.05136 4.49279 4.22788H7.27977V5.47122C7.27412 5.48052 7.26678 5.49055 7.26146 5.49956H7.27977V5.47122C7.65005 4.87439 8.31133 4.02181 9.79148 4.02181C11.6253 4.02177 13 5.27549 13 7.9698ZM1.5772 -0.000488281C0.623679 -0.000488281 0 0.654032 0 1.51475C0 2.35671 0.605635 3.03109 1.5402 3.03109H1.55882C2.5308 3.03109 3.13529 2.35683 3.13529 1.51475C3.11698 0.654032 2.5308 -0.000488281 1.5772 -0.000488281ZM0.165539 12.9995H2.95174V4.22788H0.165539V12.9995Z" fill="#B1B1B1"/>
</svg>
