<svg width="24" height="25" viewBox="0 0 24 25" fill="none" xmlns="http://www.w3.org/2000/svg">
<path d="M14.6407 19.2797L8.95601 19.2565C6.75476 19.2476 4.97017 17.4484 4.97913 15.2471L5.00229 9.56248C5.01126 7.36123 6.81045 5.57664 9.0117 5.5856L14.7002 5.60877C16.9015 5.61774 18.6861 7.41694 18.6771 9.61819L18.6539 15.3067C18.6411 17.5041 16.8419 19.2887 14.6407 19.2797ZM9.00698 6.74416C7.44294 6.73778 6.16721 8.00316 6.16084 9.5672L6.13767 15.2557C6.1313 16.8197 7.39667 18.0955 8.96072 18.1018L14.6492 18.125C16.2133 18.1314 17.489 16.866 17.4954 15.302L17.5185 9.61347C17.5249 8.04942 16.2595 6.7737 14.6955 6.76733L9.00698 6.74416Z" fill="#B1B1B1"/>
<path d="M11.811 16.1408C9.76804 16.1325 8.11037 14.4612 8.11869 12.4183C8.12701 10.3754 9.79824 8.71772 11.8412 8.72604C13.8841 8.73436 15.5418 10.4056 15.5334 12.4485C15.5251 14.4914 13.8539 16.1491 11.811 16.1408ZM11.8364 9.88459C10.4307 9.87887 9.28297 11.0173 9.27724 12.423C9.27151 13.8287 10.41 14.9765 11.8157 14.9822C13.2214 14.988 14.3692 13.8495 14.3749 12.4438C14.3806 11.0381 13.2422 9.89032 11.8364 9.88459Z" fill="#B1B1B1"/>
<path d="M16.0814 8.73895C16.0802 9.03245 15.8437 9.26706 15.5502 9.26587C15.2567 9.26467 15.022 9.02814 15.0232 8.73464C15.0244 8.44114 15.261 8.20653 15.5545 8.20772C15.848 8.20892 16.0826 8.44545 16.0814 8.73895Z" fill="#B1B1B1"/>
</svg>