<svg width="25" height="27" viewBox="0 0 25 27" fill="none" xmlns="http://www.w3.org/2000/svg">
<mask id="mask0" mask-type="alpha" maskUnits="userSpaceOnUse" x="0" y="0" width="25" height="28">
<path d="M10 24.1072C10 25.7029 11.121 27 12.5 27C13.879 27 15 25.7029 15 24.1072H10Z" fill="#FF782D"/>
<path d="M23.0498 19.8822V12.6166C23.0498 7.35573 19.0087 3.00169 13.8028 2.37059C13.9653 2.12664 14.0628 1.84026 14.0628 1.52736C14.0628 0.68413 13.364 0 12.5027 0C11.6414 0 10.9426 0.68413 10.9426 1.52736C10.9426 1.84026 11.0401 2.12664 11.2026 2.37059C5.99675 2.99638 1.95558 7.35573 1.95558 12.6166V19.8822H0V22.1785H25V19.8822H23.0498ZM20.7042 19.8822H4.29577V12.6166C4.29577 8.18835 7.974 4.58739 12.4973 4.58739C17.0206 4.58739 20.7042 8.18835 20.7042 12.6166V19.8822Z" fill="#FF782D"/>
</mask>
<g mask="url(#mask0)">
<rect x="-2" width="28" height="27" fill="#FF782D"/>
</g>
</svg>
